<svg xmlns="http://www.w3.org/2000/svg" xmlns:xlink="http://www.w3.org/1999/xlink" id="body_3" preserveAspectRatio="xMinYMin meet" viewBox="0 0 816 1056"><defs><clipPath id="1"><path clip-rule="evenodd" d="M0 792L0 0L0 0L612 0L612 0L612 792L612 792L0 792z" /></clipPath><clipPath id="2"><path clip-rule="evenodd" d="M0 792.06L612.06 792.06L612.06 792.06L612.06 0L612.06 0L0 0z" /></clipPath><clipPath id="3"><path clip-rule="evenodd" d="M89.94 172.88L289.18 172.88L289.18 172.88L289.18 133.56L289.18 133.56L89.94 133.56z" /></clipPath><clipPath id="4"><path clip-rule="evenodd" d="M89.94 172.88L289.18 172.88L289.18 172.88L289.18 133.56L289.18 133.56L89.94 133.56z" /></clipPath><clipPath id="5"><path clip-rule="evenodd" d="M289.9 172.88L378.76 172.88L378.76 172.88L378.76 133.56L378.76 133.56L289.9 133.56z" /></clipPath><clipPath id="6"><path clip-rule="evenodd" d="M289.9 172.88L378.76 172.88L378.76 172.88L378.76 133.56L378.76 133.56L289.9 133.56z" /></clipPath><clipPath id="7"><path clip-rule="evenodd" d="M289.9 172.88L378.76 172.88L378.76 172.88L378.76 133.56L378.76 133.56L289.9 133.56z" /></clipPath><clipPath id="8"><path clip-rule="evenodd" d="M379.42 172.88L468.28 172.88L468.28 172.88L468.28 133.56L468.28 133.56L379.42 133.56z" /></clipPath><clipPath id="9"><path clip-rule="evenodd" d="M379.42 172.88L468.28 172.88L468.28 172.88L468.28 133.56L468.28 133.56L379.42 133.56z" /></clipPath><clipPath id="10"><path clip-rule="evenodd" d="M379.42 172.88L468.28 172.88L468.28 172.88L468.28 133.56L468.28 133.56L379.42 133.56z" /></clipPath><clipPath id="11"><path clip-rule="evenodd" d="M469 172.88L554.34 172.88L554.34 172.88L554.34 133.56L554.34 133.56L469 133.56z" /></clipPath><clipPath id="12"><path clip-rule="evenodd" d="M469 172.88L554.34 172.88L554.34 172.88L554.34 133.56L554.34 133.56L469 133.56z" /></clipPath><clipPath id="13"><path clip-rule="evenodd" d="M469 172.88L554.34 172.88L554.34 172.88L554.34 133.56L554.34 133.56L469 133.56z" /></clipPath><clipPath id="14"><path clip-rule="evenodd" d="M469 172.88L554.34 172.88L554.34 172.88L554.34 133.56L554.34 133.56L469 133.56z" /></clipPath><clipPath id="15"><path clip-rule="evenodd" d="M469 172.88L554.34 172.88L554.34 172.88L554.34 133.56L554.34 133.56L469 133.56z" /></clipPath><clipPath id="16"><path clip-rule="evenodd" d="M89.94 187.22L289.18 187.22L289.18 187.22L289.18 173.6L289.18 173.6L89.94 173.6z" /></clipPath><clipPath id="17"><path clip-rule="evenodd" d="M89.94 187.22L289.18 187.22L289.18 187.22L289.18 173.6L289.18 173.6L89.94 173.6z" /></clipPath><clipPath id="18"><path clip-rule="evenodd" d="M89.94 187.22L289.18 187.22L289.18 187.22L289.18 173.6L289.18 173.6L89.94 173.6z" /></clipPath><clipPath id="19"><path clip-rule="evenodd" d="M89.94 187.22L289.18 187.22L289.18 187.22L289.18 173.6L289.18 173.6L89.94 173.6z" /></clipPath><clipPath id="20"><path clip-rule="evenodd" d="M89.94 187.22L289.18 187.22L289.18 187.22L289.18 173.6L289.18 173.6L89.94 173.6z" /></clipPath><clipPath id="21"><path clip-rule="evenodd" d="M89.94 187.22L289.18 187.22L289.18 187.22L289.18 173.6L289.18 173.6L89.94 173.6z" /></clipPath><clipPath id="22"><path clip-rule="evenodd" d="M289.9 187.22L378.76 187.22L378.76 187.22L378.76 173.6L378.76 173.6L289.9 173.6z" /></clipPath><clipPath id="23"><path clip-rule="evenodd" d="M289.9 187.22L378.76 187.22L378.76 187.22L378.76 173.6L378.76 173.6L289.9 173.6z" /></clipPath><clipPath id="24"><path clip-rule="evenodd" d="M289.9 187.22L378.76 187.22L378.76 187.22L378.76 173.6L378.76 173.6L289.9 173.6z" /></clipPath><clipPath id="25"><path clip-rule="evenodd" d="M379.42 187.22L468.28 187.22L468.28 187.22L468.28 173.6L468.28 173.6L379.42 173.6z" /></clipPath><clipPath id="26"><path clip-rule="evenodd" d="M379.42 187.22L468.28 187.22L468.28 187.22L468.28 173.6L468.28 173.6L379.42 173.6z" /></clipPath><clipPath id="27"><path clip-rule="evenodd" d="M379.42 187.22L468.28 187.22L468.28 187.22L468.28 173.6L468.28 173.6L379.42 173.6z" /></clipPath><clipPath id="28"><path clip-rule="evenodd" d="M469 187.22L554.34 187.22L554.34 187.22L554.34 173.6L554.34 173.6L469 173.6z" /></clipPath><clipPath id="29"><path clip-rule="evenodd" d="M469 187.22L554.34 187.22L554.34 187.22L554.34 173.6L554.34 173.6L469 173.6z" /></clipPath><clipPath id="30"><path clip-rule="evenodd" d="M469 187.22L554.34 187.22L554.34 187.22L554.34 173.6L554.34 173.6L469 173.6z" /></clipPath><clipPath id="31"><path clip-rule="evenodd" d="M89.94 201.62L289.18 201.62L289.18 201.62L289.18 188L289.18 188L89.94 188z" /></clipPath><clipPath id="32"><path clip-rule="evenodd" d="M89.94 201.62L289.18 201.62L289.18 201.62L289.18 188L289.18 188L89.94 188z" /></clipPath><clipPath id="33"><path clip-rule="evenodd" d="M89.94 201.62L289.18 201.62L289.18 201.62L289.18 188L289.18 188L89.94 188z" /></clipPath><clipPath id="34"><path clip-rule="evenodd" d="M89.94 201.62L289.18 201.62L289.18 201.62L289.18 188L289.18 188L89.94 188z" /></clipPath><clipPath id="35"><path clip-rule="evenodd" d="M89.94 201.62L289.18 201.62L289.18 201.62L289.18 188L289.18 188L89.94 188z" /></clipPath><clipPath id="36"><path clip-rule="evenodd" d="M89.94 201.62L289.18 201.62L289.18 201.62L289.18 188L289.18 188L89.94 188z" /></clipPath><clipPath id="37"><path clip-rule="evenodd" d="M289.9 201.62L378.76 201.62L378.76 201.62L378.76 188L378.76 188L289.9 188z" /></clipPath><clipPath id="38"><path clip-rule="evenodd" d="M289.9 201.62L378.76 201.62L378.76 201.62L378.76 188L378.76 188L289.9 188z" /></clipPath><clipPath id="39"><path clip-rule="evenodd" d="M289.9 201.62L378.76 201.62L378.76 201.62L378.76 188L378.76 188L289.9 188z" /></clipPath><clipPath id="40"><path clip-rule="evenodd" d="M379.42 201.62L468.28 201.62L468.28 201.62L468.28 188L468.28 188L379.42 188z" /></clipPath><clipPath id="41"><path clip-rule="evenodd" d="M379.42 201.62L468.28 201.62L468.28 201.62L468.28 188L468.28 188L379.42 188z" /></clipPath><clipPath id="42"><path clip-rule="evenodd" d="M379.42 201.62L468.28 201.62L468.28 201.62L468.28 188L468.28 188L379.42 188z" /></clipPath><clipPath id="43"><path clip-rule="evenodd" d="M469 201.62L554.34 201.62L554.34 201.62L554.34 188L554.34 188L469 188z" /></clipPath><clipPath id="44"><path clip-rule="evenodd" d="M469 201.62L554.34 201.62L554.34 201.62L554.34 188L554.34 188L469 188z" /></clipPath><clipPath id="45"><path clip-rule="evenodd" d="M469 201.62L554.34 201.62L554.34 201.62L554.34 188L554.34 188L469 188z" /></clipPath><clipPath id="46"><path clip-rule="evenodd" d="M89.94 229.58L289.18 229.58L289.18 229.58L289.18 202.34L289.18 202.34L89.94 202.34z" /></clipPath><clipPath id="47"><path clip-rule="evenodd" d="M89.94 229.58L289.18 229.58L289.18 229.58L289.18 202.34L289.18 202.34L89.94 202.34z" /></clipPath><clipPath id="48"><path clip-rule="evenodd" d="M89.94 229.58L289.18 229.58L289.18 229.58L289.18 202.34L289.18 202.34L89.94 202.34z" /></clipPath><clipPath id="49"><path clip-rule="evenodd" d="M89.94 229.58L289.18 229.58L289.18 229.58L289.18 202.34L289.18 202.34L89.94 202.34z" /></clipPath><clipPath id="50"><path clip-rule="evenodd" d="M89.94 229.58L289.18 229.58L289.18 229.58L289.18 202.34L289.18 202.34L89.94 202.34z" /></clipPath><clipPath id="51"><path clip-rule="evenodd" d="M289.9 229.58L378.76 229.58L378.76 229.58L378.76 202.34L378.76 202.34L289.9 202.34z" /></clipPath><clipPath id="52"><path clip-rule="evenodd" d="M289.9 229.58L378.76 229.58L378.76 229.58L378.76 202.34L378.76 202.34L289.9 202.34z" /></clipPath><clipPath id="53"><path clip-rule="evenodd" d="M289.9 229.58L378.76 229.58L378.76 229.58L378.76 202.34L378.76 202.34L289.9 202.34z" /></clipPath><clipPath id="54"><path clip-rule="evenodd" d="M379.42 229.58L468.28 229.58L468.28 229.58L468.28 202.34L468.28 202.34L379.42 202.34z" /></clipPath><clipPath id="55"><path clip-rule="evenodd" d="M379.42 229.58L468.28 229.58L468.28 229.58L468.28 202.34L468.28 202.34L379.42 202.34z" /></clipPath><clipPath id="56"><path clip-rule="evenodd" d="M379.42 229.58L468.28 229.58L468.28 229.58L468.28 202.34L468.28 202.34L379.42 202.34z" /></clipPath><clipPath id="57"><path clip-rule="evenodd" d="M469 229.58L554.34 229.58L554.34 229.58L554.34 202.34L554.34 202.34L469 202.34z" /></clipPath><clipPath id="58"><path clip-rule="evenodd" d="M469 229.58L554.34 229.58L554.34 229.58L554.34 202.34L554.34 202.34L469 202.34z" /></clipPath><clipPath id="59"><path clip-rule="evenodd" d="M469 229.58L554.34 229.58L554.34 229.58L554.34 202.34L554.34 202.34L469 202.34z" /></clipPath><clipPath id="60"><path clip-rule="evenodd" d="M89.94 256.04L289.18 256.04L289.18 256.04L289.18 230.36L289.18 230.36L89.94 230.36z" /></clipPath><clipPath id="61"><path clip-rule="evenodd" d="M89.94 256.04L289.18 256.04L289.18 256.04L289.18 230.36L289.18 230.36L89.94 230.36z" /></clipPath><clipPath id="62"><path clip-rule="evenodd" d="M289.9 256.04L468.28 256.04L468.28 256.04L468.28 230.36L468.28 230.36L289.9 230.36z" /></clipPath><clipPath id="63"><path clip-rule="evenodd" d="M289.9 256.04L468.28 256.04L468.28 256.04L468.28 230.36L468.28 230.36L289.9 230.36z" /></clipPath><clipPath id="64"><path clip-rule="evenodd" d="M289.9 256.04L468.28 256.04L468.28 256.04L468.28 230.36L468.28 230.36L289.9 230.36z" /></clipPath><clipPath id="65"><path clip-rule="evenodd" d="M469 256.04L554.34 256.04L554.34 256.04L554.34 230.36L554.34 230.36L469 230.36z" /></clipPath><clipPath id="66"><path clip-rule="evenodd" d="M469 256.04L554.34 256.04L554.34 256.04L554.34 230.36L554.34 230.36L469 230.36z" /></clipPath><clipPath id="67"><path clip-rule="evenodd" d="M469 256.04L554.34 256.04L554.34 256.04L554.34 230.36L554.34 230.36L469 230.36z" /></clipPath><clipPath id="68"><path clip-rule="evenodd" d="M469 256.04L554.34 256.04L554.34 256.04L554.34 230.36L554.34 230.36L469 230.36z" /></clipPath><clipPath id="69"><path clip-rule="evenodd" d="M89.94 270.38L289.18 270.38L289.18 270.38L289.18 256.76L289.18 256.76L89.94 256.76z" /></clipPath><clipPath id="70"><path clip-rule="evenodd" d="M89.94 270.38L289.18 270.38L289.18 270.38L289.18 256.76L289.18 256.76L89.94 256.76z" /></clipPath><clipPath id="71"><path clip-rule="evenodd" d="M89.94 270.38L289.18 270.38L289.18 270.38L289.18 256.76L289.18 256.76L89.94 256.76z" /></clipPath><clipPath id="72"><path clip-rule="evenodd" d="M89.94 270.38L289.18 270.38L289.18 270.38L289.18 256.76L289.18 256.76L89.94 256.76z" /></clipPath><clipPath id="73"><path clip-rule="evenodd" d="M89.94 270.38L289.18 270.38L289.18 270.38L289.18 256.76L289.18 256.76L89.94 256.76z" /></clipPath><clipPath id="74"><path clip-rule="evenodd" d="M89.94 270.38L289.18 270.38L289.18 270.38L289.18 256.76L289.18 256.76L89.94 256.76z" /></clipPath><clipPath id="75"><path clip-rule="evenodd" d="M289.9 270.38L468.28 270.38L468.28 270.38L468.28 256.76L468.28 256.76L289.9 256.76z" /></clipPath><clipPath id="76"><path clip-rule="evenodd" d="M289.9 270.38L468.28 270.38L468.28 270.38L468.28 256.76L468.28 256.76L289.9 256.76z" /></clipPath><clipPath id="77"><path clip-rule="evenodd" d="M289.9 270.38L468.28 270.38L468.28 270.38L468.28 256.76L468.28 256.76L289.9 256.76z" /></clipPath><clipPath id="78"><path clip-rule="evenodd" d="M469 270.38L554.34 270.38L554.34 270.38L554.34 256.76L554.34 256.76L469 256.76z" /></clipPath><clipPath id="79"><path clip-rule="evenodd" d="M469 270.38L554.34 270.38L554.34 270.38L554.34 256.76L554.34 256.76L469 256.76z" /></clipPath><clipPath id="80"><path clip-rule="evenodd" d="M469 270.38L554.34 270.38L554.34 270.38L554.34 256.76L554.34 256.76L469 256.76z" /></clipPath><clipPath id="81"><path clip-rule="evenodd" d="M469 270.38L554.34 270.38L554.34 270.38L554.34 256.76L554.34 256.76L469 256.76z" /></clipPath><clipPath id="82"><path clip-rule="evenodd" d="M89.94 298.4L289.18 298.4L289.18 298.4L289.18 271.16L289.18 271.16L89.94 271.16z" /></clipPath><clipPath id="83"><path clip-rule="evenodd" d="M89.94 298.4L289.18 298.4L289.18 298.4L289.18 271.16L289.18 271.16L89.94 271.16z" /></clipPath><clipPath id="84"><path clip-rule="evenodd" d="M89.94 298.4L289.18 298.4L289.18 298.4L289.18 271.16L289.18 271.16L89.94 271.16z" /></clipPath><clipPath id="85"><path clip-rule="evenodd" d="M89.94 298.4L289.18 298.4L289.18 298.4L289.18 271.16L289.18 271.16L89.94 271.16z" /></clipPath><clipPath id="86"><path clip-rule="evenodd" d="M89.94 298.4L289.18 298.4L289.18 298.4L289.18 271.16L289.18 271.16L89.94 271.16z" /></clipPath><clipPath id="87"><path clip-rule="evenodd" d="M289.9 298.4L468.28 298.4L468.28 298.4L468.28 271.16L468.28 271.16L289.9 271.16z" /></clipPath><clipPath id="88"><path clip-rule="evenodd" d="M289.9 298.4L468.28 298.4L468.28 298.4L468.28 271.16L468.28 271.16L289.9 271.16z" /></clipPath><clipPath id="89"><path clip-rule="evenodd" d="M289.9 298.4L468.28 298.4L468.28 298.4L468.28 271.16L468.28 271.16L289.9 271.16z" /></clipPath><clipPath id="90"><path clip-rule="evenodd" d="M469 298.4L554.34 298.4L554.34 298.4L554.34 271.16L554.34 271.16L469 271.16z" /></clipPath><clipPath id="91"><path clip-rule="evenodd" d="M469 298.4L554.34 298.4L554.34 298.4L554.34 271.16L554.34 271.16L469 271.16z" /></clipPath><clipPath id="92"><path clip-rule="evenodd" d="M469 298.4L554.34 298.4L554.34 298.4L554.34 271.16L554.34 271.16L469 271.16z" /></clipPath><clipPath id="93"><path clip-rule="evenodd" d="M469 298.4L554.34 298.4L554.34 298.4L554.34 271.16L554.34 271.16L469 271.16z" /></clipPath><clipPath id="94"><path clip-rule="evenodd" d="M89.94 326.36L289.18 326.36L289.18 326.36L289.18 299.12L289.18 299.12L89.94 299.12z" /></clipPath><clipPath id="95"><path clip-rule="evenodd" d="M89.94 326.36L289.18 326.36L289.18 326.36L289.18 299.12L289.18 299.12L89.94 299.12z" /></clipPath><clipPath id="96"><path clip-rule="evenodd" d="M289.9 326.36L378.76 326.36L378.76 326.36L378.76 299.12L378.76 299.12L289.9 299.12z" /></clipPath><clipPath id="97"><path clip-rule="evenodd" d="M289.9 326.36L378.76 326.36L378.76 326.36L378.76 299.12L378.76 299.12L289.9 299.12z" /></clipPath><clipPath id="98"><path clip-rule="evenodd" d="M289.9 326.36L378.76 326.36L378.76 326.36L378.76 299.12L378.76 299.12L289.9 299.12z" /></clipPath><clipPath id="99"><path clip-rule="evenodd" d="M379.42 326.36L468.28 326.36L468.28 326.36L468.28 299.12L468.28 299.12L379.42 299.12z" /></clipPath><clipPath id="100"><path clip-rule="evenodd" d="M379.42 326.36L468.28 326.36L468.28 326.36L468.28 299.12L468.28 299.12L379.42 299.12z" /></clipPath><clipPath id="101"><path clip-rule="evenodd" d="M379.42 326.36L468.28 326.36L468.28 326.36L468.28 299.12L468.28 299.12L379.42 299.12z" /></clipPath><clipPath id="102"><path clip-rule="evenodd" d="M379.42 326.36L468.28 326.36L468.28 326.36L468.28 299.12L468.28 299.12L379.42 299.12z" /></clipPath><clipPath id="103"><path clip-rule="evenodd" d="M379.42 326.36L468.28 326.36L468.28 326.36L468.28 299.12L468.28 299.12L379.42 299.12z" /></clipPath><clipPath id="104"><path clip-rule="evenodd" d="M469 326.36L554.34 326.36L554.34 326.36L554.34 299.12L554.34 299.12L469 299.12z" /></clipPath><clipPath id="105"><path clip-rule="evenodd" d="M469 326.36L554.34 326.36L554.34 326.36L554.34 299.12L554.34 299.12L469 299.12z" /></clipPath><clipPath id="106"><path clip-rule="evenodd" d="M469 326.36L554.34 326.36L554.34 326.36L554.34 299.12L554.34 299.12L469 299.12z" /></clipPath><clipPath id="107"><path clip-rule="evenodd" d="M469 326.36L554.34 326.36L554.34 326.36L554.34 299.12L554.34 299.12L469 299.12z" /></clipPath><clipPath id="108"><path clip-rule="evenodd" d="M469 326.36L554.34 326.36L554.34 326.36L554.34 299.12L554.34 299.12L469 299.12z" /></clipPath><clipPath id="109"><path clip-rule="evenodd" d="M89.94 340.7L289.18 340.7L289.18 340.7L289.18 327.14L289.18 327.14L89.94 327.14z" /></clipPath><clipPath id="110"><path clip-rule="evenodd" d="M89.94 340.7L289.18 340.7L289.18 340.7L289.18 327.14L289.18 327.14L89.94 327.14z" /></clipPath><clipPath id="111"><path clip-rule="evenodd" d="M89.94 340.7L289.18 340.7L289.18 340.7L289.18 327.14L289.18 327.14L89.94 327.14z" /></clipPath><clipPath id="112"><path clip-rule="evenodd" d="M89.94 340.7L289.18 340.7L289.18 340.7L289.18 327.14L289.18 327.14L89.94 327.14z" /></clipPath><clipPath id="113"><path clip-rule="evenodd" d="M89.94 340.7L289.18 340.7L289.18 340.7L289.18 327.14L289.18 327.14L89.94 327.14z" /></clipPath><clipPath id="114"><path clip-rule="evenodd" d="M89.94 340.7L289.18 340.7L289.18 340.7L289.18 327.14L289.18 327.14L89.94 327.14z" /></clipPath><clipPath id="115"><path clip-rule="evenodd" d="M289.9 340.7L378.76 340.7L378.76 340.7L378.76 327.14L378.76 327.14L289.9 327.14z" /></clipPath><clipPath id="116"><path clip-rule="evenodd" d="M289.9 340.7L378.76 340.7L378.76 340.7L378.76 327.14L378.76 327.14L289.9 327.14z" /></clipPath><clipPath id="117"><path clip-rule="evenodd" d="M289.9 340.7L378.76 340.7L378.76 340.7L378.76 327.14L378.76 327.14L289.9 327.14z" /></clipPath><clipPath id="118"><path clip-rule="evenodd" d="M379.42 340.7L468.28 340.7L468.28 340.7L468.28 327.14L468.28 327.14L379.42 327.14z" /></clipPath><clipPath id="119"><path clip-rule="evenodd" d="M379.42 340.7L468.28 340.7L468.28 340.7L468.28 327.14L468.28 327.14L379.42 327.14z" /></clipPath><clipPath id="120"><path clip-rule="evenodd" d="M379.42 340.7L468.28 340.7L468.28 340.7L468.28 327.14L468.28 327.14L379.42 327.14z" /></clipPath><clipPath id="121"><path clip-rule="evenodd" d="M469 340.7L554.34 340.7L554.34 340.7L554.34 327.14L554.34 327.14L469 327.14z" /></clipPath><clipPath id="122"><path clip-rule="evenodd" d="M469 340.7L554.34 340.7L554.34 340.7L554.34 327.14L554.34 327.14L469 327.14z" /></clipPath><clipPath id="123"><path clip-rule="evenodd" d="M469 340.7L554.34 340.7L554.34 340.7L554.34 327.14L554.34 327.14L469 327.14z" /></clipPath><clipPath id="124"><path clip-rule="evenodd" d="M89.94 355.1L289.18 355.1L289.18 355.1L289.18 341.48L289.18 341.48L89.94 341.48z" /></clipPath><clipPath id="125"><path clip-rule="evenodd" d="M89.94 355.1L289.18 355.1L289.18 355.1L289.18 341.48L289.18 341.48L89.94 341.48z" /></clipPath><clipPath id="126"><path clip-rule="evenodd" d="M89.94 355.1L289.18 355.1L289.18 355.1L289.18 341.48L289.18 341.48L89.94 341.48z" /></clipPath><clipPath id="127"><path clip-rule="evenodd" d="M89.94 355.1L289.18 355.1L289.18 355.1L289.18 341.48L289.18 341.48L89.94 341.48z" /></clipPath><clipPath id="128"><path clip-rule="evenodd" d="M89.94 355.1L289.18 355.1L289.18 355.1L289.18 341.48L289.18 341.48L89.94 341.48z" /></clipPath><clipPath id="129"><path clip-rule="evenodd" d="M289.9 355.1L378.76 355.1L378.76 355.1L378.76 341.48L378.76 341.48L289.9 341.48z" /></clipPath><clipPath id="130"><path clip-rule="evenodd" d="M289.9 355.1L378.76 355.1L378.76 355.1L378.76 341.48L378.76 341.48L289.9 341.48z" /></clipPath><clipPath id="131"><path clip-rule="evenodd" d="M289.9 355.1L378.76 355.1L378.76 355.1L378.76 341.48L378.76 341.48L289.9 341.48z" /></clipPath><clipPath id="132"><path clip-rule="evenodd" d="M379.42 355.1L468.28 355.1L468.28 355.1L468.28 341.48L468.28 341.48L379.42 341.48z" /></clipPath><clipPath id="133"><path clip-rule="evenodd" d="M379.42 355.1L468.28 355.1L468.28 355.1L468.28 341.48L468.28 341.48L379.42 341.48z" /></clipPath><clipPath id="134"><path clip-rule="evenodd" d="M379.42 355.1L468.28 355.1L468.28 355.1L468.28 341.48L468.28 341.48L379.42 341.48z" /></clipPath><clipPath id="135"><path clip-rule="evenodd" d="M469 355.1L554.34 355.1L554.34 355.1L554.34 341.48L554.34 341.48L469 341.48z" /></clipPath><clipPath id="136"><path clip-rule="evenodd" d="M469 355.1L554.34 355.1L554.34 355.1L554.34 341.48L554.34 341.48L469 341.48z" /></clipPath><clipPath id="137"><path clip-rule="evenodd" d="M469 355.1L554.34 355.1L554.34 355.1L554.34 341.48L554.34 341.48L469 341.48z" /></clipPath><clipPath id="138"><path clip-rule="evenodd" d="M89.94 383.06L289.18 383.06L289.18 383.06L289.18 355.82L289.18 355.82L89.94 355.82z" /></clipPath><clipPath id="139"><path clip-rule="evenodd" d="M89.94 383.06L289.18 383.06L289.18 383.06L289.18 355.82L289.18 355.82L89.94 355.82z" /></clipPath><clipPath id="140"><path clip-rule="evenodd" d="M89.94 383.06L289.18 383.06L289.18 383.06L289.18 355.82L289.18 355.82L89.94 355.82z" /></clipPath><clipPath id="141"><path clip-rule="evenodd" d="M89.94 383.06L289.18 383.06L289.18 383.06L289.18 355.82L289.18 355.82L89.94 355.82z" /></clipPath><clipPath id="142"><path clip-rule="evenodd" d="M89.94 383.06L289.18 383.06L289.18 383.06L289.18 355.82L289.18 355.82L89.94 355.82z" /></clipPath><clipPath id="143"><path clip-rule="evenodd" d="M89.94 383.06L289.18 383.06L289.18 383.06L289.18 355.82L289.18 355.82L89.94 355.82z" /></clipPath><clipPath id="144"><path clip-rule="evenodd" d="M89.94 383.06L289.18 383.06L289.18 383.06L289.18 355.82L289.18 355.82L89.94 355.82z" /></clipPath><clipPath id="145"><path clip-rule="evenodd" d="M89.94 383.06L289.18 383.06L289.18 383.06L289.18 355.82L289.18 355.82L89.94 355.82z" /></clipPath><clipPath id="146"><path clip-rule="evenodd" d="M289.9 383.06L378.76 383.06L378.76 383.06L378.76 355.82L378.76 355.82L289.9 355.82z" /></clipPath><clipPath id="147"><path clip-rule="evenodd" d="M289.9 383.06L378.76 383.06L378.76 383.06L378.76 355.82L378.76 355.82L289.9 355.82z" /></clipPath><clipPath id="148"><path clip-rule="evenodd" d="M289.9 383.06L378.76 383.06L378.76 383.06L378.76 355.82L378.76 355.82L289.9 355.82z" /></clipPath><clipPath id="149"><path clip-rule="evenodd" d="M379.42 383.06L468.28 383.06L468.28 383.06L468.28 355.82L468.28 355.82L379.42 355.82z" /></clipPath><clipPath id="150"><path clip-rule="evenodd" d="M379.42 383.06L468.28 383.06L468.28 383.06L468.28 355.82L468.28 355.82L379.42 355.82z" /></clipPath><clipPath id="151"><path clip-rule="evenodd" d="M379.42 383.06L468.28 383.06L468.28 383.06L468.28 355.82L468.28 355.82L379.42 355.82z" /></clipPath><clipPath id="152"><path clip-rule="evenodd" d="M469 383.06L554.34 383.06L554.34 383.06L554.34 355.82L554.34 355.82L469 355.82z" /></clipPath><clipPath id="153"><path clip-rule="evenodd" d="M469 383.06L554.34 383.06L554.34 383.06L554.34 355.82L554.34 355.82L469 355.82z" /></clipPath><clipPath id="154"><path clip-rule="evenodd" d="M469 383.06L554.34 383.06L554.34 383.06L554.34 355.82L554.34 355.82L469 355.82z" /></clipPath><clipPath id="155"><path clip-rule="evenodd" d="M89.94 397.46L289.18 397.46L289.18 397.46L289.18 383.84L289.18 383.84L89.94 383.84z" /></clipPath><clipPath id="156"><path clip-rule="evenodd" d="M89.94 397.46L289.18 397.46L289.18 397.46L289.18 383.84L289.18 383.84L89.94 383.84z" /></clipPath><clipPath id="157"><path clip-rule="evenodd" d="M89.94 397.46L289.18 397.46L289.18 397.46L289.18 383.84L289.18 383.84L89.94 383.84z" /></clipPath><clipPath id="158"><path clip-rule="evenodd" d="M89.94 397.46L289.18 397.46L289.18 397.46L289.18 383.84L289.18 383.84L89.94 383.84z" /></clipPath><clipPath id="159"><path clip-rule="evenodd" d="M89.94 397.46L289.18 397.46L289.18 397.46L289.18 383.84L289.18 383.84L89.94 383.84z" /></clipPath><clipPath id="160"><path clip-rule="evenodd" d="M289.9 397.46L378.76 397.46L378.76 397.46L378.76 383.84L378.76 383.84L289.9 383.84z" /></clipPath><clipPath id="161"><path clip-rule="evenodd" d="M289.9 397.46L378.76 397.46L378.76 397.46L378.76 383.84L378.76 383.84L289.9 383.84z" /></clipPath><clipPath id="162"><path clip-rule="evenodd" d="M289.9 397.46L378.76 397.46L378.76 397.46L378.76 383.84L378.76 383.84L289.9 383.84z" /></clipPath><clipPath id="163"><path clip-rule="evenodd" d="M379.42 397.46L468.28 397.46L468.28 397.46L468.28 383.84L468.28 383.84L379.42 383.84z" /></clipPath><clipPath id="164"><path clip-rule="evenodd" d="M379.42 397.46L468.28 397.46L468.28 397.46L468.28 383.84L468.28 383.84L379.42 383.84z" /></clipPath><clipPath id="165"><path clip-rule="evenodd" d="M379.42 397.46L468.28 397.46L468.28 397.46L468.28 383.84L468.28 383.84L379.42 383.84z" /></clipPath><clipPath id="166"><path clip-rule="evenodd" d="M469 397.46L554.34 397.46L554.34 397.46L554.34 383.84L554.34 383.84L469 383.84z" /></clipPath><clipPath id="167"><path clip-rule="evenodd" d="M469 397.46L554.34 397.46L554.34 397.46L554.34 383.84L554.34 383.84L469 383.84z" /></clipPath><clipPath id="168"><path clip-rule="evenodd" d="M469 397.46L554.34 397.46L554.34 397.46L554.34 383.84L554.34 383.84L469 383.84z" /></clipPath><clipPath id="169"><path clip-rule="evenodd" d="M89.94 425.44L289.18 425.44L289.18 425.44L289.18 398.18L289.18 398.18L89.94 398.18z" /></clipPath><clipPath id="170"><path clip-rule="evenodd" d="M89.94 425.44L289.18 425.44L289.18 425.44L289.18 398.18L289.18 398.18L89.94 398.18z" /></clipPath><clipPath id="171"><path clip-rule="evenodd" d="M89.94 425.44L289.18 425.44L289.18 425.44L289.18 398.18L289.18 398.18L89.94 398.18z" /></clipPath><clipPath id="172"><path clip-rule="evenodd" d="M89.94 425.44L289.18 425.44L289.18 425.44L289.18 398.18L289.18 398.18L89.94 398.18z" /></clipPath><clipPath id="173"><path clip-rule="evenodd" d="M89.94 425.44L289.18 425.44L289.18 425.44L289.18 398.18L289.18 398.18L89.94 398.18z" /></clipPath><clipPath id="174"><path clip-rule="evenodd" d="M289.9 425.44L378.76 425.44L378.76 425.44L378.76 398.18L378.76 398.18L289.9 398.18z" /></clipPath><clipPath id="175"><path clip-rule="evenodd" d="M289.9 425.44L378.76 425.44L378.76 425.44L378.76 398.18L378.76 398.18L289.9 398.18z" /></clipPath><clipPath id="176"><path clip-rule="evenodd" d="M289.9 425.44L378.76 425.44L378.76 425.44L378.76 398.18L378.76 398.18L289.9 398.18z" /></clipPath><clipPath id="177"><path clip-rule="evenodd" d="M379.42 425.44L468.28 425.44L468.28 425.44L468.28 398.18L468.28 398.18L379.42 398.18z" /></clipPath><clipPath id="178"><path clip-rule="evenodd" d="M379.42 425.44L468.28 425.44L468.28 425.44L468.28 398.18L468.28 398.18L379.42 398.18z" /></clipPath><clipPath id="179"><path clip-rule="evenodd" d="M379.42 425.44L468.28 425.44L468.28 425.44L468.28 398.18L468.28 398.18L379.42 398.18z" /></clipPath><clipPath id="180"><path clip-rule="evenodd" d="M469 425.44L554.34 425.44L554.34 425.44L554.34 398.18L554.34 398.18L469 398.18z" /></clipPath><clipPath id="181"><path clip-rule="evenodd" d="M469 425.44L554.34 425.44L554.34 425.44L554.34 398.18L554.34 398.18L469 398.18z" /></clipPath><clipPath id="182"><path clip-rule="evenodd" d="M469 425.44L554.34 425.44L554.34 425.44L554.34 398.18L554.34 398.18L469 398.18z" /></clipPath><clipPath id="183"><path clip-rule="evenodd" d="M469 425.44L554.34 425.44L554.34 425.44L554.34 398.18L554.34 398.18L469 398.18z" /></clipPath><clipPath id="184"><path clip-rule="evenodd" d="M469 425.44L554.34 425.44L554.34 425.44L554.34 398.18L554.34 398.18L469 398.18z" /></clipPath><clipPath id="185"><path clip-rule="evenodd" d="M469 425.44L554.34 425.44L554.34 425.44L554.34 398.18L554.34 398.18L469 398.18z" /></clipPath><clipPath id="186"><path clip-rule="evenodd" d="M89.94 453.46L289.18 453.46L289.18 453.46L289.18 426.22L289.18 426.22L89.94 426.22z" /></clipPath><clipPath id="187"><path clip-rule="evenodd" d="M89.94 453.46L289.18 453.46L289.18 453.46L289.18 426.22L289.18 426.22L89.94 426.22z" /></clipPath><clipPath id="188"><path clip-rule="evenodd" d="M89.94 453.46L289.18 453.46L289.18 453.46L289.18 426.22L289.18 426.22L89.94 426.22z" /></clipPath><clipPath id="189"><path clip-rule="evenodd" d="M89.94 453.46L289.18 453.46L289.18 453.46L289.18 426.22L289.18 426.22L89.94 426.22z" /></clipPath><clipPath id="190"><path clip-rule="evenodd" d="M89.94 453.46L289.18 453.46L289.18 453.46L289.18 426.22L289.18 426.22L89.94 426.22z" /></clipPath><clipPath id="191"><path clip-rule="evenodd" d="M89.94 453.46L289.18 453.46L289.18 453.46L289.18 426.22L289.18 426.22L89.94 426.22z" /></clipPath><clipPath id="192"><path clip-rule="evenodd" d="M289.9 453.46L378.76 453.46L378.76 453.46L378.76 426.22L378.76 426.22L289.9 426.22z" /></clipPath><clipPath id="193"><path clip-rule="evenodd" d="M289.9 453.46L378.76 453.46L378.76 453.46L378.76 426.22L378.76 426.22L289.9 426.22z" /></clipPath><clipPath id="194"><path clip-rule="evenodd" d="M289.9 453.46L378.76 453.46L378.76 453.46L378.76 426.22L378.76 426.22L289.9 426.22z" /></clipPath><clipPath id="195"><path clip-rule="evenodd" d="M379.42 453.46L468.28 453.46L468.28 453.46L468.28 426.22L468.28 426.22L379.42 426.22z" /></clipPath><clipPath id="196"><path clip-rule="evenodd" d="M379.42 453.46L468.28 453.46L468.28 453.46L468.28 426.22L468.28 426.22L379.42 426.22z" /></clipPath><clipPath id="197"><path clip-rule="evenodd" d="M379.42 453.46L468.28 453.46L468.28 453.46L468.28 426.22L468.28 426.22L379.42 426.22z" /></clipPath><clipPath id="198"><path clip-rule="evenodd" d="M469 453.46L554.34 453.46L554.34 453.46L554.34 426.22L554.34 426.22L469 426.22z" /></clipPath><clipPath id="199"><path clip-rule="evenodd" d="M469 453.46L554.34 453.46L554.34 453.46L554.34 426.22L554.34 426.22L469 426.22z" /></clipPath><clipPath id="200"><path clip-rule="evenodd" d="M469 453.46L554.34 453.46L554.34 453.46L554.34 426.22L554.34 426.22L469 426.22z" /></clipPath><clipPath id="201"><path clip-rule="evenodd" d="M469 453.46L554.34 453.46L554.34 453.46L554.34 426.22L554.34 426.22L469 426.22z" /></clipPath><clipPath id="202"><path clip-rule="evenodd" d="M469 453.46L554.34 453.46L554.34 453.46L554.34 426.22L554.34 426.22L469 426.22z" /></clipPath><clipPath id="203"><path clip-rule="evenodd" d="M469 453.46L554.34 453.46L554.34 453.46L554.34 426.22L554.34 426.22L469 426.22z" /></clipPath><clipPath id="204"><path clip-rule="evenodd" d="M89.94 532L388.18 532L388.18 532L388.18 518.38L388.18 518.38L89.94 518.38z" /></clipPath><clipPath id="205"><path clip-rule="evenodd" d="M89.94 532L388.18 532L388.18 532L388.18 518.38L388.18 518.38L89.94 518.38z" /></clipPath><clipPath id="206"><path clip-rule="evenodd" d="M89.94 532L388.18 532L388.18 532L388.18 518.38L388.18 518.38L89.94 518.38z" /></clipPath><clipPath id="207"><path clip-rule="evenodd" d="M388.9 532L554.34 532L554.34 532L554.34 518.38L554.34 518.38L388.9 518.38z" /></clipPath><clipPath id="208"><path clip-rule="evenodd" d="M388.9 532L554.34 532L554.34 532L554.34 518.38L554.34 518.38L388.9 518.38z" /></clipPath><clipPath id="209"><path clip-rule="evenodd" d="M388.9 532L554.34 532L554.34 532L554.34 518.38L554.34 518.38L388.9 518.38z" /></clipPath><clipPath id="210"><path clip-rule="evenodd" d="M89.94 546.4L388.18 546.4L388.18 546.4L388.18 532.78L388.18 532.78L89.94 532.78z" /></clipPath><clipPath id="211"><path clip-rule="evenodd" d="M89.94 546.4L388.18 546.4L388.18 546.4L388.18 532.78L388.18 532.78L89.94 532.78z" /></clipPath><clipPath id="212"><path clip-rule="evenodd" d="M89.94 546.4L388.18 546.4L388.18 546.4L388.18 532.78L388.18 532.78L89.94 532.78z" /></clipPath><clipPath id="213"><path clip-rule="evenodd" d="M89.94 546.4L388.18 546.4L388.18 546.4L388.18 532.78L388.18 532.78L89.94 532.78z" /></clipPath><clipPath id="214"><path clip-rule="evenodd" d="M89.94 546.4L388.18 546.4L388.18 546.4L388.18 532.78L388.18 532.78L89.94 532.78z" /></clipPath><clipPath id="215"><path clip-rule="evenodd" d="M388.9 546.4L554.34 546.4L554.34 546.4L554.34 532.78L554.34 532.78L388.9 532.78z" /></clipPath><clipPath id="216"><path clip-rule="evenodd" d="M388.9 546.4L554.34 546.4L554.34 546.4L554.34 532.78L554.34 532.78L388.9 532.78z" /></clipPath><clipPath id="217"><path clip-rule="evenodd" d="M388.9 546.4L554.34 546.4L554.34 546.4L554.34 532.78L554.34 532.78L388.9 532.78z" /></clipPath><clipPath id="218"><path clip-rule="evenodd" d="M388.9 546.4L554.34 546.4L554.34 546.4L554.34 532.78L554.34 532.78L388.9 532.78z" /></clipPath><clipPath id="219"><path clip-rule="evenodd" d="M89.94 560.74L388.18 560.74L388.18 560.74L388.18 547.12L388.18 547.12L89.94 547.12z" /></clipPath><clipPath id="220"><path clip-rule="evenodd" d="M89.94 560.74L388.18 560.74L388.18 560.74L388.18 547.12L388.18 547.12L89.94 547.12z" /></clipPath><clipPath id="221"><path clip-rule="evenodd" d="M89.94 560.74L388.18 560.74L388.18 560.74L388.18 547.12L388.18 547.12L89.94 547.12z" /></clipPath><clipPath id="222"><path clip-rule="evenodd" d="M388.9 560.74L554.34 560.74L554.34 560.74L554.34 547.12L554.34 547.12L388.9 547.12z" /></clipPath><clipPath id="223"><path clip-rule="evenodd" d="M388.9 560.74L554.34 560.74L554.34 560.74L554.34 547.12L554.34 547.12L388.9 547.12z" /></clipPath><clipPath id="224"><path clip-rule="evenodd" d="M388.9 560.74L554.34 560.74L554.34 560.74L554.34 547.12L554.34 547.12L388.9 547.12z" /></clipPath><clipPath id="225"><path clip-rule="evenodd" d="M89.94 575.14L388.18 575.14L388.18 575.14L388.18 561.52L388.18 561.52L89.94 561.52z" /></clipPath><clipPath id="226"><path clip-rule="evenodd" d="M89.94 575.14L388.18 575.14L388.18 575.14L388.18 561.52L388.18 561.52L89.94 561.52z" /></clipPath><clipPath id="227"><path clip-rule="evenodd" d="M89.94 575.14L388.18 575.14L388.18 575.14L388.18 561.52L388.18 561.52L89.94 561.52z" /></clipPath><clipPath id="228"><path clip-rule="evenodd" d="M388.9 575.14L554.34 575.14L554.34 575.14L554.34 561.52L554.34 561.52L388.9 561.52z" /></clipPath><clipPath id="229"><path clip-rule="evenodd" d="M388.9 575.14L554.34 575.14L554.34 575.14L554.34 561.52L554.34 561.52L388.9 561.52z" /></clipPath><clipPath id="230"><path clip-rule="evenodd" d="M388.9 575.14L554.34 575.14L554.34 575.14L554.34 561.52L554.34 561.52L388.9 561.52z" /></clipPath><clipPath id="231"><path clip-rule="evenodd" d="M89.94 589.48L388.18 589.48L388.18 589.48L388.18 575.86L388.18 575.86L89.94 575.86z" /></clipPath><clipPath id="232"><path clip-rule="evenodd" d="M89.94 589.48L388.18 589.48L388.18 589.48L388.18 575.86L388.18 575.86L89.94 575.86z" /></clipPath><clipPath id="233"><path clip-rule="evenodd" d="M89.94 589.48L388.18 589.48L388.18 589.48L388.18 575.86L388.18 575.86L89.94 575.86z" /></clipPath><clipPath id="234"><path clip-rule="evenodd" d="M388.9 589.48L554.34 589.48L554.34 589.48L554.34 575.86L554.34 575.86L388.9 575.86z" /></clipPath><clipPath id="235"><path clip-rule="evenodd" d="M388.9 589.48L554.34 589.48L554.34 589.48L554.34 575.86L554.34 575.86L388.9 575.86z" /></clipPath><clipPath id="236"><path clip-rule="evenodd" d="M388.9 589.48L554.34 589.48L554.34 589.48L554.34 575.86L554.34 575.86L388.9 575.86z" /></clipPath><clipPath id="237"><path clip-rule="evenodd" d="M388.9 589.48L554.34 589.48L554.34 589.48L554.34 575.86L554.34 575.86L388.9 575.86z" /></clipPath></defs><g transform="matrix(1.333333 0 0 1.333333 0 0)"><g clip-path="url(#1)"><g clip-path="url(#2)"><path transform="matrix(1 0 0 -1 0 792)" d="M88.5 742.56L523.56 742.56L523.56 742.56L523.56 743.28L523.56 743.28L88.5 743.28z" stroke="none" fill="#000000" fill-rule="evenodd" /></g><g clip-path="url(#3)"><g clip-path="url(#4)"></g></g><g clip-path="url(#5)"><g clip-path="url(#6)"></g><g clip-path="url(#7)"></g></g><g clip-path="url(#8)"><g clip-path="url(#9)"></g><g clip-path="url(#10)"></g></g><g clip-path="url(#11)"><g clip-path="url(#12)"></g><g clip-path="url(#13)"></g><g clip-path="url(#14)"></g><g clip-path="url(#15)"></g></g><path transform="matrix(1 0 0 -1 0 792)" d="M89.22 658.44L89.93999 658.44L89.93999 658.44L89.93999 659.22L89.93999 659.22L89.22 659.22z" stroke="none" fill="#000000" fill-rule="evenodd" /><path transform="matrix(1 0 0 -1 0 792)" d="M89.22 658.5L89.93999 658.5L89.93999 658.5L89.93999 659.22L89.93999 659.22L89.22 659.22z" stroke="none" fill="#000000" fill-rule="evenodd" /><path transform="matrix(1 0 0 -1 0 792)" d="M89.94 658.5L289.18 658.5L289.18 658.5L289.18 659.22L289.18 659.22L89.94 659.22z" stroke="none" fill="#000000" fill-rule="evenodd" /><path transform="matrix(1 0 0 -1 0 792)" d="M289.18 658.44L289.9 658.44L289.9 658.44L289.9 658.5L289.9 658.5L289.18 658.5z" stroke="none" fill="#000000" fill-rule="evenodd" /><path transform="matrix(1 0 0 -1 0 792)" d="M289.18 658.5L289.9 658.5L289.9 658.5L289.9 659.22L289.9 659.22L289.18 659.22z" stroke="none" fill="#000000" fill-rule="evenodd" /><path transform="matrix(1 0 0 -1 0 792)" d="M289.9 658.5L378.76 658.5L378.76 658.5L378.76 659.22L378.76 659.22L289.9 659.22z" stroke="none" fill="#000000" fill-rule="evenodd" /><path transform="matrix(1 0 0 -1 0 792)" d="M378.76 658.44L379.48 658.44L379.48 658.44L379.48 658.5L379.48 658.5L378.76 658.5z" stroke="none" fill="#000000" fill-rule="evenodd" /><path transform="matrix(1 0 0 -1 0 792)" d="M378.76 658.5L379.48 658.5L379.48 658.5L379.48 659.22L379.48 659.22L378.76 659.22z" stroke="none" fill="#000000" fill-rule="evenodd" /><path transform="matrix(1 0 0 -1 0 792)" d="M379.48 658.5L468.28 658.5L468.28 658.5L468.28 659.22L468.28 659.22L379.48 659.22z" stroke="none" fill="#000000" fill-rule="evenodd" /><path transform="matrix(1 0 0 -1 0 792)" d="M468.28 658.44L469 658.44L469 658.44L469 658.5L469 658.5L468.28 658.5z" stroke="none" fill="#000000" fill-rule="evenodd" /><path transform="matrix(1 0 0 -1 0 792)" d="M468.28 658.5L469 658.5L469 658.5L469 659.22L469 659.22L468.28 659.22z" stroke="none" fill="#000000" fill-rule="evenodd" /><path transform="matrix(1 0 0 -1 0 792)" d="M469 658.5L554.28 658.5L554.28 658.5L554.28 659.22L554.28 659.22L469 659.22z" stroke="none" fill="#000000" fill-rule="evenodd" /><path transform="matrix(1 0 0 -1 0 792)" d="M554.28 658.44L555.0001 658.44L555.0001 658.44L555.0001 659.22L555.0001 659.22L554.28 659.22z" stroke="none" fill="#000000" fill-rule="evenodd" /><path transform="matrix(1 0 0 -1 0 792)" d="M554.28 658.5L555.0001 658.5L555.0001 658.5L555.0001 659.22L555.0001 659.22L554.28 659.22z" stroke="none" fill="#000000" fill-rule="evenodd" /><path transform="matrix(1 0 0 -1 0 792)" d="M89.22 619.12L89.93999 619.12L89.93999 619.12L89.93999 658.44L89.93999 658.44L89.22 658.44z" stroke="none" fill="#000000" fill-rule="evenodd" /><path transform="matrix(1 0 0 -1 0 792)" d="M289.18 619.12L289.9 619.12L289.9 619.12L289.9 658.44L289.9 658.44L289.18 658.44z" stroke="none" fill="#000000" fill-rule="evenodd" /><path transform="matrix(1 0 0 -1 0 792)" d="M378.76 619.12L379.48 619.12L379.48 619.12L379.48 658.44L379.48 658.44L378.76 658.44z" stroke="none" fill="#000000" fill-rule="evenodd" /><path transform="matrix(1 0 0 -1 0 792)" d="M468.28 619.12L469 619.12L469 619.12L469 658.44L469 658.44L468.28 658.44z" stroke="none" fill="#000000" fill-rule="evenodd" /><path transform="matrix(1 0 0 -1 0 792)" d="M554.28 619.12L555.0001 619.12L555.0001 619.12L555.0001 658.44L555.0001 658.44L554.28 658.44z" stroke="none" fill="#000000" fill-rule="evenodd" /><g clip-path="url(#16)"><g clip-path="url(#17)"></g><g clip-path="url(#18)"></g><g clip-path="url(#19)"></g><g clip-path="url(#20)"></g><g clip-path="url(#21)"></g></g><g clip-path="url(#22)"><g clip-path="url(#23)"></g><g clip-path="url(#24)"></g></g><g clip-path="url(#25)"><g clip-path="url(#26)"></g><g clip-path="url(#27)"></g></g><g clip-path="url(#28)"><g clip-path="url(#29)"></g><g clip-path="url(#30)"></g></g><path transform="matrix(1 0 0 -1 0 792)" d="M89.22 618.34L89.93999 618.34L89.93999 618.34L89.93999 619.1201L89.93999 619.1201L89.22 619.1201z" stroke="none" fill="#000000" fill-rule="evenodd" /><path transform="matrix(1 0 0 -1 0 792)" d="M89.94 618.4L289.18 618.4L289.18 618.4L289.18 619.12L289.18 619.12L89.94 619.12z" stroke="none" fill="#000000" fill-rule="evenodd" /><path transform="matrix(1 0 0 -1 0 792)" d="M289.18 618.34L289.9 618.34L289.9 618.34L289.9 619.1201L289.9 619.1201L289.18 619.1201z" stroke="none" fill="#000000" fill-rule="evenodd" /><path transform="matrix(1 0 0 -1 0 792)" d="M289.9 618.4L378.76 618.4L378.76 618.4L378.76 619.12L378.76 619.12L289.9 619.12z" stroke="none" fill="#000000" fill-rule="evenodd" /><path transform="matrix(1 0 0 -1 0 792)" d="M378.76 618.34L379.48 618.34L379.48 618.34L379.48 619.1201L379.48 619.1201L378.76 619.1201z" stroke="none" fill="#000000" fill-rule="evenodd" /><path transform="matrix(1 0 0 -1 0 792)" d="M379.48 618.4L468.28 618.4L468.28 618.4L468.28 619.12L468.28 619.12L379.48 619.12z" stroke="none" fill="#000000" fill-rule="evenodd" /><path transform="matrix(1 0 0 -1 0 792)" d="M468.28 618.34L469 618.34L469 618.34L469 619.1201L469 619.1201L468.28 619.1201z" stroke="none" fill="#000000" fill-rule="evenodd" /><path transform="matrix(1 0 0 -1 0 792)" d="M469 618.4L554.28 618.4L554.28 618.4L554.28 619.12L554.28 619.12L469 619.12z" stroke="none" fill="#000000" fill-rule="evenodd" /><path transform="matrix(1 0 0 -1 0 792)" d="M554.28 618.34L555.0001 618.34L555.0001 618.34L555.0001 619.1201L555.0001 619.1201L554.28 619.1201z" stroke="none" fill="#000000" fill-rule="evenodd" /><path transform="matrix(1 0 0 -1 0 792)" d="M89.22 604.78L89.93999 604.78L89.93999 604.78L89.93999 618.34L89.93999 618.34L89.22 618.34z" stroke="none" fill="#000000" fill-rule="evenodd" /><path transform="matrix(1 0 0 -1 0 792)" d="M289.18 604.78L289.9 604.78L289.9 604.78L289.9 618.34L289.9 618.34L289.18 618.34z" stroke="none" fill="#000000" fill-rule="evenodd" /><path transform="matrix(1 0 0 -1 0 792)" d="M378.76 604.78L379.48 604.78L379.48 604.78L379.48 618.34L379.48 618.34L378.76 618.34z" stroke="none" fill="#000000" fill-rule="evenodd" /><path transform="matrix(1 0 0 -1 0 792)" d="M468.28 604.78L469 604.78L469 604.78L469 618.34L469 618.34L468.28 618.34z" stroke="none" fill="#000000" fill-rule="evenodd" /><path transform="matrix(1 0 0 -1 0 792)" d="M554.28 604.78L555.0001 604.78L555.0001 604.78L555.0001 618.34L555.0001 618.34L554.28 618.34z" stroke="none" fill="#000000" fill-rule="evenodd" /><g clip-path="url(#31)"><g clip-path="url(#32)"></g><g clip-path="url(#33)"></g><g clip-path="url(#34)"></g><g clip-path="url(#35)"></g><g clip-path="url(#36)"></g></g><g clip-path="url(#37)"><g clip-path="url(#38)"></g><g clip-path="url(#39)"></g></g><g clip-path="url(#40)"><g clip-path="url(#41)"></g><g clip-path="url(#42)"></g></g><g clip-path="url(#43)"><g clip-path="url(#44)"></g><g clip-path="url(#45)"></g></g><path transform="matrix(1 0 0 -1 0 792)" d="M89.22 604L89.93999 604L89.93999 604L89.93999 604.78L89.93999 604.78L89.22 604.78z" stroke="none" fill="#000000" fill-rule="evenodd" /><path transform="matrix(1 0 0 -1 0 792)" d="M89.94 604.06L289.18 604.06L289.18 604.06L289.18 604.78L289.18 604.78L89.94 604.78z" stroke="none" fill="#000000" fill-rule="evenodd" /><path transform="matrix(1 0 0 -1 0 792)" d="M289.18 604L289.9 604L289.9 604L289.9 604.78L289.9 604.78L289.18 604.78z" stroke="none" fill="#000000" fill-rule="evenodd" /><path transform="matrix(1 0 0 -1 0 792)" d="M289.9 604.06L378.76 604.06L378.76 604.06L378.76 604.78L378.76 604.78L289.9 604.78z" stroke="none" fill="#000000" fill-rule="evenodd" /><path transform="matrix(1 0 0 -1 0 792)" d="M378.76 604L379.48 604L379.48 604L379.48 604.78L379.48 604.78L378.76 604.78z" stroke="none" fill="#000000" fill-rule="evenodd" /><path transform="matrix(1 0 0 -1 0 792)" d="M379.48 604.06L468.28 604.06L468.28 604.06L468.28 604.78L468.28 604.78L379.48 604.78z" stroke="none" fill="#000000" fill-rule="evenodd" /><path transform="matrix(1 0 0 -1 0 792)" d="M468.28 604L469 604L469 604L469 604.78L469 604.78L468.28 604.78z" stroke="none" fill="#000000" fill-rule="evenodd" /><path transform="matrix(1 0 0 -1 0 792)" d="M469 604.06L554.28 604.06L554.28 604.06L554.28 604.78L554.28 604.78L469 604.78z" stroke="none" fill="#000000" fill-rule="evenodd" /><path transform="matrix(1 0 0 -1 0 792)" d="M554.28 604L555.0001 604L555.0001 604L555.0001 604.78L555.0001 604.78L554.28 604.78z" stroke="none" fill="#000000" fill-rule="evenodd" /><path transform="matrix(1 0 0 -1 0 792)" d="M89.22 590.38L89.93999 590.38L89.93999 590.38L89.93999 604L89.93999 604L89.22 604z" stroke="none" fill="#000000" fill-rule="evenodd" /><path transform="matrix(1 0 0 -1 0 792)" d="M289.18 590.38L289.9 590.38L289.9 590.38L289.9 604L289.9 604L289.18 604z" stroke="none" fill="#000000" fill-rule="evenodd" /><path transform="matrix(1 0 0 -1 0 792)" d="M378.76 590.38L379.48 590.38L379.48 590.38L379.48 604L379.48 604L378.76 604z" stroke="none" fill="#000000" fill-rule="evenodd" /><path transform="matrix(1 0 0 -1 0 792)" d="M468.28 590.38L469 590.38L469 590.38L469 604L469 604L468.28 604z" stroke="none" fill="#000000" fill-rule="evenodd" /><path transform="matrix(1 0 0 -1 0 792)" d="M554.28 590.38L555.0001 590.38L555.0001 590.38L555.0001 604L555.0001 604L554.28 604z" stroke="none" fill="#000000" fill-rule="evenodd" /><g clip-path="url(#46)"><g clip-path="url(#47)"></g><g clip-path="url(#48)"></g><g clip-path="url(#49)"></g><g clip-path="url(#50)"></g></g><g clip-path="url(#51)"><g clip-path="url(#52)"></g><g clip-path="url(#53)"></g></g><g clip-path="url(#54)"><g clip-path="url(#55)"></g><g clip-path="url(#56)"></g></g><g clip-path="url(#57)"><g clip-path="url(#58)"></g><g clip-path="url(#59)"></g></g><path transform="matrix(1 0 0 -1 0 792)" d="M89.22 589.6L89.93999 589.6L89.93999 589.6L89.93999 590.38L89.93999 590.38L89.22 590.38z" stroke="none" fill="#000000" fill-rule="evenodd" /><path transform="matrix(1 0 0 -1 0 792)" d="M89.94 589.66L289.18 589.66L289.18 589.66L289.18 590.3799L289.18 590.3799L89.94 590.3799z" stroke="none" fill="#000000" fill-rule="evenodd" /><path transform="matrix(1 0 0 -1 0 792)" d="M289.18 589.6L289.9 589.6L289.9 589.6L289.9 590.38L289.9 590.38L289.18 590.38z" stroke="none" fill="#000000" fill-rule="evenodd" /><path transform="matrix(1 0 0 -1 0 792)" d="M289.9 589.66L378.76 589.66L378.76 589.66L378.76 590.3799L378.76 590.3799L289.9 590.3799z" stroke="none" fill="#000000" fill-rule="evenodd" /><path transform="matrix(1 0 0 -1 0 792)" d="M378.76 589.6L379.48 589.6L379.48 589.6L379.48 590.38L379.48 590.38L378.76 590.38z" stroke="none" fill="#000000" fill-rule="evenodd" /><path transform="matrix(1 0 0 -1 0 792)" d="M379.48 589.66L468.28 589.66L468.28 589.66L468.28 590.3799L468.28 590.3799L379.48 590.3799z" stroke="none" fill="#000000" fill-rule="evenodd" /><path transform="matrix(1 0 0 -1 0 792)" d="M468.28 589.6L469 589.6L469 589.6L469 590.38L469 590.38L468.28 590.38z" stroke="none" fill="#000000" fill-rule="evenodd" /><path transform="matrix(1 0 0 -1 0 792)" d="M469 589.66L554.28 589.66L554.28 589.66L554.28 590.3799L554.28 590.3799L469 590.3799z" stroke="none" fill="#000000" fill-rule="evenodd" /><path transform="matrix(1 0 0 -1 0 792)" d="M554.28 589.6L555.0001 589.6L555.0001 589.6L555.0001 590.38L555.0001 590.38L554.28 590.38z" stroke="none" fill="#000000" fill-rule="evenodd" /><path transform="matrix(1 0 0 -1 0 792)" d="M89.22 562.42L89.93999 562.42L89.93999 562.42L89.93999 589.6L89.93999 589.6L89.22 589.6z" stroke="none" fill="#000000" fill-rule="evenodd" /><path transform="matrix(1 0 0 -1 0 792)" d="M289.18 562.42L289.9 562.42L289.9 562.42L289.9 589.6L289.9 589.6L289.18 589.6z" stroke="none" fill="#000000" fill-rule="evenodd" /><path transform="matrix(1 0 0 -1 0 792)" d="M378.76 562.42L379.48 562.42L379.48 562.42L379.48 589.6L379.48 589.6L378.76 589.6z" stroke="none" fill="#000000" fill-rule="evenodd" /><path transform="matrix(1 0 0 -1 0 792)" d="M468.28 562.42L469 562.42L469 562.42L469 589.6L469 589.6L468.28 589.6z" stroke="none" fill="#000000" fill-rule="evenodd" /><path transform="matrix(1 0 0 -1 0 792)" d="M554.28 562.42L555.0001 562.42L555.0001 562.42L555.0001 589.6L555.0001 589.6L554.28 589.6z" stroke="none" fill="#000000" fill-rule="evenodd" /><g clip-path="url(#60)"><g clip-path="url(#61)"></g></g><g clip-path="url(#62)"><g clip-path="url(#63)"></g><g clip-path="url(#64)"></g></g><g clip-path="url(#65)"><g clip-path="url(#66)"></g><g clip-path="url(#67)"></g><g clip-path="url(#68)"></g></g><path transform="matrix(1 0 0 -1 0 792)" d="M89.22 561.64L89.93999 561.64L89.93999 561.64L89.93999 562.42L89.93999 562.42L89.22 562.42z" stroke="none" fill="#000000" fill-rule="evenodd" /><path transform="matrix(1 0 0 -1 0 792)" d="M89.94 561.7L289.18 561.7L289.18 561.7L289.18 562.42L289.18 562.42L89.94 562.42z" stroke="none" fill="#000000" fill-rule="evenodd" /><path transform="matrix(1 0 0 -1 0 792)" d="M289.18 561.64L289.9 561.64L289.9 561.64L289.9 562.42L289.9 562.42L289.18 562.42z" stroke="none" fill="#000000" fill-rule="evenodd" /><path transform="matrix(1 0 0 -1 0 792)" d="M289.9 561.7L378.76 561.7L378.76 561.7L378.76 562.42L378.76 562.42L289.9 562.42z" stroke="none" fill="#000000" fill-rule="evenodd" /><path transform="matrix(1 0 0 -1 0 792)" d="M378.76 561.7L379.48 561.7L379.48 561.7L379.48 562.42L379.48 562.42L378.76 562.42z" stroke="none" fill="#000000" fill-rule="evenodd" /><path transform="matrix(1 0 0 -1 0 792)" d="M379.48 561.7L468.28 561.7L468.28 561.7L468.28 562.42L468.28 562.42L379.48 562.42z" stroke="none" fill="#000000" fill-rule="evenodd" /><path transform="matrix(1 0 0 -1 0 792)" d="M468.28 561.64L469 561.64L469 561.64L469 562.42L469 562.42L468.28 562.42z" stroke="none" fill="#000000" fill-rule="evenodd" /><path transform="matrix(1 0 0 -1 0 792)" d="M469 561.7L554.28 561.7L554.28 561.7L554.28 562.42L554.28 562.42L469 562.42z" stroke="none" fill="#000000" fill-rule="evenodd" /><path transform="matrix(1 0 0 -1 0 792)" d="M554.28 561.64L555.0001 561.64L555.0001 561.64L555.0001 562.42L555.0001 562.42L554.28 562.42z" stroke="none" fill="#000000" fill-rule="evenodd" /><path transform="matrix(1 0 0 -1 0 792)" d="M89.22 535.96L89.93999 535.96L89.93999 535.96L89.93999 561.64L89.93999 561.64L89.22 561.64z" stroke="none" fill="#000000" fill-rule="evenodd" /><path transform="matrix(1 0 0 -1 0 792)" d="M289.18 535.96L289.9 535.96L289.9 535.96L289.9 561.64L289.9 561.64L289.18 561.64z" stroke="none" fill="#000000" fill-rule="evenodd" /><path transform="matrix(1 0 0 -1 0 792)" d="M468.28 535.96L469 535.96L469 535.96L469 561.64L469 561.64L468.28 561.64z" stroke="none" fill="#000000" fill-rule="evenodd" /><path transform="matrix(1 0 0 -1 0 792)" d="M554.28 535.96L555.0001 535.96L555.0001 535.96L555.0001 561.64L555.0001 561.64L554.28 561.64z" stroke="none" fill="#000000" fill-rule="evenodd" /><g clip-path="url(#69)"><g clip-path="url(#70)"></g><g clip-path="url(#71)"></g><g clip-path="url(#72)"></g><g clip-path="url(#73)"></g><g clip-path="url(#74)"></g></g><g clip-path="url(#75)"><g clip-path="url(#76)"></g><g clip-path="url(#77)"></g></g><g clip-path="url(#78)"><g clip-path="url(#79)"></g><g clip-path="url(#80)"></g><g clip-path="url(#81)"></g></g><path transform="matrix(1 0 0 -1 0 792)" d="M89.22 535.18L89.93999 535.18L89.93999 535.18L89.93999 535.96L89.93999 535.96L89.22 535.96z" stroke="none" fill="#000000" fill-rule="evenodd" /><path transform="matrix(1 0 0 -1 0 792)" d="M89.94 535.24L289.18 535.24L289.18 535.24L289.18 535.96L289.18 535.96L89.94 535.96z" stroke="none" fill="#000000" fill-rule="evenodd" /><path transform="matrix(1 0 0 -1 0 792)" d="M289.18 535.18L289.9 535.18L289.9 535.18L289.9 535.96L289.9 535.96L289.18 535.96z" stroke="none" fill="#000000" fill-rule="evenodd" /><path transform="matrix(1 0 0 -1 0 792)" d="M289.9 535.24L468.28 535.24L468.28 535.24L468.28 535.96L468.28 535.96L289.9 535.96z" stroke="none" fill="#000000" fill-rule="evenodd" /><path transform="matrix(1 0 0 -1 0 792)" d="M468.28 535.18L469 535.18L469 535.18L469 535.96L469 535.96L468.28 535.96z" stroke="none" fill="#000000" fill-rule="evenodd" /><path transform="matrix(1 0 0 -1 0 792)" d="M469 535.24L554.28 535.24L554.28 535.24L554.28 535.96L554.28 535.96L469 535.96z" stroke="none" fill="#000000" fill-rule="evenodd" /><path transform="matrix(1 0 0 -1 0 792)" d="M554.28 535.18L555.0001 535.18L555.0001 535.18L555.0001 535.96L555.0001 535.96L554.28 535.96z" stroke="none" fill="#000000" fill-rule="evenodd" /><path transform="matrix(1 0 0 -1 0 792)" d="M89.22 521.62L89.93999 521.62L89.93999 521.62L89.93999 535.18L89.93999 535.18L89.22 535.18z" stroke="none" fill="#000000" fill-rule="evenodd" /><path transform="matrix(1 0 0 -1 0 792)" d="M289.18 521.62L289.9 521.62L289.9 521.62L289.9 535.18L289.9 535.18L289.18 535.18z" stroke="none" fill="#000000" fill-rule="evenodd" /><path transform="matrix(1 0 0 -1 0 792)" d="M468.28 521.62L469 521.62L469 521.62L469 535.18L469 535.18L468.28 535.18z" stroke="none" fill="#000000" fill-rule="evenodd" /><path transform="matrix(1 0 0 -1 0 792)" d="M554.28 521.62L555.0001 521.62L555.0001 521.62L555.0001 535.18L555.0001 535.18L554.28 535.18z" stroke="none" fill="#000000" fill-rule="evenodd" /><g clip-path="url(#82)"><g clip-path="url(#83)"></g><g clip-path="url(#84)"></g><g clip-path="url(#85)"></g><g clip-path="url(#86)"></g></g><g clip-path="url(#87)"><g clip-path="url(#88)"></g><g clip-path="url(#89)"></g></g><g clip-path="url(#90)"><g clip-path="url(#91)"></g><g clip-path="url(#92)"></g><g clip-path="url(#93)"></g></g><path transform="matrix(1 0 0 -1 0 792)" d="M89.22 520.84L89.93999 520.84L89.93999 520.84L89.93999 521.6201L89.93999 521.6201L89.22 521.6201z" stroke="none" fill="#000000" fill-rule="evenodd" /><path transform="matrix(1 0 0 -1 0 792)" d="M89.94 520.9L289.18 520.9L289.18 520.9L289.18 521.62L289.18 521.62L89.94 521.62z" stroke="none" fill="#000000" fill-rule="evenodd" /><path transform="matrix(1 0 0 -1 0 792)" d="M289.18 520.84L289.9 520.84L289.9 520.84L289.9 521.6201L289.9 521.6201L289.18 521.6201z" stroke="none" fill="#000000" fill-rule="evenodd" /><path transform="matrix(1 0 0 -1 0 792)" d="M289.9 520.9L468.28 520.9L468.28 520.9L468.28 521.62L468.28 521.62L289.9 521.62z" stroke="none" fill="#000000" fill-rule="evenodd" /><path transform="matrix(1 0 0 -1 0 792)" d="M468.28 520.84L469 520.84L469 520.84L469 521.6201L469 521.6201L468.28 521.6201z" stroke="none" fill="#000000" fill-rule="evenodd" /><path transform="matrix(1 0 0 -1 0 792)" d="M469 520.9L554.28 520.9L554.28 520.9L554.28 521.62L554.28 521.62L469 521.62z" stroke="none" fill="#000000" fill-rule="evenodd" /><path transform="matrix(1 0 0 -1 0 792)" d="M554.28 520.84L555.0001 520.84L555.0001 520.84L555.0001 521.6201L555.0001 521.6201L554.28 521.6201z" stroke="none" fill="#000000" fill-rule="evenodd" /><path transform="matrix(1 0 0 -1 0 792)" d="M89.22 493.6L89.93999 493.6L89.93999 493.6L89.93999 520.84L89.93999 520.84L89.22 520.84z" stroke="none" fill="#000000" fill-rule="evenodd" /><path transform="matrix(1 0 0 -1 0 792)" d="M289.18 493.6L289.9 493.6L289.9 493.6L289.9 520.84L289.9 520.84L289.18 520.84z" stroke="none" fill="#000000" fill-rule="evenodd" /><path transform="matrix(1 0 0 -1 0 792)" d="M468.28 493.6L469 493.6L469 493.6L469 520.84L469 520.84L468.28 520.84z" stroke="none" fill="#000000" fill-rule="evenodd" /><path transform="matrix(1 0 0 -1 0 792)" d="M554.28 493.6L555.0001 493.6L555.0001 493.6L555.0001 520.84L555.0001 520.84L554.28 520.84z" stroke="none" fill="#000000" fill-rule="evenodd" /><g clip-path="url(#94)"><g clip-path="url(#95)"></g></g><g clip-path="url(#96)"><g clip-path="url(#97)"></g><g clip-path="url(#98)"></g></g><g clip-path="url(#99)"><g clip-path="url(#100)"></g><g clip-path="url(#101)"></g><g clip-path="url(#102)"></g><g clip-path="url(#103)"></g></g><g clip-path="url(#104)"><g clip-path="url(#105)"></g><g clip-path="url(#106)"></g><g clip-path="url(#107)"></g><g clip-path="url(#108)"></g></g><path transform="matrix(1 0 0 -1 0 792)" d="M89.22 492.82L89.93999 492.82L89.93999 492.82L89.93999 493.6L89.93999 493.6L89.22 493.6z" stroke="none" fill="#000000" fill-rule="evenodd" /><path transform="matrix(1 0 0 -1 0 792)" d="M89.94 492.88L289.18 492.88L289.18 492.88L289.18 493.6L289.18 493.6L89.94 493.6z" stroke="none" fill="#000000" fill-rule="evenodd" /><path transform="matrix(1 0 0 -1 0 792)" d="M289.18 492.82L289.9 492.82L289.9 492.82L289.9 493.6L289.9 493.6L289.18 493.6z" stroke="none" fill="#000000" fill-rule="evenodd" /><path transform="matrix(1 0 0 -1 0 792)" d="M289.9 492.88L378.76 492.88L378.76 492.88L378.76 493.6L378.76 493.6L289.9 493.6z" stroke="none" fill="#000000" fill-rule="evenodd" /><path transform="matrix(1 0 0 -1 0 792)" d="M378.76 492.82L379.48 492.82L379.48 492.82L379.48 492.88L379.48 492.88L378.76 492.88z" stroke="none" fill="#000000" fill-rule="evenodd" /><path transform="matrix(1 0 0 -1 0 792)" d="M378.76 492.88L379.48 492.88L379.48 492.88L379.48 493.6L379.48 493.6L378.76 493.6z" stroke="none" fill="#000000" fill-rule="evenodd" /><path transform="matrix(1 0 0 -1 0 792)" d="M379.48 492.88L468.28 492.88L468.28 492.88L468.28 493.6L468.28 493.6L379.48 493.6z" stroke="none" fill="#000000" fill-rule="evenodd" /><path transform="matrix(1 0 0 -1 0 792)" d="M468.28 492.82L469 492.82L469 492.82L469 493.6L469 493.6L468.28 493.6z" stroke="none" fill="#000000" fill-rule="evenodd" /><path transform="matrix(1 0 0 -1 0 792)" d="M469 492.88L554.28 492.88L554.28 492.88L554.28 493.6L554.28 493.6L469 493.6z" stroke="none" fill="#000000" fill-rule="evenodd" /><path transform="matrix(1 0 0 -1 0 792)" d="M554.28 492.82L555.0001 492.82L555.0001 492.82L555.0001 493.6L555.0001 493.6L554.28 493.6z" stroke="none" fill="#000000" fill-rule="evenodd" /><path transform="matrix(1 0 0 -1 0 792)" d="M89.22 465.64L89.93999 465.64L89.93999 465.64L89.93999 492.82L89.93999 492.82L89.22 492.82z" stroke="none" fill="#000000" fill-rule="evenodd" /><path transform="matrix(1 0 0 -1 0 792)" d="M289.18 465.64L289.9 465.64L289.9 465.64L289.9 492.82L289.9 492.82L289.18 492.82z" stroke="none" fill="#000000" fill-rule="evenodd" /><path transform="matrix(1 0 0 -1 0 792)" d="M378.76 465.64L379.48 465.64L379.48 465.64L379.48 492.82L379.48 492.82L378.76 492.82z" stroke="none" fill="#000000" fill-rule="evenodd" /><path transform="matrix(1 0 0 -1 0 792)" d="M468.28 465.64L469 465.64L469 465.64L469 492.82L469 492.82L468.28 492.82z" stroke="none" fill="#000000" fill-rule="evenodd" /><path transform="matrix(1 0 0 -1 0 792)" d="M554.28 465.64L555.0001 465.64L555.0001 465.64L555.0001 492.82L555.0001 492.82L554.28 492.82z" stroke="none" fill="#000000" fill-rule="evenodd" /><g clip-path="url(#109)"><g clip-path="url(#110)"></g><g clip-path="url(#111)"></g><g clip-path="url(#112)"></g><g clip-path="url(#113)"></g><g clip-path="url(#114)"></g></g><g clip-path="url(#115)"><g clip-path="url(#116)"></g><g clip-path="url(#117)"></g></g><g clip-path="url(#118)"><g clip-path="url(#119)"></g><g clip-path="url(#120)"></g></g><g clip-path="url(#121)"><g clip-path="url(#122)"></g><g clip-path="url(#123)"></g></g><path transform="matrix(1 0 0 -1 0 792)" d="M89.22 464.86L89.93999 464.86L89.93999 464.86L89.93999 465.64L89.93999 465.64L89.22 465.64z" stroke="none" fill="#000000" fill-rule="evenodd" /><path transform="matrix(1 0 0 -1 0 792)" d="M89.94 464.92L289.18 464.92L289.18 464.92L289.18 465.64L289.18 465.64L89.94 465.64z" stroke="none" fill="#000000" fill-rule="evenodd" /><path transform="matrix(1 0 0 -1 0 792)" d="M289.18 464.86L289.9 464.86L289.9 464.86L289.9 465.64L289.9 465.64L289.18 465.64z" stroke="none" fill="#000000" fill-rule="evenodd" /><path transform="matrix(1 0 0 -1 0 792)" d="M289.9 464.92L378.76 464.92L378.76 464.92L378.76 465.64L378.76 465.64L289.9 465.64z" stroke="none" fill="#000000" fill-rule="evenodd" /><path transform="matrix(1 0 0 -1 0 792)" d="M378.76 464.86L379.48 464.86L379.48 464.86L379.48 465.64L379.48 465.64L378.76 465.64z" stroke="none" fill="#000000" fill-rule="evenodd" /><path transform="matrix(1 0 0 -1 0 792)" d="M379.48 464.92L468.28 464.92L468.28 464.92L468.28 465.64L468.28 465.64L379.48 465.64z" stroke="none" fill="#000000" fill-rule="evenodd" /><path transform="matrix(1 0 0 -1 0 792)" d="M468.28 464.86L469 464.86L469 464.86L469 465.64L469 465.64L468.28 465.64z" stroke="none" fill="#000000" fill-rule="evenodd" /><path transform="matrix(1 0 0 -1 0 792)" d="M469 464.92L554.28 464.92L554.28 464.92L554.28 465.64L554.28 465.64L469 465.64z" stroke="none" fill="#000000" fill-rule="evenodd" /><path transform="matrix(1 0 0 -1 0 792)" d="M554.28 464.86L555.0001 464.86L555.0001 464.86L555.0001 465.64L555.0001 465.64L554.28 465.64z" stroke="none" fill="#000000" fill-rule="evenodd" /><path transform="matrix(1 0 0 -1 0 792)" d="M89.22 451.3L89.93999 451.3L89.93999 451.3L89.93999 464.86L89.93999 464.86L89.22 464.86z" stroke="none" fill="#000000" fill-rule="evenodd" /><path transform="matrix(1 0 0 -1 0 792)" d="M289.18 451.3L289.9 451.3L289.9 451.3L289.9 464.86L289.9 464.86L289.18 464.86z" stroke="none" fill="#000000" fill-rule="evenodd" /><path transform="matrix(1 0 0 -1 0 792)" d="M378.76 451.3L379.48 451.3L379.48 451.3L379.48 464.86L379.48 464.86L378.76 464.86z" stroke="none" fill="#000000" fill-rule="evenodd" /><path transform="matrix(1 0 0 -1 0 792)" d="M468.28 451.3L469 451.3L469 451.3L469 464.86L469 464.86L468.28 464.86z" stroke="none" fill="#000000" fill-rule="evenodd" /><path transform="matrix(1 0 0 -1 0 792)" d="M554.28 451.3L555.0001 451.3L555.0001 451.3L555.0001 464.86L555.0001 464.86L554.28 464.86z" stroke="none" fill="#000000" fill-rule="evenodd" /><g clip-path="url(#124)"><g clip-path="url(#125)"></g><g clip-path="url(#126)"></g><g clip-path="url(#127)"></g><g clip-path="url(#128)"></g></g><g clip-path="url(#129)"><g clip-path="url(#130)"></g><g clip-path="url(#131)"></g></g><g clip-path="url(#132)"><g clip-path="url(#133)"></g><g clip-path="url(#134)"></g></g><g clip-path="url(#135)"><g clip-path="url(#136)"></g><g clip-path="url(#137)"></g></g><path transform="matrix(1 0 0 -1 0 792)" d="M89.22 450.52L89.93999 450.52L89.93999 450.52L89.93999 451.3L89.93999 451.3L89.22 451.3z" stroke="none" fill="#000000" fill-rule="evenodd" /><path transform="matrix(1 0 0 -1 0 792)" d="M89.94 450.58L289.18 450.58L289.18 450.58L289.18 451.3L289.18 451.3L89.94 451.3z" stroke="none" fill="#000000" fill-rule="evenodd" /><path transform="matrix(1 0 0 -1 0 792)" d="M289.18 450.52L289.9 450.52L289.9 450.52L289.9 451.3L289.9 451.3L289.18 451.3z" stroke="none" fill="#000000" fill-rule="evenodd" /><path transform="matrix(1 0 0 -1 0 792)" d="M289.9 450.58L378.76 450.58L378.76 450.58L378.76 451.3L378.76 451.3L289.9 451.3z" stroke="none" fill="#000000" fill-rule="evenodd" /><path transform="matrix(1 0 0 -1 0 792)" d="M378.76 450.52L379.48 450.52L379.48 450.52L379.48 451.3L379.48 451.3L378.76 451.3z" stroke="none" fill="#000000" fill-rule="evenodd" /><path transform="matrix(1 0 0 -1 0 792)" d="M379.48 450.58L468.28 450.58L468.28 450.58L468.28 451.3L468.28 451.3L379.48 451.3z" stroke="none" fill="#000000" fill-rule="evenodd" /><path transform="matrix(1 0 0 -1 0 792)" d="M468.28 450.52L469 450.52L469 450.52L469 451.3L469 451.3L468.28 451.3z" stroke="none" fill="#000000" fill-rule="evenodd" /><path transform="matrix(1 0 0 -1 0 792)" d="M469 450.58L554.28 450.58L554.28 450.58L554.28 451.3L554.28 451.3L469 451.3z" stroke="none" fill="#000000" fill-rule="evenodd" /><path transform="matrix(1 0 0 -1 0 792)" d="M554.28 450.52L555.0001 450.52L555.0001 450.52L555.0001 451.3L555.0001 451.3L554.28 451.3z" stroke="none" fill="#000000" fill-rule="evenodd" /><path transform="matrix(1 0 0 -1 0 792)" d="M89.22 436.9L89.93999 436.9L89.93999 436.9L89.93999 450.52L89.93999 450.52L89.22 450.52z" stroke="none" fill="#000000" fill-rule="evenodd" /><path transform="matrix(1 0 0 -1 0 792)" d="M289.18 436.9L289.9 436.9L289.9 436.9L289.9 450.52L289.9 450.52L289.18 450.52z" stroke="none" fill="#000000" fill-rule="evenodd" /><path transform="matrix(1 0 0 -1 0 792)" d="M378.76 436.9L379.48 436.9L379.48 436.9L379.48 450.52L379.48 450.52L378.76 450.52z" stroke="none" fill="#000000" fill-rule="evenodd" /><path transform="matrix(1 0 0 -1 0 792)" d="M468.28 436.9L469 436.9L469 436.9L469 450.52L469 450.52L468.28 450.52z" stroke="none" fill="#000000" fill-rule="evenodd" /><path transform="matrix(1 0 0 -1 0 792)" d="M554.28 436.9L555.0001 436.9L555.0001 436.9L555.0001 450.52L555.0001 450.52L554.28 450.52z" stroke="none" fill="#000000" fill-rule="evenodd" /><g clip-path="url(#138)"><g clip-path="url(#139)"></g><g clip-path="url(#140)"></g><g clip-path="url(#141)"></g><g clip-path="url(#142)"></g><g clip-path="url(#143)"></g><g clip-path="url(#144)"></g><g clip-path="url(#145)"></g></g><g clip-path="url(#146)"><g clip-path="url(#147)"></g><g clip-path="url(#148)"></g></g><g clip-path="url(#149)"><g clip-path="url(#150)"></g><g clip-path="url(#151)"></g></g><g clip-path="url(#152)"><g clip-path="url(#153)"></g><g clip-path="url(#154)"></g></g><path transform="matrix(1 0 0 -1 0 792)" d="M89.22 436.12L89.93999 436.12L89.93999 436.12L89.93999 436.9L89.93999 436.9L89.22 436.9z" stroke="none" fill="#000000" fill-rule="evenodd" /><path transform="matrix(1 0 0 -1 0 792)" d="M89.94 436.18L289.18 436.18L289.18 436.18L289.18 436.9L289.18 436.9L89.94 436.9z" stroke="none" fill="#000000" fill-rule="evenodd" /><path transform="matrix(1 0 0 -1 0 792)" d="M289.18 436.12L289.9 436.12L289.9 436.12L289.9 436.9L289.9 436.9L289.18 436.9z" stroke="none" fill="#000000" fill-rule="evenodd" /><path transform="matrix(1 0 0 -1 0 792)" d="M289.9 436.18L378.76 436.18L378.76 436.18L378.76 436.9L378.76 436.9L289.9 436.9z" stroke="none" fill="#000000" fill-rule="evenodd" /><path transform="matrix(1 0 0 -1 0 792)" d="M378.76 436.12L379.48 436.12L379.48 436.12L379.48 436.9L379.48 436.9L378.76 436.9z" stroke="none" fill="#000000" fill-rule="evenodd" /><path transform="matrix(1 0 0 -1 0 792)" d="M379.48 436.18L468.28 436.18L468.28 436.18L468.28 436.9L468.28 436.9L379.48 436.9z" stroke="none" fill="#000000" fill-rule="evenodd" /><path transform="matrix(1 0 0 -1 0 792)" d="M468.28 436.12L469 436.12L469 436.12L469 436.9L469 436.9L468.28 436.9z" stroke="none" fill="#000000" fill-rule="evenodd" /><path transform="matrix(1 0 0 -1 0 792)" d="M469 436.18L554.28 436.18L554.28 436.18L554.28 436.9L554.28 436.9L469 436.9z" stroke="none" fill="#000000" fill-rule="evenodd" /><path transform="matrix(1 0 0 -1 0 792)" d="M554.28 436.12L555.0001 436.12L555.0001 436.12L555.0001 436.9L555.0001 436.9L554.28 436.9z" stroke="none" fill="#000000" fill-rule="evenodd" /><path transform="matrix(1 0 0 -1 0 792)" d="M89.22 408.94L89.93999 408.94L89.93999 408.94L89.93999 436.12L89.93999 436.12L89.22 436.12z" stroke="none" fill="#000000" fill-rule="evenodd" /><path transform="matrix(1 0 0 -1 0 792)" d="M289.18 408.94L289.9 408.94L289.9 408.94L289.9 436.12L289.9 436.12L289.18 436.12z" stroke="none" fill="#000000" fill-rule="evenodd" /><path transform="matrix(1 0 0 -1 0 792)" d="M378.76 408.94L379.48 408.94L379.48 408.94L379.48 436.12L379.48 436.12L378.76 436.12z" stroke="none" fill="#000000" fill-rule="evenodd" /><path transform="matrix(1 0 0 -1 0 792)" d="M468.28 408.94L469 408.94L469 408.94L469 436.12L469 436.12L468.28 436.12z" stroke="none" fill="#000000" fill-rule="evenodd" /><path transform="matrix(1 0 0 -1 0 792)" d="M554.28 408.94L555.0001 408.94L555.0001 408.94L555.0001 436.12L555.0001 436.12L554.28 436.12z" stroke="none" fill="#000000" fill-rule="evenodd" /><g clip-path="url(#155)"><g clip-path="url(#156)"></g><g clip-path="url(#157)"></g><g clip-path="url(#158)"></g><g clip-path="url(#159)"></g></g><g clip-path="url(#160)"><g clip-path="url(#161)"></g><g clip-path="url(#162)"></g></g><g clip-path="url(#163)"><g clip-path="url(#164)"></g><g clip-path="url(#165)"></g></g><g clip-path="url(#166)"><g clip-path="url(#167)"></g><g clip-path="url(#168)"></g></g><path transform="matrix(1 0 0 -1 0 792)" d="M89.22 408.16L89.93999 408.16L89.93999 408.16L89.93999 408.94L89.93999 408.94L89.22 408.94z" stroke="none" fill="#000000" fill-rule="evenodd" /><path transform="matrix(1 0 0 -1 0 792)" d="M89.94 408.22L289.18 408.22L289.18 408.22L289.18 408.94L289.18 408.94L89.94 408.94z" stroke="none" fill="#000000" fill-rule="evenodd" /><path transform="matrix(1 0 0 -1 0 792)" d="M289.18 408.16L289.9 408.16L289.9 408.16L289.9 408.94L289.9 408.94L289.18 408.94z" stroke="none" fill="#000000" fill-rule="evenodd" /><path transform="matrix(1 0 0 -1 0 792)" d="M289.9 408.22L378.76 408.22L378.76 408.22L378.76 408.94L378.76 408.94L289.9 408.94z" stroke="none" fill="#000000" fill-rule="evenodd" /><path transform="matrix(1 0 0 -1 0 792)" d="M378.76 408.16L379.48 408.16L379.48 408.16L379.48 408.94L379.48 408.94L378.76 408.94z" stroke="none" fill="#000000" fill-rule="evenodd" /><path transform="matrix(1 0 0 -1 0 792)" d="M379.48 408.22L468.28 408.22L468.28 408.22L468.28 408.94L468.28 408.94L379.48 408.94z" stroke="none" fill="#000000" fill-rule="evenodd" /><path transform="matrix(1 0 0 -1 0 792)" d="M468.28 408.16L469 408.16L469 408.16L469 408.94L469 408.94L468.28 408.94z" stroke="none" fill="#000000" fill-rule="evenodd" /><path transform="matrix(1 0 0 -1 0 792)" d="M469 408.22L554.28 408.22L554.28 408.22L554.28 408.94L554.28 408.94L469 408.94z" stroke="none" fill="#000000" fill-rule="evenodd" /><path transform="matrix(1 0 0 -1 0 792)" d="M554.28 408.16L555.0001 408.16L555.0001 408.16L555.0001 408.94L555.0001 408.94L554.28 408.94z" stroke="none" fill="#000000" fill-rule="evenodd" /><path transform="matrix(1 0 0 -1 0 792)" d="M89.22 394.54L89.93999 394.54L89.93999 394.54L89.93999 408.16L89.93999 408.16L89.22 408.16z" stroke="none" fill="#000000" fill-rule="evenodd" /><path transform="matrix(1 0 0 -1 0 792)" d="M289.18 394.54L289.9 394.54L289.9 394.54L289.9 408.16L289.9 408.16L289.18 408.16z" stroke="none" fill="#000000" fill-rule="evenodd" /><path transform="matrix(1 0 0 -1 0 792)" d="M378.76 394.54L379.48 394.54L379.48 394.54L379.48 408.16L379.48 408.16L378.76 408.16z" stroke="none" fill="#000000" fill-rule="evenodd" /><path transform="matrix(1 0 0 -1 0 792)" d="M468.28 394.54L469 394.54L469 394.54L469 408.16L469 408.16L468.28 408.16z" stroke="none" fill="#000000" fill-rule="evenodd" /><path transform="matrix(1 0 0 -1 0 792)" d="M554.28 394.54L555.0001 394.54L555.0001 394.54L555.0001 408.16L555.0001 408.16L554.28 408.16z" stroke="none" fill="#000000" fill-rule="evenodd" /><g clip-path="url(#169)"><g clip-path="url(#170)"></g><g clip-path="url(#171)"></g><g clip-path="url(#172)"></g><g clip-path="url(#173)"></g></g><g clip-path="url(#174)"><g clip-path="url(#175)"></g><g clip-path="url(#176)"></g></g><g clip-path="url(#177)"><g clip-path="url(#178)"></g><g clip-path="url(#179)"></g></g><g clip-path="url(#180)"><g clip-path="url(#181)"></g><g clip-path="url(#182)"></g><g clip-path="url(#183)"></g><g clip-path="url(#184)"></g><g clip-path="url(#185)"></g></g><path transform="matrix(1 0 0 -1 0 792)" d="M89.22 393.76L89.93999 393.76L89.93999 393.76L89.93999 394.54L89.93999 394.54L89.22 394.54z" stroke="none" fill="#000000" fill-rule="evenodd" /><path transform="matrix(1 0 0 -1 0 792)" d="M89.94 393.82L289.18 393.82L289.18 393.82L289.18 394.54L289.18 394.54L89.94 394.54z" stroke="none" fill="#000000" fill-rule="evenodd" /><path transform="matrix(1 0 0 -1 0 792)" d="M289.18 393.76L289.9 393.76L289.9 393.76L289.9 394.54L289.9 394.54L289.18 394.54z" stroke="none" fill="#000000" fill-rule="evenodd" /><path transform="matrix(1 0 0 -1 0 792)" d="M289.9 393.82L378.76 393.82L378.76 393.82L378.76 394.54L378.76 394.54L289.9 394.54z" stroke="none" fill="#000000" fill-rule="evenodd" /><path transform="matrix(1 0 0 -1 0 792)" d="M378.76 393.76L379.48 393.76L379.48 393.76L379.48 394.54L379.48 394.54L378.76 394.54z" stroke="none" fill="#000000" fill-rule="evenodd" /><path transform="matrix(1 0 0 -1 0 792)" d="M379.48 393.82L468.28 393.82L468.28 393.82L468.28 394.54L468.28 394.54L379.48 394.54z" stroke="none" fill="#000000" fill-rule="evenodd" /><path transform="matrix(1 0 0 -1 0 792)" d="M468.28 393.76L469 393.76L469 393.76L469 394.54L469 394.54L468.28 394.54z" stroke="none" fill="#000000" fill-rule="evenodd" /><path transform="matrix(1 0 0 -1 0 792)" d="M469 393.82L554.28 393.82L554.28 393.82L554.28 394.54L554.28 394.54L469 394.54z" stroke="none" fill="#000000" fill-rule="evenodd" /><path transform="matrix(1 0 0 -1 0 792)" d="M554.28 393.76L555.0001 393.76L555.0001 393.76L555.0001 394.54L555.0001 394.54L554.28 394.54z" stroke="none" fill="#000000" fill-rule="evenodd" /><path transform="matrix(1 0 0 -1 0 792)" d="M89.22 366.56L89.93999 366.56L89.93999 366.56L89.93999 393.76L89.93999 393.76L89.22 393.76z" stroke="none" fill="#000000" fill-rule="evenodd" /><path transform="matrix(1 0 0 -1 0 792)" d="M289.18 366.56L289.9 366.56L289.9 366.56L289.9 393.76L289.9 393.76L289.18 393.76z" stroke="none" fill="#000000" fill-rule="evenodd" /><path transform="matrix(1 0 0 -1 0 792)" d="M378.76 366.56L379.48 366.56L379.48 366.56L379.48 393.76L379.48 393.76L378.76 393.76z" stroke="none" fill="#000000" fill-rule="evenodd" /><path transform="matrix(1 0 0 -1 0 792)" d="M468.28 366.56L469 366.56L469 366.56L469 393.76L469 393.76L468.28 393.76z" stroke="none" fill="#000000" fill-rule="evenodd" /><path transform="matrix(1 0 0 -1 0 792)" d="M554.28 366.56L555.0001 366.56L555.0001 366.56L555.0001 393.76L555.0001 393.76L554.28 393.76z" stroke="none" fill="#000000" fill-rule="evenodd" /><g clip-path="url(#186)"><g clip-path="url(#187)"></g><g clip-path="url(#188)"></g><g clip-path="url(#189)"></g><g clip-path="url(#190)"></g><g clip-path="url(#191)"></g></g><g clip-path="url(#192)"><g clip-path="url(#193)"></g><g clip-path="url(#194)"></g></g><g clip-path="url(#195)"><g clip-path="url(#196)"></g><g clip-path="url(#197)"></g></g><g clip-path="url(#198)"><g clip-path="url(#199)"></g><g clip-path="url(#200)"></g><g clip-path="url(#201)"></g><g clip-path="url(#202)"></g><g clip-path="url(#203)"></g></g><path transform="matrix(1 0 0 -1 0 792)" d="M89.22 365.78L89.93999 365.78L89.93999 365.78L89.93999 366.56L89.93999 366.56L89.22 366.56z" stroke="none" fill="#000000" fill-rule="evenodd" /><path transform="matrix(1 0 0 -1 0 792)" d="M89.94 365.84L289.18 365.84L289.18 365.84L289.18 366.56L289.18 366.56L89.94 366.56z" stroke="none" fill="#000000" fill-rule="evenodd" /><path transform="matrix(1 0 0 -1 0 792)" d="M289.18 365.78L289.9 365.78L289.9 365.78L289.9 366.56L289.9 366.56L289.18 366.56z" stroke="none" fill="#000000" fill-rule="evenodd" /><path transform="matrix(1 0 0 -1 0 792)" d="M289.9 365.84L378.76 365.84L378.76 365.84L378.76 366.56L378.76 366.56L289.9 366.56z" stroke="none" fill="#000000" fill-rule="evenodd" /><path transform="matrix(1 0 0 -1 0 792)" d="M378.76 365.78L379.48 365.78L379.48 365.78L379.48 366.56L379.48 366.56L378.76 366.56z" stroke="none" fill="#000000" fill-rule="evenodd" /><path transform="matrix(1 0 0 -1 0 792)" d="M379.48 365.84L468.28 365.84L468.28 365.84L468.28 366.56L468.28 366.56L379.48 366.56z" stroke="none" fill="#000000" fill-rule="evenodd" /><path transform="matrix(1 0 0 -1 0 792)" d="M468.28 365.78L469 365.78L469 365.78L469 366.56L469 366.56L468.28 366.56z" stroke="none" fill="#000000" fill-rule="evenodd" /><path transform="matrix(1 0 0 -1 0 792)" d="M469 365.84L554.28 365.84L554.28 365.84L554.28 366.56L554.28 366.56L469 366.56z" stroke="none" fill="#000000" fill-rule="evenodd" /><path transform="matrix(1 0 0 -1 0 792)" d="M554.28 365.78L555.0001 365.78L555.0001 365.78L555.0001 366.56L555.0001 366.56L554.28 366.56z" stroke="none" fill="#000000" fill-rule="evenodd" /><path transform="matrix(1 0 0 -1 0 792)" d="M89.22 338.54L89.93999 338.54L89.93999 338.54L89.93999 365.78L89.93999 365.78L89.22 365.78z" stroke="none" fill="#000000" fill-rule="evenodd" /><path transform="matrix(1 0 0 -1 0 792)" d="M89.22 337.82L89.93999 337.82L89.93999 337.82L89.93999 338.54L89.93999 338.54L89.22 338.54z" stroke="none" fill="#000000" fill-rule="evenodd" /><path transform="matrix(1 0 0 -1 0 792)" d="M89.22 337.82L89.93999 337.82L89.93999 337.82L89.93999 338.54L89.93999 338.54L89.22 338.54z" stroke="none" fill="#000000" fill-rule="evenodd" /><path transform="matrix(1 0 0 -1 0 792)" d="M89.94 337.82L289.18 337.82L289.18 337.82L289.18 338.54L289.18 338.54L89.94 338.54z" stroke="none" fill="#000000" fill-rule="evenodd" /><path transform="matrix(1 0 0 -1 0 792)" d="M289.18 338.54L289.9 338.54L289.9 338.54L289.9 365.78L289.9 365.78L289.18 365.78z" stroke="none" fill="#000000" fill-rule="evenodd" /><path transform="matrix(1 0 0 -1 0 792)" d="M289.18 337.82L289.9 337.82L289.9 337.82L289.9 338.54L289.9 338.54L289.18 338.54z" stroke="none" fill="#000000" fill-rule="evenodd" /><path transform="matrix(1 0 0 -1 0 792)" d="M289.9 337.82L378.76 337.82L378.76 337.82L378.76 338.54L378.76 338.54L289.9 338.54z" stroke="none" fill="#000000" fill-rule="evenodd" /><path transform="matrix(1 0 0 -1 0 792)" d="M378.76 338.54L379.48 338.54L379.48 338.54L379.48 365.78L379.48 365.78L378.76 365.78z" stroke="none" fill="#000000" fill-rule="evenodd" /><path transform="matrix(1 0 0 -1 0 792)" d="M378.76 337.82L379.48 337.82L379.48 337.82L379.48 338.54L379.48 338.54L378.76 338.54z" stroke="none" fill="#000000" fill-rule="evenodd" /><path transform="matrix(1 0 0 -1 0 792)" d="M379.48 337.82L468.28 337.82L468.28 337.82L468.28 338.54L468.28 338.54L379.48 338.54z" stroke="none" fill="#000000" fill-rule="evenodd" /><path transform="matrix(1 0 0 -1 0 792)" d="M468.28 338.54L469 338.54L469 338.54L469 365.78L469 365.78L468.28 365.78z" stroke="none" fill="#000000" fill-rule="evenodd" /><path transform="matrix(1 0 0 -1 0 792)" d="M468.28 337.82L469 337.82L469 337.82L469 338.54L469 338.54L468.28 338.54z" stroke="none" fill="#000000" fill-rule="evenodd" /><path transform="matrix(1 0 0 -1 0 792)" d="M469 337.82L554.28 337.82L554.28 337.82L554.28 338.54L554.28 338.54L469 338.54z" stroke="none" fill="#000000" fill-rule="evenodd" /><path transform="matrix(1 0 0 -1 0 792)" d="M554.28 338.54L555.0001 338.54L555.0001 338.54L555.0001 365.78L555.0001 365.78L554.28 365.78z" stroke="none" fill="#000000" fill-rule="evenodd" /><path transform="matrix(1 0 0 -1 0 792)" d="M554.28 337.82L555.0001 337.82L555.0001 337.82L555.0001 338.54L555.0001 338.54L554.28 338.54z" stroke="none" fill="#000000" fill-rule="evenodd" /><path transform="matrix(1 0 0 -1 0 792)" d="M554.28 337.82L555.0001 337.82L555.0001 337.82L555.0001 338.54L555.0001 338.54L554.28 338.54z" stroke="none" fill="#000000" fill-rule="evenodd" /><g clip-path="url(#204)"><g clip-path="url(#205)"></g><g clip-path="url(#206)"></g></g><g clip-path="url(#207)"><g clip-path="url(#208)"></g><g clip-path="url(#209)"></g></g><path transform="matrix(1 0 0 -1 0 792)" d="M89.22 273.56L89.93999 273.56L89.93999 273.56L89.93999 274.34L89.93999 274.34L89.22 274.34z" stroke="none" fill="#000000" fill-rule="evenodd" /><path transform="matrix(1 0 0 -1 0 792)" d="M89.22 273.62L89.93999 273.62L89.93999 273.62L89.93999 274.34L89.93999 274.34L89.22 274.34z" stroke="none" fill="#000000" fill-rule="evenodd" /><path transform="matrix(1 0 0 -1 0 792)" d="M89.94 273.62L388.18 273.62L388.18 273.62L388.18 274.34L388.18 274.34L89.94 274.34z" stroke="none" fill="#000000" fill-rule="evenodd" /><path transform="matrix(1 0 0 -1 0 792)" d="M388.18 273.56L388.9 273.56L388.9 273.56L388.9 273.62L388.9 273.62L388.18 273.62z" stroke="none" fill="#000000" fill-rule="evenodd" /><path transform="matrix(1 0 0 -1 0 792)" d="M388.18 273.62L388.9 273.62L388.9 273.62L388.9 274.34L388.9 274.34L388.18 274.34z" stroke="none" fill="#000000" fill-rule="evenodd" /><path transform="matrix(1 0 0 -1 0 792)" d="M388.9 273.62L554.28 273.62L554.28 273.62L554.28 274.34L554.28 274.34L388.9 274.34z" stroke="none" fill="#000000" fill-rule="evenodd" /><path transform="matrix(1 0 0 -1 0 792)" d="M554.28 273.56L555.0001 273.56L555.0001 273.56L555.0001 274.34L555.0001 274.34L554.28 274.34z" stroke="none" fill="#000000" fill-rule="evenodd" /><path transform="matrix(1 0 0 -1 0 792)" d="M554.28 273.62L555.0001 273.62L555.0001 273.62L555.0001 274.34L555.0001 274.34L554.28 274.34z" stroke="none" fill="#000000" fill-rule="evenodd" /><path transform="matrix(1 0 0 -1 0 792)" d="M89.22 260L89.93999 260L89.93999 260L89.93999 273.56L89.93999 273.56L89.22 273.56z" stroke="none" fill="#000000" fill-rule="evenodd" /><path transform="matrix(1 0 0 -1 0 792)" d="M388.18 260L388.9 260L388.9 260L388.9 273.56L388.9 273.56L388.18 273.56z" stroke="none" fill="#000000" fill-rule="evenodd" /><path transform="matrix(1 0 0 -1 0 792)" d="M554.28 260L555.0001 260L555.0001 260L555.0001 273.56L555.0001 273.56L554.28 273.56z" stroke="none" fill="#000000" fill-rule="evenodd" /><g clip-path="url(#210)"><g clip-path="url(#211)"></g><g clip-path="url(#212)"></g><g clip-path="url(#213)"></g><g clip-path="url(#214)"></g></g><g clip-path="url(#215)"><g clip-path="url(#216)"></g><g clip-path="url(#217)"></g><g clip-path="url(#218)"></g></g><path transform="matrix(1 0 0 -1 0 792)" d="M89.22 259.22L89.93999 259.22L89.93999 259.22L89.93999 260L89.93999 260L89.22 260z" stroke="none" fill="#000000" fill-rule="evenodd" /><path transform="matrix(1 0 0 -1 0 792)" d="M89.94 259.28L388.18 259.28L388.18 259.28L388.18 260L388.18 260L89.94 260z" stroke="none" fill="#000000" fill-rule="evenodd" /><path transform="matrix(1 0 0 -1 0 792)" d="M388.18 259.22L388.9 259.22L388.9 259.22L388.9 260L388.9 260L388.18 260z" stroke="none" fill="#000000" fill-rule="evenodd" /><path transform="matrix(1 0 0 -1 0 792)" d="M388.9 259.28L554.28 259.28L554.28 259.28L554.28 260L554.28 260L388.9 260z" stroke="none" fill="#000000" fill-rule="evenodd" /><path transform="matrix(1 0 0 -1 0 792)" d="M554.28 259.22L555.0001 259.22L555.0001 259.22L555.0001 260L555.0001 260L554.28 260z" stroke="none" fill="#000000" fill-rule="evenodd" /><path transform="matrix(1 0 0 -1 0 792)" d="M89.22 245.6L89.93999 245.6L89.93999 245.6L89.93999 259.22L89.93999 259.22L89.22 259.22z" stroke="none" fill="#000000" fill-rule="evenodd" /><path transform="matrix(1 0 0 -1 0 792)" d="M388.18 245.6L388.9 245.6L388.9 245.6L388.9 259.22L388.9 259.22L388.18 259.22z" stroke="none" fill="#000000" fill-rule="evenodd" /><path transform="matrix(1 0 0 -1 0 792)" d="M554.28 245.6L555.0001 245.6L555.0001 245.6L555.0001 259.22L555.0001 259.22L554.28 259.22z" stroke="none" fill="#000000" fill-rule="evenodd" /><g clip-path="url(#219)"><g clip-path="url(#220)"></g><g clip-path="url(#221)"></g></g><g clip-path="url(#222)"><g clip-path="url(#223)"></g><g clip-path="url(#224)"></g></g><path transform="matrix(1 0 0 -1 0 792)" d="M89.22 244.82L89.93999 244.82L89.93999 244.82L89.93999 245.6L89.93999 245.6L89.22 245.6z" stroke="none" fill="#000000" fill-rule="evenodd" /><path transform="matrix(1 0 0 -1 0 792)" d="M89.94 244.88L388.18 244.88L388.18 244.88L388.18 245.6L388.18 245.6L89.94 245.6z" stroke="none" fill="#000000" fill-rule="evenodd" /><path transform="matrix(1 0 0 -1 0 792)" d="M388.18 244.82L388.9 244.82L388.9 244.82L388.9 245.6L388.9 245.6L388.18 245.6z" stroke="none" fill="#000000" fill-rule="evenodd" /><path transform="matrix(1 0 0 -1 0 792)" d="M388.9 244.88L554.28 244.88L554.28 244.88L554.28 245.6L554.28 245.6L388.9 245.6z" stroke="none" fill="#000000" fill-rule="evenodd" /><path transform="matrix(1 0 0 -1 0 792)" d="M554.28 244.82L555.0001 244.82L555.0001 244.82L555.0001 245.6L555.0001 245.6L554.28 245.6z" stroke="none" fill="#000000" fill-rule="evenodd" /><path transform="matrix(1 0 0 -1 0 792)" d="M89.22 231.26L89.93999 231.26L89.93999 231.26L89.93999 244.82L89.93999 244.82L89.22 244.82z" stroke="none" fill="#000000" fill-rule="evenodd" /><path transform="matrix(1 0 0 -1 0 792)" d="M388.18 231.26L388.9 231.26L388.9 231.26L388.9 244.82L388.9 244.82L388.18 244.82z" stroke="none" fill="#000000" fill-rule="evenodd" /><path transform="matrix(1 0 0 -1 0 792)" d="M554.28 231.26L555.0001 231.26L555.0001 231.26L555.0001 244.82L555.0001 244.82L554.28 244.82z" stroke="none" fill="#000000" fill-rule="evenodd" /><g clip-path="url(#225)"><g clip-path="url(#226)"></g><g clip-path="url(#227)"></g></g><g clip-path="url(#228)"><g clip-path="url(#229)"></g><g clip-path="url(#230)"></g></g><path transform="matrix(1 0 0 -1 0 792)" d="M89.22 230.48L89.93999 230.48L89.93999 230.48L89.93999 231.26L89.93999 231.26L89.22 231.26z" stroke="none" fill="#000000" fill-rule="evenodd" /><path transform="matrix(1 0 0 -1 0 792)" d="M89.94 230.54L388.18 230.54L388.18 230.54L388.18 231.26L388.18 231.26L89.94 231.26z" stroke="none" fill="#000000" fill-rule="evenodd" /><path transform="matrix(1 0 0 -1 0 792)" d="M388.18 230.48L388.9 230.48L388.9 230.48L388.9 231.26L388.9 231.26L388.18 231.26z" stroke="none" fill="#000000" fill-rule="evenodd" /><path transform="matrix(1 0 0 -1 0 792)" d="M388.9 230.54L554.28 230.54L554.28 230.54L554.28 231.26L554.28 231.26L388.9 231.26z" stroke="none" fill="#000000" fill-rule="evenodd" /><path transform="matrix(1 0 0 -1 0 792)" d="M554.28 230.48L555.0001 230.48L555.0001 230.48L555.0001 231.26L555.0001 231.26L554.28 231.26z" stroke="none" fill="#000000" fill-rule="evenodd" /><path transform="matrix(1 0 0 -1 0 792)" d="M89.22 216.86L89.93999 216.86L89.93999 216.86L89.93999 230.48L89.93999 230.48L89.22 230.48z" stroke="none" fill="#000000" fill-rule="evenodd" /><path transform="matrix(1 0 0 -1 0 792)" d="M388.18 216.86L388.9 216.86L388.9 216.86L388.9 230.48L388.9 230.48L388.18 230.48z" stroke="none" fill="#000000" fill-rule="evenodd" /><path transform="matrix(1 0 0 -1 0 792)" d="M554.28 216.86L555.0001 216.86L555.0001 216.86L555.0001 230.48L555.0001 230.48L554.28 230.48z" stroke="none" fill="#000000" fill-rule="evenodd" /><g clip-path="url(#231)"><g clip-path="url(#232)"></g><g clip-path="url(#233)"></g></g><g clip-path="url(#234)"><g clip-path="url(#235)"></g><g clip-path="url(#236)"></g><g clip-path="url(#237)"></g></g><path transform="matrix(1 0 0 -1 0 792)" d="M89.22 216.08L89.93999 216.08L89.93999 216.08L89.93999 216.86L89.93999 216.86L89.22 216.86z" stroke="none" fill="#000000" fill-rule="evenodd" /><path transform="matrix(1 0 0 -1 0 792)" d="M89.94 216.14L388.18 216.14L388.18 216.14L388.18 216.86L388.18 216.86L89.94 216.86z" stroke="none" fill="#000000" fill-rule="evenodd" /><path transform="matrix(1 0 0 -1 0 792)" d="M388.18 216.08L388.9 216.08L388.9 216.08L388.9 216.86L388.9 216.86L388.18 216.86z" stroke="none" fill="#000000" fill-rule="evenodd" /><path transform="matrix(1 0 0 -1 0 792)" d="M388.9 216.14L554.28 216.14L554.28 216.14L554.28 216.86L554.28 216.86L388.9 216.86z" stroke="none" fill="#000000" fill-rule="evenodd" /><path transform="matrix(1 0 0 -1 0 792)" d="M554.28 216.08L555.0001 216.08L555.0001 216.08L555.0001 216.86L555.0001 216.86L554.28 216.86z" stroke="none" fill="#000000" fill-rule="evenodd" /><path transform="matrix(1 0 0 -1 0 792)" d="M89.22 202.52L89.93999 202.52L89.93999 202.52L89.93999 216.08L89.93999 216.08L89.22 216.08z" stroke="none" fill="#000000" fill-rule="evenodd" /><path transform="matrix(1 0 0 -1 0 792)" d="M89.22 201.8L89.93999 201.8L89.93999 201.8L89.93999 202.52L89.93999 202.52L89.22 202.52z" stroke="none" fill="#000000" fill-rule="evenodd" /><path transform="matrix(1 0 0 -1 0 792)" d="M89.22 201.8L89.93999 201.8L89.93999 201.8L89.93999 202.52L89.93999 202.52L89.22 202.52z" stroke="none" fill="#000000" fill-rule="evenodd" /><path transform="matrix(1 0 0 -1 0 792)" d="M89.94 201.8L388.18 201.8L388.18 201.8L388.18 202.52L388.18 202.52L89.94 202.52z" stroke="none" fill="#000000" fill-rule="evenodd" /><path transform="matrix(1 0 0 -1 0 792)" d="M388.18 202.52L388.9 202.52L388.9 202.52L388.9 216.08L388.9 216.08L388.18 216.08z" stroke="none" fill="#000000" fill-rule="evenodd" /><path transform="matrix(1 0 0 -1 0 792)" d="M388.18 201.8L388.9 201.8L388.9 201.8L388.9 202.52L388.9 202.52L388.18 202.52z" stroke="none" fill="#000000" fill-rule="evenodd" /><path transform="matrix(1 0 0 -1 0 792)" d="M388.9 201.8L554.28 201.8L554.28 201.8L554.28 202.52L554.28 202.52L388.9 202.52z" stroke="none" fill="#000000" fill-rule="evenodd" /><path transform="matrix(1 0 0 -1 0 792)" d="M554.28 202.52L555.0001 202.52L555.0001 202.52L555.0001 216.08L555.0001 216.08L554.28 216.08z" stroke="none" fill="#000000" fill-rule="evenodd" /><path transform="matrix(1 0 0 -1 0 792)" d="M554.28 201.8L555.0001 201.8L555.0001 201.8L555.0001 202.52L555.0001 202.52L554.28 202.52z" stroke="none" fill="#000000" fill-rule="evenodd" /><path transform="matrix(1 0 0 -1 0 792)" d="M554.28 201.8L555.0001 201.8L555.0001 201.8L555.0001 202.52L555.0001 202.52L554.28 202.52z" stroke="none" fill="#000000" fill-rule="evenodd" /></g></g></svg>