<svg xmlns="http://www.w3.org/2000/svg" xmlns:xlink="http://www.w3.org/1999/xlink" id="body_7" preserveAspectRatio="xMinYMin meet" viewBox="0 0 816 1056"><defs><clipPath id="1"><path clip-rule="evenodd" d="M0 792L0 0L0 0L612 0L612 0L612 792L612 792L0 792z" /></clipPath><clipPath id="2"><path clip-rule="evenodd" d="M0 792.06L612.06 792.06L612.06 792.06L612.06 0L612.06 0L0 0z" /></clipPath><clipPath id="3"><path clip-rule="evenodd" d="M88.02 171.74L188.72 171.74L188.72 171.74L188.72 158.12L188.72 158.12L88.02 158.12z" /></clipPath><clipPath id="4"><path clip-rule="evenodd" d="M88.02 171.74L188.72 171.74L188.72 171.74L188.72 158.12L188.72 158.12L88.02 158.12z" /></clipPath><clipPath id="5"><path clip-rule="evenodd" d="M88.02 171.74L188.72 171.74L188.72 171.74L188.72 158.12L188.72 158.12L88.02 158.12z" /></clipPath><clipPath id="6"><path clip-rule="evenodd" d="M189.2 171.74L430.96 171.74L430.96 171.74L430.96 158.12L430.96 158.12L189.2 158.12z" /></clipPath><clipPath id="7"><path clip-rule="evenodd" d="M189.2 171.74L430.96 171.74L430.96 171.74L430.96 158.12L430.96 158.12L189.2 158.12z" /></clipPath><clipPath id="8"><path clip-rule="evenodd" d="M189.2 171.74L430.96 171.74L430.96 171.74L430.96 158.12L430.96 158.12L189.2 158.12z" /></clipPath><clipPath id="9"><path clip-rule="evenodd" d="M431.5 171.74L524.04 171.74L524.04 171.74L524.04 158.12L524.04 158.12L431.5 158.12z" /></clipPath><clipPath id="10"><path clip-rule="evenodd" d="M431.5 171.74L524.04 171.74L524.04 171.74L524.04 158.12L524.04 158.12L431.5 158.12z" /></clipPath><clipPath id="11"><path clip-rule="evenodd" d="M431.5 171.74L524.04 171.74L524.04 171.74L524.04 158.12L524.04 158.12L431.5 158.12z" /></clipPath><clipPath id="12"><path clip-rule="evenodd" d="M88.02 213.08L188.72 213.08L188.72 213.08L188.72 172.22L188.72 172.22L88.02 172.22z" /></clipPath><clipPath id="13"><path clip-rule="evenodd" d="M88.02 213.08L188.72 213.08L188.72 213.08L188.72 172.22L188.72 172.22L88.02 172.22z" /></clipPath><clipPath id="14"><path clip-rule="evenodd" d="M88.02 213.08L188.72 213.08L188.72 213.08L188.72 172.22L188.72 172.22L88.02 172.22z" /></clipPath><clipPath id="15"><path clip-rule="evenodd" d="M88.02 213.08L188.72 213.08L188.72 213.08L188.72 172.22L188.72 172.22L88.02 172.22z" /></clipPath><clipPath id="16"><path clip-rule="evenodd" d="M189.2 213.08L430.96 213.08L430.96 213.08L430.96 172.22L430.96 172.22L189.2 172.22z" /></clipPath><clipPath id="17"><path clip-rule="evenodd" d="M189.2 213.08L430.96 213.08L430.96 213.08L430.96 172.22L430.96 172.22L189.2 172.22z" /></clipPath><clipPath id="18"><path clip-rule="evenodd" d="M189.2 213.08L430.96 213.08L430.96 213.08L430.96 172.22L430.96 172.22L189.2 172.22z" /></clipPath><clipPath id="19"><path clip-rule="evenodd" d="M189.2 213.08L430.96 213.08L430.96 213.08L430.96 172.22L430.96 172.22L189.2 172.22z" /></clipPath><clipPath id="20"><path clip-rule="evenodd" d="M189.2 213.08L430.96 213.08L430.96 213.08L430.96 172.22L430.96 172.22L189.2 172.22z" /></clipPath><clipPath id="21"><path clip-rule="evenodd" d="M431.5 213.08L524.04 213.08L524.04 213.08L524.04 172.22L524.04 172.22L431.5 172.22z" /></clipPath><clipPath id="22"><path clip-rule="evenodd" d="M431.5 213.08L524.04 213.08L524.04 213.08L524.04 172.22L524.04 172.22L431.5 172.22z" /></clipPath><clipPath id="23"><path clip-rule="evenodd" d="M431.5 213.08L524.04 213.08L524.04 213.08L524.04 172.22L524.04 172.22L431.5 172.22z" /></clipPath><clipPath id="24"><path clip-rule="evenodd" d="M431.5 213.08L524.04 213.08L524.04 213.08L524.04 172.22L524.04 172.22L431.5 172.22z" /></clipPath></defs><g transform="matrix(1.333333 0 0 1.333333 0 0)"><g clip-path="url(#1)"><g clip-path="url(#2)"><path transform="matrix(1 0 0 -1 0 792)" d="M88.5 742.56L523.56 742.56L523.56 742.56L523.56 743.28L523.56 743.28L88.5 743.28z" stroke="none" fill="#000000" fill-rule="evenodd" /></g><g clip-path="url(#3)"><g clip-path="url(#4)"></g><g clip-path="url(#5)"></g></g><g clip-path="url(#6)"><g clip-path="url(#7)"></g><g clip-path="url(#8)"></g></g><g clip-path="url(#9)"><g clip-path="url(#10)"></g><g clip-path="url(#11)"></g></g><path transform="matrix(1 0 0 -1 0 792)" d="M87.6 633.88L87.84 633.88L87.84 633.88L87.84 634.36L87.84 634.36L87.6 634.36z" stroke="none" fill="#000000" fill-rule="evenodd" /><path transform="matrix(1 0 0 -1 0 792)" d="M87.6 634.12L87.84 634.12L87.84 634.12L87.84 634.36L87.84 634.36L87.6 634.36z" stroke="none" fill="#000000" fill-rule="evenodd" /><path transform="matrix(1 0 0 -1 0 792)" d="M87.84 634.12L188.96 634.12L188.96 634.12L188.96 634.36L188.96 634.36L87.84 634.36z" stroke="none" fill="#000000" fill-rule="evenodd" /><path transform="matrix(1 0 0 -1 0 792)" d="M188.96 634.12L189.2 634.12L189.2 634.12L189.2 634.36L189.2 634.36L188.96 634.36z" stroke="none" fill="#000000" fill-rule="evenodd" /><path transform="matrix(1 0 0 -1 0 792)" d="M189.2 634.12L431.26 634.12L431.26 634.12L431.26 634.36L431.26 634.36L189.2 634.36z" stroke="none" fill="#000000" fill-rule="evenodd" /><path transform="matrix(1 0 0 -1 0 792)" d="M431.26 634.12L431.5 634.12L431.5 634.12L431.5 634.36L431.5 634.36L431.26 634.36z" stroke="none" fill="#000000" fill-rule="evenodd" /><path transform="matrix(1 0 0 -1 0 792)" d="M431.5 634.12L524.22 634.12L524.22 634.12L524.22 634.36L524.22 634.36L431.5 634.36z" stroke="none" fill="#000000" fill-rule="evenodd" /><path transform="matrix(1 0 0 -1 0 792)" d="M524.22 633.88L524.46 633.88L524.46 633.88L524.46 634.36L524.46 634.36L524.22 634.36z" stroke="none" fill="#000000" fill-rule="evenodd" /><path transform="matrix(1 0 0 -1 0 792)" d="M524.22 634.12L524.46 634.12L524.46 634.12L524.46 634.36L524.46 634.36L524.22 634.36z" stroke="none" fill="#000000" fill-rule="evenodd" /><path transform="matrix(1 0 0 -1 0 792)" d="M87.78 633.88L88.02 633.88L88.02 633.88L88.02 634.12L88.02 634.12L87.78 634.12z" stroke="none" fill="#000000" fill-rule="evenodd" /><path transform="matrix(1 0 0 -1 0 792)" d="M87.78 633.88L88.02 633.88L88.02 633.88L88.02 634.12L88.02 634.12L87.78 634.12z" stroke="none" fill="#000000" fill-rule="evenodd" /><path transform="matrix(1 0 0 -1 0 792)" d="M88.02 633.88L188.72 633.88L188.72 633.88L188.72 634.12L188.72 634.12L88.02 634.12z" stroke="none" fill="#000000" fill-rule="evenodd" /><path transform="matrix(1 0 0 -1 0 792)" d="M188.72 633.88L188.96 633.88L188.96 633.88L188.96 634.12L188.96 634.12L188.72 634.12z" stroke="none" fill="#000000" fill-rule="evenodd" /><path transform="matrix(1 0 0 -1 0 792)" d="M188.72 633.88L188.96 633.88L188.96 633.88L188.96 634.12L188.96 634.12L188.72 634.12z" stroke="none" fill="#000000" fill-rule="evenodd" /><path transform="matrix(1 0 0 -1 0 792)" d="M87.78 620.02L88.02 620.02L88.02 620.02L88.02 620.26L88.02 620.26L87.78 620.26z" stroke="none" fill="#000000" fill-rule="evenodd" /><path transform="matrix(1 0 0 -1 0 792)" d="M87.78 620.02L88.02 620.02L88.02 620.02L88.02 620.26L88.02 620.26L87.78 620.26z" stroke="none" fill="#000000" fill-rule="evenodd" /><path transform="matrix(1 0 0 -1 0 792)" d="M88.02 620.02L188.72 620.02L188.72 620.02L188.72 620.26L188.72 620.26L88.02 620.26z" stroke="none" fill="#000000" fill-rule="evenodd" /><path transform="matrix(1 0 0 -1 0 792)" d="M188.72 620.02L188.96 620.02L188.96 620.02L188.96 620.26L188.96 620.26L188.72 620.26z" stroke="none" fill="#000000" fill-rule="evenodd" /><path transform="matrix(1 0 0 -1 0 792)" d="M188.72 620.02L188.96 620.02L188.96 620.02L188.96 620.26L188.96 620.26L188.72 620.26z" stroke="none" fill="#000000" fill-rule="evenodd" /><path transform="matrix(1 0 0 -1 0 792)" d="M87.78 620.26L88.02 620.26L88.02 620.26L88.02 633.88L88.02 633.88L87.78 633.88z" stroke="none" fill="#000000" fill-rule="evenodd" /><path transform="matrix(1 0 0 -1 0 792)" d="M188.72 620.26L188.96 620.26L188.96 620.26L188.96 633.88L188.96 633.88L188.72 633.88z" stroke="none" fill="#000000" fill-rule="evenodd" /><path transform="matrix(1 0 0 -1 0 792)" d="M87.6 620.02L87.84 620.02L87.84 620.02L87.84 633.88L87.84 633.88L87.6 633.88z" stroke="none" fill="#000000" fill-rule="evenodd" /><path transform="matrix(1 0 0 -1 0 792)" d="M188.96 633.88L189.2 633.88L189.2 633.88L189.2 634.12L189.2 634.12L188.96 634.12z" stroke="none" fill="#000000" fill-rule="evenodd" /><path transform="matrix(1 0 0 -1 0 792)" d="M188.96 633.88L189.2 633.88L189.2 633.88L189.2 634.12L189.2 634.12L188.96 634.12z" stroke="none" fill="#000000" fill-rule="evenodd" /><path transform="matrix(1 0 0 -1 0 792)" d="M189.2 633.88L431.02 633.88L431.02 633.88L431.02 634.12L431.02 634.12L189.2 634.12z" stroke="none" fill="#000000" fill-rule="evenodd" /><path transform="matrix(1 0 0 -1 0 792)" d="M431.02 633.88L431.26 633.88L431.26 633.88L431.26 634.12L431.26 634.12L431.02 634.12z" stroke="none" fill="#000000" fill-rule="evenodd" /><path transform="matrix(1 0 0 -1 0 792)" d="M431.02 633.88L431.26 633.88L431.26 633.88L431.26 634.12L431.26 634.12L431.02 634.12z" stroke="none" fill="#000000" fill-rule="evenodd" /><path transform="matrix(1 0 0 -1 0 792)" d="M188.96 620.02L189.2 620.02L189.2 620.02L189.2 620.26L189.2 620.26L188.96 620.26z" stroke="none" fill="#000000" fill-rule="evenodd" /><path transform="matrix(1 0 0 -1 0 792)" d="M188.96 620.02L189.2 620.02L189.2 620.02L189.2 620.26L189.2 620.26L188.96 620.26z" stroke="none" fill="#000000" fill-rule="evenodd" /><path transform="matrix(1 0 0 -1 0 792)" d="M189.2 620.02L431.02 620.02L431.02 620.02L431.02 620.26L431.02 620.26L189.2 620.26z" stroke="none" fill="#000000" fill-rule="evenodd" /><path transform="matrix(1 0 0 -1 0 792)" d="M431.02 620.02L431.26 620.02L431.26 620.02L431.26 620.26L431.26 620.26L431.02 620.26z" stroke="none" fill="#000000" fill-rule="evenodd" /><path transform="matrix(1 0 0 -1 0 792)" d="M431.02 620.02L431.26 620.02L431.26 620.02L431.26 620.26L431.26 620.26L431.02 620.26z" stroke="none" fill="#000000" fill-rule="evenodd" /><path transform="matrix(1 0 0 -1 0 792)" d="M188.96 620.26L189.2 620.26L189.2 620.26L189.2 633.88L189.2 633.88L188.96 633.88z" stroke="none" fill="#000000" fill-rule="evenodd" /><path transform="matrix(1 0 0 -1 0 792)" d="M431.02 620.26L431.26 620.26L431.26 620.26L431.26 633.88L431.26 633.88L431.02 633.88z" stroke="none" fill="#000000" fill-rule="evenodd" /><path transform="matrix(1 0 0 -1 0 792)" d="M431.26 633.88L431.5 633.88L431.5 633.88L431.5 634.12L431.5 634.12L431.26 634.12z" stroke="none" fill="#000000" fill-rule="evenodd" /><path transform="matrix(1 0 0 -1 0 792)" d="M431.26 633.88L431.5 633.88L431.5 633.88L431.5 634.12L431.5 634.12L431.26 634.12z" stroke="none" fill="#000000" fill-rule="evenodd" /><path transform="matrix(1 0 0 -1 0 792)" d="M431.5 633.88L524.04 633.88L524.04 633.88L524.04 634.12L524.04 634.12L431.5 634.12z" stroke="none" fill="#000000" fill-rule="evenodd" /><path transform="matrix(1 0 0 -1 0 792)" d="M524.04 633.88L524.28 633.88L524.28 633.88L524.28 634.12L524.28 634.12L524.04 634.12z" stroke="none" fill="#000000" fill-rule="evenodd" /><path transform="matrix(1 0 0 -1 0 792)" d="M524.04 633.88L524.28 633.88L524.28 633.88L524.28 634.12L524.28 634.12L524.04 634.12z" stroke="none" fill="#000000" fill-rule="evenodd" /><path transform="matrix(1 0 0 -1 0 792)" d="M431.26 620.02L431.5 620.02L431.5 620.02L431.5 620.26L431.5 620.26L431.26 620.26z" stroke="none" fill="#000000" fill-rule="evenodd" /><path transform="matrix(1 0 0 -1 0 792)" d="M431.26 620.02L431.5 620.02L431.5 620.02L431.5 620.26L431.5 620.26L431.26 620.26z" stroke="none" fill="#000000" fill-rule="evenodd" /><path transform="matrix(1 0 0 -1 0 792)" d="M431.5 620.02L524.04 620.02L524.04 620.02L524.04 620.26L524.04 620.26L431.5 620.26z" stroke="none" fill="#000000" fill-rule="evenodd" /><path transform="matrix(1 0 0 -1 0 792)" d="M524.04 620.02L524.28 620.02L524.28 620.02L524.28 620.26L524.28 620.26L524.04 620.26z" stroke="none" fill="#000000" fill-rule="evenodd" /><path transform="matrix(1 0 0 -1 0 792)" d="M524.04 620.02L524.28 620.02L524.28 620.02L524.28 620.26L524.28 620.26L524.04 620.26z" stroke="none" fill="#000000" fill-rule="evenodd" /><path transform="matrix(1 0 0 -1 0 792)" d="M431.26 620.26L431.5 620.26L431.5 620.26L431.5 633.88L431.5 633.88L431.26 633.88z" stroke="none" fill="#000000" fill-rule="evenodd" /><path transform="matrix(1 0 0 -1 0 792)" d="M524.04 620.26L524.28 620.26L524.28 620.26L524.28 633.88L524.28 633.88L524.04 633.88z" stroke="none" fill="#000000" fill-rule="evenodd" /><path transform="matrix(1 0 0 -1 0 792)" d="M524.22 620.02L524.46 620.02L524.46 620.02L524.46 633.88L524.46 633.88L524.22 633.88z" stroke="none" fill="#000000" fill-rule="evenodd" /><g clip-path="url(#12)"><g clip-path="url(#13)"></g><g clip-path="url(#14)"></g><g clip-path="url(#15)"></g></g><g clip-path="url(#16)"><g clip-path="url(#17)"></g><g clip-path="url(#18)"></g><g clip-path="url(#19)"></g><g clip-path="url(#20)"></g></g><g clip-path="url(#21)"><g clip-path="url(#22)"></g><g clip-path="url(#23)"></g><g clip-path="url(#24)"></g></g><path transform="matrix(1 0 0 -1 0 792)" d="M87.6 619.78L87.84 619.78L87.84 619.78L87.84 620.02L87.84 620.02L87.6 620.02z" stroke="none" fill="#000000" fill-rule="evenodd" /><path transform="matrix(1 0 0 -1 0 792)" d="M524.22 619.78L524.46 619.78L524.46 619.78L524.46 620.02L524.46 620.02L524.22 620.02z" stroke="none" fill="#000000" fill-rule="evenodd" /><path transform="matrix(1 0 0 -1 0 792)" d="M87.78 619.78L88.02 619.78L88.02 619.78L88.02 620.02L88.02 620.02L87.78 620.02z" stroke="none" fill="#000000" fill-rule="evenodd" /><path transform="matrix(1 0 0 -1 0 792)" d="M87.78 619.78L88.02 619.78L88.02 619.78L88.02 620.02L88.02 620.02L87.78 620.02z" stroke="none" fill="#000000" fill-rule="evenodd" /><path transform="matrix(1 0 0 -1 0 792)" d="M88.02 619.78L188.72 619.78L188.72 619.78L188.72 620.02L188.72 620.02L88.02 620.02z" stroke="none" fill="#000000" fill-rule="evenodd" /><path transform="matrix(1 0 0 -1 0 792)" d="M188.72 619.78L188.96 619.78L188.96 619.78L188.96 620.02L188.96 620.02L188.72 620.02z" stroke="none" fill="#000000" fill-rule="evenodd" /><path transform="matrix(1 0 0 -1 0 792)" d="M188.72 619.78L188.96 619.78L188.96 619.78L188.96 620.02L188.96 620.02L188.72 620.02z" stroke="none" fill="#000000" fill-rule="evenodd" /><path transform="matrix(1 0 0 -1 0 792)" d="M87.78 578.62L88.02 578.62L88.02 578.62L88.02 578.86L88.02 578.86L87.78 578.86z" stroke="none" fill="#000000" fill-rule="evenodd" /><path transform="matrix(1 0 0 -1 0 792)" d="M87.78 578.62L88.02 578.62L88.02 578.62L88.02 578.86L88.02 578.86L87.78 578.86z" stroke="none" fill="#000000" fill-rule="evenodd" /><path transform="matrix(1 0 0 -1 0 792)" d="M88.02 578.62L188.72 578.62L188.72 578.62L188.72 578.86L188.72 578.86L88.02 578.86z" stroke="none" fill="#000000" fill-rule="evenodd" /><path transform="matrix(1 0 0 -1 0 792)" d="M188.72 578.62L188.96 578.62L188.96 578.62L188.96 578.86L188.96 578.86L188.72 578.86z" stroke="none" fill="#000000" fill-rule="evenodd" /><path transform="matrix(1 0 0 -1 0 792)" d="M188.72 578.62L188.96 578.62L188.96 578.62L188.96 578.86L188.96 578.86L188.72 578.86z" stroke="none" fill="#000000" fill-rule="evenodd" /><path transform="matrix(1 0 0 -1 0 792)" d="M87.78 578.86L88.02 578.86L88.02 578.86L88.02 619.78L88.02 619.78L87.78 619.78z" stroke="none" fill="#000000" fill-rule="evenodd" /><path transform="matrix(1 0 0 -1 0 792)" d="M188.72 578.86L188.96 578.86L188.96 578.86L188.96 619.78L188.96 619.78L188.72 619.78z" stroke="none" fill="#000000" fill-rule="evenodd" /><path transform="matrix(1 0 0 -1 0 792)" d="M87.6 578.62L87.84 578.62L87.84 578.62L87.84 619.78L87.84 619.78L87.6 619.78z" stroke="none" fill="#000000" fill-rule="evenodd" /><path transform="matrix(1 0 0 -1 0 792)" d="M87.6 578.38L87.84 578.38L87.84 578.38L87.84 578.62L87.84 578.62L87.6 578.62z" stroke="none" fill="#000000" fill-rule="evenodd" /><path transform="matrix(1 0 0 -1 0 792)" d="M87.6 578.38L87.84 578.38L87.84 578.38L87.84 578.62L87.84 578.62L87.6 578.62z" stroke="none" fill="#000000" fill-rule="evenodd" /><path transform="matrix(1 0 0 -1 0 792)" d="M87.84 578.38L188.96 578.38L188.96 578.38L188.96 578.62L188.96 578.62L87.84 578.62z" stroke="none" fill="#000000" fill-rule="evenodd" /><path transform="matrix(1 0 0 -1 0 792)" d="M188.96 619.78L189.2 619.78L189.2 619.78L189.2 620.02L189.2 620.02L188.96 620.02z" stroke="none" fill="#000000" fill-rule="evenodd" /><path transform="matrix(1 0 0 -1 0 792)" d="M188.96 619.78L189.2 619.78L189.2 619.78L189.2 620.02L189.2 620.02L188.96 620.02z" stroke="none" fill="#000000" fill-rule="evenodd" /><path transform="matrix(1 0 0 -1 0 792)" d="M189.2 619.78L431.02 619.78L431.02 619.78L431.02 620.02L431.02 620.02L189.2 620.02z" stroke="none" fill="#000000" fill-rule="evenodd" /><path transform="matrix(1 0 0 -1 0 792)" d="M431.02 619.78L431.26 619.78L431.26 619.78L431.26 620.02L431.26 620.02L431.02 620.02z" stroke="none" fill="#000000" fill-rule="evenodd" /><path transform="matrix(1 0 0 -1 0 792)" d="M431.02 619.78L431.26 619.78L431.26 619.78L431.26 620.02L431.26 620.02L431.02 620.02z" stroke="none" fill="#000000" fill-rule="evenodd" /><path transform="matrix(1 0 0 -1 0 792)" d="M188.96 578.62L189.2 578.62L189.2 578.62L189.2 578.86L189.2 578.86L188.96 578.86z" stroke="none" fill="#000000" fill-rule="evenodd" /><path transform="matrix(1 0 0 -1 0 792)" d="M188.96 578.62L189.2 578.62L189.2 578.62L189.2 578.86L189.2 578.86L188.96 578.86z" stroke="none" fill="#000000" fill-rule="evenodd" /><path transform="matrix(1 0 0 -1 0 792)" d="M189.2 578.62L431.02 578.62L431.02 578.62L431.02 578.86L431.02 578.86L189.2 578.86z" stroke="none" fill="#000000" fill-rule="evenodd" /><path transform="matrix(1 0 0 -1 0 792)" d="M431.02 578.62L431.26 578.62L431.26 578.62L431.26 578.86L431.26 578.86L431.02 578.86z" stroke="none" fill="#000000" fill-rule="evenodd" /><path transform="matrix(1 0 0 -1 0 792)" d="M431.02 578.62L431.26 578.62L431.26 578.62L431.26 578.86L431.26 578.86L431.02 578.86z" stroke="none" fill="#000000" fill-rule="evenodd" /><path transform="matrix(1 0 0 -1 0 792)" d="M188.96 578.86L189.2 578.86L189.2 578.86L189.2 619.78L189.2 619.78L188.96 619.78z" stroke="none" fill="#000000" fill-rule="evenodd" /><path transform="matrix(1 0 0 -1 0 792)" d="M431.02 578.86L431.26 578.86L431.26 578.86L431.26 619.78L431.26 619.78L431.02 619.78z" stroke="none" fill="#000000" fill-rule="evenodd" /><path transform="matrix(1 0 0 -1 0 792)" d="M188.96 578.38L189.2 578.38L189.2 578.38L189.2 578.62L189.2 578.62L188.96 578.62z" stroke="none" fill="#000000" fill-rule="evenodd" /><path transform="matrix(1 0 0 -1 0 792)" d="M189.2 578.38L431.26 578.38L431.26 578.38L431.26 578.62L431.26 578.62L189.2 578.62z" stroke="none" fill="#000000" fill-rule="evenodd" /><path transform="matrix(1 0 0 -1 0 792)" d="M431.26 619.78L431.5 619.78L431.5 619.78L431.5 620.02L431.5 620.02L431.26 620.02z" stroke="none" fill="#000000" fill-rule="evenodd" /><path transform="matrix(1 0 0 -1 0 792)" d="M431.26 619.78L431.5 619.78L431.5 619.78L431.5 620.02L431.5 620.02L431.26 620.02z" stroke="none" fill="#000000" fill-rule="evenodd" /><path transform="matrix(1 0 0 -1 0 792)" d="M431.5 619.78L524.04 619.78L524.04 619.78L524.04 620.02L524.04 620.02L431.5 620.02z" stroke="none" fill="#000000" fill-rule="evenodd" /><path transform="matrix(1 0 0 -1 0 792)" d="M524.04 619.78L524.28 619.78L524.28 619.78L524.28 620.02L524.28 620.02L524.04 620.02z" stroke="none" fill="#000000" fill-rule="evenodd" /><path transform="matrix(1 0 0 -1 0 792)" d="M524.04 619.78L524.28 619.78L524.28 619.78L524.28 620.02L524.28 620.02L524.04 620.02z" stroke="none" fill="#000000" fill-rule="evenodd" /><path transform="matrix(1 0 0 -1 0 792)" d="M431.26 578.62L431.5 578.62L431.5 578.62L431.5 578.86L431.5 578.86L431.26 578.86z" stroke="none" fill="#000000" fill-rule="evenodd" /><path transform="matrix(1 0 0 -1 0 792)" d="M431.26 578.62L431.5 578.62L431.5 578.62L431.5 578.86L431.5 578.86L431.26 578.86z" stroke="none" fill="#000000" fill-rule="evenodd" /><path transform="matrix(1 0 0 -1 0 792)" d="M431.5 578.62L524.04 578.62L524.04 578.62L524.04 578.86L524.04 578.86L431.5 578.86z" stroke="none" fill="#000000" fill-rule="evenodd" /><path transform="matrix(1 0 0 -1 0 792)" d="M524.04 578.62L524.28 578.62L524.28 578.62L524.28 578.86L524.28 578.86L524.04 578.86z" stroke="none" fill="#000000" fill-rule="evenodd" /><path transform="matrix(1 0 0 -1 0 792)" d="M524.04 578.62L524.28 578.62L524.28 578.62L524.28 578.86L524.28 578.86L524.04 578.86z" stroke="none" fill="#000000" fill-rule="evenodd" /><path transform="matrix(1 0 0 -1 0 792)" d="M431.26 578.86L431.5 578.86L431.5 578.86L431.5 619.78L431.5 619.78L431.26 619.78z" stroke="none" fill="#000000" fill-rule="evenodd" /><path transform="matrix(1 0 0 -1 0 792)" d="M524.04 578.86L524.28 578.86L524.28 578.86L524.28 619.78L524.28 619.78L524.04 619.78z" stroke="none" fill="#000000" fill-rule="evenodd" /><path transform="matrix(1 0 0 -1 0 792)" d="M431.26 578.38L431.5 578.38L431.5 578.38L431.5 578.62L431.5 578.62L431.26 578.62z" stroke="none" fill="#000000" fill-rule="evenodd" /><path transform="matrix(1 0 0 -1 0 792)" d="M431.5 578.38L524.22 578.38L524.22 578.38L524.22 578.62L524.22 578.62L431.5 578.62z" stroke="none" fill="#000000" fill-rule="evenodd" /><path transform="matrix(1 0 0 -1 0 792)" d="M524.22 578.62L524.46 578.62L524.46 578.62L524.46 619.78L524.46 619.78L524.22 619.78z" stroke="none" fill="#000000" fill-rule="evenodd" /><path transform="matrix(1 0 0 -1 0 792)" d="M524.22 578.38L524.46 578.38L524.46 578.38L524.46 578.62L524.46 578.62L524.22 578.62z" stroke="none" fill="#000000" fill-rule="evenodd" /><path transform="matrix(1 0 0 -1 0 792)" d="M524.22 578.38L524.46 578.38L524.46 578.38L524.46 578.62L524.46 578.62L524.22 578.62z" stroke="none" fill="#000000" fill-rule="evenodd" /></g></g></svg>