<svg xmlns="http://www.w3.org/2000/svg" xmlns:xlink="http://www.w3.org/1999/xlink" id="body_2" preserveAspectRatio="xMinYMin meet" viewBox="0 0 793 1121"><defs><clipPath id="1"><path clip-rule="evenodd" d="M0 841L0 -0.9199829L0 -0.9199829L595.32 -0.9199829L595.32 -0.9199829L595.32 841L595.32 841L0 841z" /></clipPath><clipPath id="2"><path clip-rule="evenodd" d="M0 841.06L595.4 841.06L595.4 841.06L595.4 -0.9199829L595.4 -0.9199829L0 -0.9199829z" /></clipPath><clipPath id="3"><path clip-rule="evenodd" d="M89.96 302.7L319.48 302.7L319.48 302.7L319.48 287.1L319.48 287.1L89.96 287.1z" /></clipPath><clipPath id="4"><path clip-rule="evenodd" d="M89.96 302.7L319.48 302.7L319.48 302.7L319.48 287.1L319.48 287.1L89.96 287.1z" /></clipPath><clipPath id="5"><path clip-rule="evenodd" d="M89.96 302.7L319.48 302.7L319.48 302.7L319.48 287.1L319.48 287.1L89.96 287.1z" /></clipPath><clipPath id="6"><path clip-rule="evenodd" d="M320.2 302.7L514.98 302.7L514.98 302.7L514.98 287.1L514.98 287.1L320.2 287.1z" /></clipPath><clipPath id="7"><path clip-rule="evenodd" d="M320.2 302.7L514.98 302.7L514.98 302.7L514.98 287.1L514.98 287.1L320.2 287.1z" /></clipPath><clipPath id="8"><path clip-rule="evenodd" d="M320.2 302.7L514.98 302.7L514.98 302.7L514.98 287.1L514.98 287.1L320.2 287.1z" /></clipPath><clipPath id="9"><path clip-rule="evenodd" d="M89.96 319.08L319.48 319.08L319.48 319.08L319.48 303.48L319.48 303.48L89.96 303.48z" /></clipPath><clipPath id="10"><path clip-rule="evenodd" d="M89.96 319.08L319.48 319.08L319.48 319.08L319.48 303.48L319.48 303.48L89.96 303.48z" /></clipPath><clipPath id="11"><path clip-rule="evenodd" d="M89.96 319.08L319.48 319.08L319.48 319.08L319.48 303.48L319.48 303.48L89.96 303.48z" /></clipPath><clipPath id="12"><path clip-rule="evenodd" d="M320.2 319.08L514.98 319.08L514.98 319.08L514.98 303.48L514.98 303.48L320.2 303.48z" /></clipPath><clipPath id="13"><path clip-rule="evenodd" d="M320.2 319.08L514.98 319.08L514.98 319.08L514.98 303.48L514.98 303.48L320.2 303.48z" /></clipPath><clipPath id="14"><path clip-rule="evenodd" d="M320.2 319.08L514.98 319.08L514.98 319.08L514.98 303.48L514.98 303.48L320.2 303.48z" /></clipPath><clipPath id="15"><path clip-rule="evenodd" d="M89.96 335.4L319.48 335.4L319.48 335.4L319.48 319.8L319.48 319.8L89.96 319.8z" /></clipPath><clipPath id="16"><path clip-rule="evenodd" d="M89.96 335.4L319.48 335.4L319.48 335.4L319.48 319.8L319.48 319.8L89.96 319.8z" /></clipPath><clipPath id="17"><path clip-rule="evenodd" d="M89.96 335.4L319.48 335.4L319.48 335.4L319.48 319.8L319.48 319.8L89.96 319.8z" /></clipPath><clipPath id="18"><path clip-rule="evenodd" d="M320.2 335.4L514.98 335.4L514.98 335.4L514.98 319.8L514.98 319.8L320.2 319.8z" /></clipPath><clipPath id="19"><path clip-rule="evenodd" d="M320.2 335.4L514.98 335.4L514.98 335.4L514.98 319.8L514.98 319.8L320.2 319.8z" /></clipPath><clipPath id="20"><path clip-rule="evenodd" d="M320.2 335.4L514.98 335.4L514.98 335.4L514.98 319.8L514.98 319.8L320.2 319.8z" /></clipPath></defs><g transform="matrix(1.333333 0 0 1.333333 0 0)"><g clip-path="url(#1)"><g clip-path="url(#2)"><path transform="matrix(1 0 0 -1 0 841)" d="M88.52 785.94L506.88 785.94L506.88 785.94L506.88 786.66L506.88 786.66L88.52 786.66z" stroke="none" fill="#000000" fill-rule="evenodd" /></g><g clip-path="url(#3)"><g clip-path="url(#4)"></g><g clip-path="url(#5)"></g></g><g clip-path="url(#6)"><g clip-path="url(#7)"></g><g clip-path="url(#8)"></g></g><path transform="matrix(1 0 0 -1 0 841)" d="M89.24 553.84L89.96 553.84L89.96 553.84L89.96 554.6201L89.96 554.6201L89.24 554.6201z" stroke="none" fill="#000000" fill-rule="evenodd" /><path transform="matrix(1 0 0 -1 0 841)" d="M89.24 553.9L89.96 553.9L89.96 553.9L89.96 554.62L89.96 554.62L89.24 554.62z" stroke="none" fill="#000000" fill-rule="evenodd" /><path transform="matrix(1 0 0 -1 0 841)" d="M89.96 553.9L319.48 553.9L319.48 553.9L319.48 554.62L319.48 554.62L89.96 554.62z" stroke="none" fill="#000000" fill-rule="evenodd" /><path transform="matrix(1 0 0 -1 0 841)" d="M319.48 553.84L320.2 553.84L320.2 553.84L320.2 553.9L320.2 553.9L319.48 553.9z" stroke="none" fill="#000000" fill-rule="evenodd" /><path transform="matrix(1 0 0 -1 0 841)" d="M319.48 553.9L320.2 553.9L320.2 553.9L320.2 554.62L320.2 554.62L319.48 554.62z" stroke="none" fill="#000000" fill-rule="evenodd" /><path transform="matrix(1 0 0 -1 0 841)" d="M320.2 553.9L514.98 553.9L514.98 553.9L514.98 554.62L514.98 554.62L320.2 554.62z" stroke="none" fill="#000000" fill-rule="evenodd" /><path transform="matrix(1 0 0 -1 0 841)" d="M514.98 553.84L515.7 553.84L515.7 553.84L515.7 554.6201L515.7 554.6201L514.98 554.6201z" stroke="none" fill="#000000" fill-rule="evenodd" /><path transform="matrix(1 0 0 -1 0 841)" d="M514.98 553.9L515.7 553.9L515.7 553.9L515.7 554.62L515.7 554.62L514.98 554.62z" stroke="none" fill="#000000" fill-rule="evenodd" /><path transform="matrix(1 0 0 -1 0 841)" d="M89.24 538.3L89.96 538.3L89.96 538.3L89.96 553.84L89.96 553.84L89.24 553.84z" stroke="none" fill="#000000" fill-rule="evenodd" /><path transform="matrix(1 0 0 -1 0 841)" d="M319.48 538.3L320.2 538.3L320.2 538.3L320.2 553.84L320.2 553.84L319.48 553.84z" stroke="none" fill="#000000" fill-rule="evenodd" /><path transform="matrix(1 0 0 -1 0 841)" d="M514.98 538.3L515.7 538.3L515.7 538.3L515.7 553.84L515.7 553.84L514.98 553.84z" stroke="none" fill="#000000" fill-rule="evenodd" /><g clip-path="url(#9)"><g clip-path="url(#10)"></g><g clip-path="url(#11)"></g></g><g clip-path="url(#12)"><g clip-path="url(#13)"></g><g clip-path="url(#14)"></g></g><path transform="matrix(1 0 0 -1 0 841)" d="M89.24 537.52L89.96 537.52L89.96 537.52L89.96 538.3L89.96 538.3L89.24 538.3z" stroke="none" fill="#000000" fill-rule="evenodd" /><path transform="matrix(1 0 0 -1 0 841)" d="M89.96 537.58L319.48 537.58L319.48 537.58L319.48 538.3L319.48 538.3L89.96 538.3z" stroke="none" fill="#000000" fill-rule="evenodd" /><path transform="matrix(1 0 0 -1 0 841)" d="M319.48 537.52L320.2 537.52L320.2 537.52L320.2 538.3L320.2 538.3L319.48 538.3z" stroke="none" fill="#000000" fill-rule="evenodd" /><path transform="matrix(1 0 0 -1 0 841)" d="M320.2 537.58L514.98 537.58L514.98 537.58L514.98 538.3L514.98 538.3L320.2 538.3z" stroke="none" fill="#000000" fill-rule="evenodd" /><path transform="matrix(1 0 0 -1 0 841)" d="M514.98 537.52L515.7 537.52L515.7 537.52L515.7 538.3L515.7 538.3L514.98 538.3z" stroke="none" fill="#000000" fill-rule="evenodd" /><path transform="matrix(1 0 0 -1 0 841)" d="M89.24 521.92L89.96 521.92L89.96 521.92L89.96 537.52L89.96 537.52L89.24 537.52z" stroke="none" fill="#000000" fill-rule="evenodd" /><path transform="matrix(1 0 0 -1 0 841)" d="M319.48 521.92L320.2 521.92L320.2 521.92L320.2 537.52L320.2 537.52L319.48 537.52z" stroke="none" fill="#000000" fill-rule="evenodd" /><path transform="matrix(1 0 0 -1 0 841)" d="M514.98 521.92L515.7 521.92L515.7 521.92L515.7 537.52L515.7 537.52L514.98 537.52z" stroke="none" fill="#000000" fill-rule="evenodd" /><g clip-path="url(#15)"><g clip-path="url(#16)"></g><g clip-path="url(#17)"></g></g><g clip-path="url(#18)"><g clip-path="url(#19)"></g><g clip-path="url(#20)"></g></g><path transform="matrix(1 0 0 -1 0 841)" d="M89.24 521.14L89.96 521.14L89.96 521.14L89.96 521.92L89.96 521.92L89.24 521.92z" stroke="none" fill="#000000" fill-rule="evenodd" /><path transform="matrix(1 0 0 -1 0 841)" d="M89.96 521.2L319.48 521.2L319.48 521.2L319.48 521.92L319.48 521.92L89.96 521.92z" stroke="none" fill="#000000" fill-rule="evenodd" /><path transform="matrix(1 0 0 -1 0 841)" d="M319.48 521.14L320.2 521.14L320.2 521.14L320.2 521.92L320.2 521.92L319.48 521.92z" stroke="none" fill="#000000" fill-rule="evenodd" /><path transform="matrix(1 0 0 -1 0 841)" d="M320.2 521.2L514.98 521.2L514.98 521.2L514.98 521.92L514.98 521.92L320.2 521.92z" stroke="none" fill="#000000" fill-rule="evenodd" /><path transform="matrix(1 0 0 -1 0 841)" d="M514.98 521.14L515.7 521.14L515.7 521.14L515.7 521.92L515.7 521.92L514.98 521.92z" stroke="none" fill="#000000" fill-rule="evenodd" /><path transform="matrix(1 0 0 -1 0 841)" d="M89.24 505.54L89.96 505.54L89.96 505.54L89.96 521.14L89.96 521.14L89.24 521.14z" stroke="none" fill="#000000" fill-rule="evenodd" /><path transform="matrix(1 0 0 -1 0 841)" d="M89.24 504.82L89.96 504.82L89.96 504.82L89.96 505.54L89.96 505.54L89.24 505.54z" stroke="none" fill="#000000" fill-rule="evenodd" /><path transform="matrix(1 0 0 -1 0 841)" d="M89.24 504.82L89.96 504.82L89.96 504.82L89.96 505.54L89.96 505.54L89.24 505.54z" stroke="none" fill="#000000" fill-rule="evenodd" /><path transform="matrix(1 0 0 -1 0 841)" d="M89.96 504.82L319.48 504.82L319.48 504.82L319.48 505.54L319.48 505.54L89.96 505.54z" stroke="none" fill="#000000" fill-rule="evenodd" /><path transform="matrix(1 0 0 -1 0 841)" d="M319.48 505.54L320.2 505.54L320.2 505.54L320.2 521.14L320.2 521.14L319.48 521.14z" stroke="none" fill="#000000" fill-rule="evenodd" /><path transform="matrix(1 0 0 -1 0 841)" d="M319.48 504.82L320.2 504.82L320.2 504.82L320.2 505.54L320.2 505.54L319.48 505.54z" stroke="none" fill="#000000" fill-rule="evenodd" /><path transform="matrix(1 0 0 -1 0 841)" d="M320.2 504.82L514.98 504.82L514.98 504.82L514.98 505.54L514.98 505.54L320.2 505.54z" stroke="none" fill="#000000" fill-rule="evenodd" /><path transform="matrix(1 0 0 -1 0 841)" d="M514.98 505.54L515.7 505.54L515.7 505.54L515.7 521.14L515.7 521.14L514.98 521.14z" stroke="none" fill="#000000" fill-rule="evenodd" /><path transform="matrix(1 0 0 -1 0 841)" d="M514.98 504.82L515.7 504.82L515.7 504.82L515.7 505.54L515.7 505.54L514.98 505.54z" stroke="none" fill="#000000" fill-rule="evenodd" /><path transform="matrix(1 0 0 -1 0 841)" d="M514.98 504.82L515.7 504.82L515.7 504.82L515.7 505.54L515.7 505.54L514.98 505.54z" stroke="none" fill="#000000" fill-rule="evenodd" /></g></g></svg>