<svg xmlns="http://www.w3.org/2000/svg" xmlns:xlink="http://www.w3.org/1999/xlink" id="body_4" preserveAspectRatio="xMinYMin meet" viewBox="0 0 816 1056"><defs><clipPath id="1"><path clip-rule="evenodd" d="M0 792L0 0L0 0L612 0L612 0L612 792L612 792L0 792z" /></clipPath><clipPath id="2"><path clip-rule="evenodd" d="M0 792.06L612.06 792.06L612.06 792.06L612.06 0L612.06 0L0 0z" /></clipPath><clipPath id="3"><path clip-rule="evenodd" d="M89.94 128.4L436.96 128.4L436.96 128.4L436.96 114.78L436.96 114.78L89.94 114.78z" /></clipPath><clipPath id="4"><path clip-rule="evenodd" d="M89.94 128.4L436.96 128.4L436.96 128.4L436.96 114.78L436.96 114.78L89.94 114.78z" /></clipPath><clipPath id="5"><path clip-rule="evenodd" d="M89.94 128.4L436.96 128.4L436.96 128.4L436.96 114.78L436.96 114.78L89.94 114.78z" /></clipPath><clipPath id="6"><path clip-rule="evenodd" d="M437.62 128.4L529.14 128.4L529.14 128.4L529.14 114.78L529.14 114.78L437.62 114.78z" /></clipPath><clipPath id="7"><path clip-rule="evenodd" d="M437.62 128.4L529.14 128.4L529.14 128.4L529.14 114.78L529.14 114.78L437.62 114.78z" /></clipPath><clipPath id="8"><path clip-rule="evenodd" d="M437.62 128.4L529.14 128.4L529.14 128.4L529.14 114.78L529.14 114.78L437.62 114.78z" /></clipPath><clipPath id="9"><path clip-rule="evenodd" d="M89.94 142.76L529.14 142.76L529.14 142.76L529.14 129.12L529.14 129.12L89.94 129.12z" /></clipPath><clipPath id="10"><path clip-rule="evenodd" d="M89.94 142.76L529.14 142.76L529.14 142.76L529.14 129.12L529.14 129.12L89.94 129.12z" /></clipPath><clipPath id="11"><path clip-rule="evenodd" d="M89.94 142.76L529.14 142.76L529.14 142.76L529.14 129.12L529.14 129.12L89.94 129.12z" /></clipPath><clipPath id="12"><path clip-rule="evenodd" d="M89.94 170.78L337.72 170.78L337.72 170.78L337.72 143.54L337.72 143.54L89.94 143.54z" /></clipPath><clipPath id="13"><path clip-rule="evenodd" d="M89.94 170.78L337.72 170.78L337.72 170.78L337.72 143.54L337.72 143.54L89.94 143.54z" /></clipPath><clipPath id="14"><path clip-rule="evenodd" d="M89.94 170.78L337.72 170.78L337.72 170.78L337.72 143.54L337.72 143.54L89.94 143.54z" /></clipPath><clipPath id="15"><path clip-rule="evenodd" d="M338.38 170.78L436.96 170.78L436.96 170.78L436.96 143.54L436.96 143.54L338.38 143.54z" /></clipPath><clipPath id="16"><path clip-rule="evenodd" d="M338.38 170.78L436.96 170.78L436.96 170.78L436.96 143.54L436.96 143.54L338.38 143.54z" /></clipPath><clipPath id="17"><path clip-rule="evenodd" d="M338.38 170.78L436.96 170.78L436.96 170.78L436.96 143.54L436.96 143.54L338.38 143.54z" /></clipPath><clipPath id="18"><path clip-rule="evenodd" d="M338.38 170.78L436.96 170.78L436.96 170.78L436.96 143.54L436.96 143.54L338.38 143.54z" /></clipPath><clipPath id="19"><path clip-rule="evenodd" d="M437.62 170.78L529.14 170.78L529.14 170.78L529.14 143.54L529.14 143.54L437.62 143.54z" /></clipPath><clipPath id="20"><path clip-rule="evenodd" d="M437.62 170.78L529.14 170.78L529.14 170.78L529.14 143.54L529.14 143.54L437.62 143.54z" /></clipPath><clipPath id="21"><path clip-rule="evenodd" d="M437.62 170.78L529.14 170.78L529.14 170.78L529.14 143.54L529.14 143.54L437.62 143.54z" /></clipPath><clipPath id="22"><path clip-rule="evenodd" d="M89.94 185.12L337.72 185.12L337.72 185.12L337.72 171.5L337.72 171.5L89.94 171.5z" /></clipPath><clipPath id="23"><path clip-rule="evenodd" d="M89.94 185.12L337.72 185.12L337.72 185.12L337.72 171.5L337.72 171.5L89.94 171.5z" /></clipPath><clipPath id="24"><path clip-rule="evenodd" d="M89.94 185.12L337.72 185.12L337.72 185.12L337.72 171.5L337.72 171.5L89.94 171.5z" /></clipPath><clipPath id="25"><path clip-rule="evenodd" d="M338.38 185.12L436.96 185.12L436.96 185.12L436.96 171.5L436.96 171.5L338.38 171.5z" /></clipPath><clipPath id="26"><path clip-rule="evenodd" d="M338.38 185.12L436.96 185.12L436.96 185.12L436.96 171.5L436.96 171.5L338.38 171.5z" /></clipPath><clipPath id="27"><path clip-rule="evenodd" d="M338.38 185.12L436.96 185.12L436.96 185.12L436.96 171.5L436.96 171.5L338.38 171.5z" /></clipPath><clipPath id="28"><path clip-rule="evenodd" d="M437.62 255.8L529.14 255.8L529.14 255.8L529.14 242.18L529.14 242.18L437.62 242.18z" /></clipPath><clipPath id="29"><path clip-rule="evenodd" d="M437.62 255.8L529.14 255.8L529.14 255.8L529.14 242.18L529.14 242.18L437.62 242.18z" /></clipPath><clipPath id="30"><path clip-rule="evenodd" d="M437.62 255.8L529.14 255.8L529.14 255.8L529.14 242.18L529.14 242.18L437.62 242.18z" /></clipPath><clipPath id="31"><path clip-rule="evenodd" d="M437.62 326.54L529.14 326.54L529.14 326.54L529.14 171.5L529.14 171.5L437.62 171.5z" /></clipPath><clipPath id="32"><path clip-rule="evenodd" d="M437.62 326.54L529.14 326.54L529.14 326.54L529.14 171.5L529.14 171.5L437.62 171.5z" /></clipPath><clipPath id="33"><path clip-rule="evenodd" d="M89.94 199.52L337.72 199.52L337.72 199.52L337.72 185.9L337.72 185.9L89.94 185.9z" /></clipPath><clipPath id="34"><path clip-rule="evenodd" d="M89.94 199.52L337.72 199.52L337.72 199.52L337.72 185.9L337.72 185.9L89.94 185.9z" /></clipPath><clipPath id="35"><path clip-rule="evenodd" d="M89.94 199.52L337.72 199.52L337.72 199.52L337.72 185.9L337.72 185.9L89.94 185.9z" /></clipPath><clipPath id="36"><path clip-rule="evenodd" d="M338.38 199.52L436.96 199.52L436.96 199.52L436.96 185.9L436.96 185.9L338.38 185.9z" /></clipPath><clipPath id="37"><path clip-rule="evenodd" d="M338.38 199.52L436.96 199.52L436.96 199.52L436.96 185.9L436.96 185.9L338.38 185.9z" /></clipPath><clipPath id="38"><path clip-rule="evenodd" d="M338.38 199.52L436.96 199.52L436.96 199.52L436.96 185.9L436.96 185.9L338.38 185.9z" /></clipPath><clipPath id="39"><path clip-rule="evenodd" d="M89.94 213.86L337.72 213.86L337.72 213.86L337.72 200.24L337.72 200.24L89.94 200.24z" /></clipPath><clipPath id="40"><path clip-rule="evenodd" d="M89.94 213.86L337.72 213.86L337.72 213.86L337.72 200.24L337.72 200.24L89.94 200.24z" /></clipPath><clipPath id="41"><path clip-rule="evenodd" d="M89.94 213.86L337.72 213.86L337.72 213.86L337.72 200.24L337.72 200.24L89.94 200.24z" /></clipPath><clipPath id="42"><path clip-rule="evenodd" d="M338.38 213.86L436.96 213.86L436.96 213.86L436.96 200.24L436.96 200.24L338.38 200.24z" /></clipPath><clipPath id="43"><path clip-rule="evenodd" d="M338.38 213.86L436.96 213.86L436.96 213.86L436.96 200.24L436.96 200.24L338.38 200.24z" /></clipPath><clipPath id="44"><path clip-rule="evenodd" d="M338.38 213.86L436.96 213.86L436.96 213.86L436.96 200.24L436.96 200.24L338.38 200.24z" /></clipPath><clipPath id="45"><path clip-rule="evenodd" d="M89.94 228.26L337.72 228.26L337.72 228.26L337.72 214.64L337.72 214.64L89.94 214.64z" /></clipPath><clipPath id="46"><path clip-rule="evenodd" d="M89.94 228.26L337.72 228.26L337.72 228.26L337.72 214.64L337.72 214.64L89.94 214.64z" /></clipPath><clipPath id="47"><path clip-rule="evenodd" d="M89.94 228.26L337.72 228.26L337.72 228.26L337.72 214.64L337.72 214.64L89.94 214.64z" /></clipPath><clipPath id="48"><path clip-rule="evenodd" d="M89.94 228.26L337.72 228.26L337.72 228.26L337.72 214.64L337.72 214.64L89.94 214.64z" /></clipPath><clipPath id="49"><path clip-rule="evenodd" d="M338.38 228.26L436.96 228.26L436.96 228.26L436.96 214.64L436.96 214.64L338.38 214.64z" /></clipPath><clipPath id="50"><path clip-rule="evenodd" d="M338.38 228.26L436.96 228.26L436.96 228.26L436.96 214.64L436.96 214.64L338.38 214.64z" /></clipPath><clipPath id="51"><path clip-rule="evenodd" d="M338.38 228.26L436.96 228.26L436.96 228.26L436.96 214.64L436.96 214.64L338.38 214.64z" /></clipPath><clipPath id="52"><path clip-rule="evenodd" d="M89.94 256.22L337.72 256.22L337.72 256.22L337.72 228.98L337.72 228.98L89.94 228.98z" /></clipPath><clipPath id="53"><path clip-rule="evenodd" d="M89.94 256.22L337.72 256.22L337.72 256.22L337.72 228.98L337.72 228.98L89.94 228.98z" /></clipPath><clipPath id="54"><path clip-rule="evenodd" d="M89.94 256.22L337.72 256.22L337.72 256.22L337.72 228.98L337.72 228.98L89.94 228.98z" /></clipPath><clipPath id="55"><path clip-rule="evenodd" d="M89.94 256.22L337.72 256.22L337.72 256.22L337.72 228.98L337.72 228.98L89.94 228.98z" /></clipPath><clipPath id="56"><path clip-rule="evenodd" d="M89.94 256.22L337.72 256.22L337.72 256.22L337.72 228.98L337.72 228.98L89.94 228.98z" /></clipPath><clipPath id="57"><path clip-rule="evenodd" d="M89.94 256.22L337.72 256.22L337.72 256.22L337.72 228.98L337.72 228.98L89.94 228.98z" /></clipPath><clipPath id="58"><path clip-rule="evenodd" d="M89.94 256.22L337.72 256.22L337.72 256.22L337.72 228.98L337.72 228.98L89.94 228.98z" /></clipPath><clipPath id="59"><path clip-rule="evenodd" d="M338.38 256.22L436.96 256.22L436.96 256.22L436.96 228.98L436.96 228.98L338.38 228.98z" /></clipPath><clipPath id="60"><path clip-rule="evenodd" d="M338.38 256.22L436.96 256.22L436.96 256.22L436.96 228.98L436.96 228.98L338.38 228.98z" /></clipPath><clipPath id="61"><path clip-rule="evenodd" d="M338.38 256.22L436.96 256.22L436.96 256.22L436.96 228.98L436.96 228.98L338.38 228.98z" /></clipPath><clipPath id="62"><path clip-rule="evenodd" d="M89.94 270.62L337.72 270.62L337.72 270.62L337.72 257L337.72 257L89.94 257z" /></clipPath><clipPath id="63"><path clip-rule="evenodd" d="M89.94 270.62L337.72 270.62L337.72 270.62L337.72 257L337.72 257L89.94 257z" /></clipPath><clipPath id="64"><path clip-rule="evenodd" d="M89.94 270.62L337.72 270.62L337.72 270.62L337.72 257L337.72 257L89.94 257z" /></clipPath><clipPath id="65"><path clip-rule="evenodd" d="M338.38 270.62L436.96 270.62L436.96 270.62L436.96 257L436.96 257L338.38 257z" /></clipPath><clipPath id="66"><path clip-rule="evenodd" d="M338.38 270.62L436.96 270.62L436.96 270.62L436.96 257L436.96 257L338.38 257z" /></clipPath><clipPath id="67"><path clip-rule="evenodd" d="M338.38 270.62L436.96 270.62L436.96 270.62L436.96 257L436.96 257L338.38 257z" /></clipPath><clipPath id="68"><path clip-rule="evenodd" d="M89.94 283.4L337.72 283.4L337.72 283.4L337.72 271.34L337.72 271.34L89.94 271.34z" /></clipPath><clipPath id="69"><path clip-rule="evenodd" d="M89.94 283.4L337.72 283.4L337.72 283.4L337.72 271.34L337.72 271.34L89.94 271.34z" /></clipPath><clipPath id="70"><path clip-rule="evenodd" d="M89.94 283.4L337.72 283.4L337.72 283.4L337.72 271.34L337.72 271.34L89.94 271.34z" /></clipPath><clipPath id="71"><path clip-rule="evenodd" d="M338.38 283.4L436.96 283.4L436.96 283.4L436.96 271.34L436.96 271.34L338.38 271.34z" /></clipPath><clipPath id="72"><path clip-rule="evenodd" d="M338.38 283.4L436.96 283.4L436.96 283.4L436.96 271.34L436.96 271.34L338.38 271.34z" /></clipPath><clipPath id="73"><path clip-rule="evenodd" d="M338.38 283.4L436.96 283.4L436.96 283.4L436.96 271.34L436.96 271.34L338.38 271.34z" /></clipPath><clipPath id="74"><path clip-rule="evenodd" d="M89.94 297.8L337.72 297.8L337.72 297.8L337.72 284.18L337.72 284.18L89.94 284.18z" /></clipPath><clipPath id="75"><path clip-rule="evenodd" d="M89.94 297.8L337.72 297.8L337.72 297.8L337.72 284.18L337.72 284.18L89.94 284.18z" /></clipPath><clipPath id="76"><path clip-rule="evenodd" d="M89.94 297.8L337.72 297.8L337.72 297.8L337.72 284.18L337.72 284.18L89.94 284.18z" /></clipPath><clipPath id="77"><path clip-rule="evenodd" d="M89.94 297.8L337.72 297.8L337.72 297.8L337.72 284.18L337.72 284.18L89.94 284.18z" /></clipPath><clipPath id="78"><path clip-rule="evenodd" d="M89.94 297.8L337.72 297.8L337.72 297.8L337.72 284.18L337.72 284.18L89.94 284.18z" /></clipPath><clipPath id="79"><path clip-rule="evenodd" d="M89.94 297.8L337.72 297.8L337.72 297.8L337.72 284.18L337.72 284.18L89.94 284.18z" /></clipPath><clipPath id="80"><path clip-rule="evenodd" d="M89.94 297.8L337.72 297.8L337.72 297.8L337.72 284.18L337.72 284.18L89.94 284.18z" /></clipPath><clipPath id="81"><path clip-rule="evenodd" d="M338.38 297.8L436.96 297.8L436.96 297.8L436.96 284.18L436.96 284.18L338.38 284.18z" /></clipPath><clipPath id="82"><path clip-rule="evenodd" d="M338.38 297.8L436.96 297.8L436.96 297.8L436.96 284.18L436.96 284.18L338.38 284.18z" /></clipPath><clipPath id="83"><path clip-rule="evenodd" d="M338.38 297.8L436.96 297.8L436.96 297.8L436.96 284.18L436.96 284.18L338.38 284.18z" /></clipPath><clipPath id="84"><path clip-rule="evenodd" d="M89.94 312.14L337.72 312.14L337.72 312.14L337.72 298.52L337.72 298.52L89.94 298.52z" /></clipPath><clipPath id="85"><path clip-rule="evenodd" d="M89.94 312.14L337.72 312.14L337.72 312.14L337.72 298.52L337.72 298.52L89.94 298.52z" /></clipPath><clipPath id="86"><path clip-rule="evenodd" d="M89.94 312.14L337.72 312.14L337.72 312.14L337.72 298.52L337.72 298.52L89.94 298.52z" /></clipPath><clipPath id="87"><path clip-rule="evenodd" d="M338.38 312.14L436.96 312.14L436.96 312.14L436.96 298.52L436.96 298.52L338.38 298.52z" /></clipPath><clipPath id="88"><path clip-rule="evenodd" d="M338.38 312.14L436.96 312.14L436.96 312.14L436.96 298.52L436.96 298.52L338.38 298.52z" /></clipPath><clipPath id="89"><path clip-rule="evenodd" d="M338.38 312.14L436.96 312.14L436.96 312.14L436.96 298.52L436.96 298.52L338.38 298.52z" /></clipPath><clipPath id="90"><path clip-rule="evenodd" d="M89.94 326.54L337.72 326.54L337.72 326.54L337.72 312.92L337.72 312.92L89.94 312.92z" /></clipPath><clipPath id="91"><path clip-rule="evenodd" d="M89.94 326.54L337.72 326.54L337.72 326.54L337.72 312.92L337.72 312.92L89.94 312.92z" /></clipPath><clipPath id="92"><path clip-rule="evenodd" d="M89.94 326.54L337.72 326.54L337.72 326.54L337.72 312.92L337.72 312.92L89.94 312.92z" /></clipPath><clipPath id="93"><path clip-rule="evenodd" d="M89.94 326.54L337.72 326.54L337.72 326.54L337.72 312.92L337.72 312.92L89.94 312.92z" /></clipPath><clipPath id="94"><path clip-rule="evenodd" d="M89.94 326.54L337.72 326.54L337.72 326.54L337.72 312.92L337.72 312.92L89.94 312.92z" /></clipPath><clipPath id="95"><path clip-rule="evenodd" d="M89.94 326.54L337.72 326.54L337.72 326.54L337.72 312.92L337.72 312.92L89.94 312.92z" /></clipPath><clipPath id="96"><path clip-rule="evenodd" d="M89.94 326.54L337.72 326.54L337.72 326.54L337.72 312.92L337.72 312.92L89.94 312.92z" /></clipPath><clipPath id="97"><path clip-rule="evenodd" d="M338.38 326.54L436.96 326.54L436.96 326.54L436.96 312.92L436.96 312.92L338.38 312.92z" /></clipPath><clipPath id="98"><path clip-rule="evenodd" d="M338.38 326.54L436.96 326.54L436.96 326.54L436.96 312.92L436.96 312.92L338.38 312.92z" /></clipPath><clipPath id="99"><path clip-rule="evenodd" d="M338.38 326.54L436.96 326.54L436.96 326.54L436.96 312.92L436.96 312.92L338.38 312.92z" /></clipPath></defs><g transform="matrix(1.333333 0 0 1.333333 0 0)"><g clip-path="url(#1)"><g clip-path="url(#2)"><path transform="matrix(1 0 0 -1 0 792)" d="M88.5 742.56L523.56 742.56L523.56 742.56L523.56 743.28L523.56 743.28L88.5 743.28z" stroke="none" fill="#000000" fill-rule="evenodd" /></g><g clip-path="url(#3)"><g clip-path="url(#4)"></g><g clip-path="url(#5)"></g></g><g clip-path="url(#6)"><g clip-path="url(#7)"></g><g clip-path="url(#8)"></g></g><path transform="matrix(1 0 0 -1 0 792)" d="M89.22 677.16L89.93999 677.16L89.93999 677.16L89.93999 677.94L89.93999 677.94L89.22 677.94z" stroke="none" fill="#000000" fill-rule="evenodd" /><path transform="matrix(1 0 0 -1 0 792)" d="M89.22 677.22L89.93999 677.22L89.93999 677.22L89.93999 677.9399L89.93999 677.9399L89.22 677.9399z" stroke="none" fill="#000000" fill-rule="evenodd" /><path transform="matrix(1 0 0 -1 0 792)" d="M89.94 677.22L436.96 677.22L436.96 677.22L436.96 677.9399L436.96 677.9399L89.94 677.9399z" stroke="none" fill="#000000" fill-rule="evenodd" /><path transform="matrix(1 0 0 -1 0 792)" d="M436.96 677.16L437.68 677.16L437.68 677.16L437.68 677.22L437.68 677.22L436.96 677.22z" stroke="none" fill="#000000" fill-rule="evenodd" /><path transform="matrix(1 0 0 -1 0 792)" d="M436.96 677.22L437.68 677.22L437.68 677.22L437.68 677.9399L437.68 677.9399L436.96 677.9399z" stroke="none" fill="#000000" fill-rule="evenodd" /><path transform="matrix(1 0 0 -1 0 792)" d="M437.68 677.22L529.14 677.22L529.14 677.22L529.14 677.9399L529.14 677.9399L437.68 677.9399z" stroke="none" fill="#000000" fill-rule="evenodd" /><path transform="matrix(1 0 0 -1 0 792)" d="M529.14 677.16L529.86 677.16L529.86 677.16L529.86 677.94L529.86 677.94L529.14 677.94z" stroke="none" fill="#000000" fill-rule="evenodd" /><path transform="matrix(1 0 0 -1 0 792)" d="M529.14 677.22L529.86 677.22L529.86 677.22L529.86 677.9399L529.86 677.9399L529.14 677.9399z" stroke="none" fill="#000000" fill-rule="evenodd" /><path transform="matrix(1 0 0 -1 0 792)" d="M89.22 663.6L89.93999 663.6L89.93999 663.6L89.93999 677.16L89.93999 677.16L89.22 677.16z" stroke="none" fill="#000000" fill-rule="evenodd" /><path transform="matrix(1 0 0 -1 0 792)" d="M436.96 663.6L437.68 663.6L437.68 663.6L437.68 677.16L437.68 677.16L436.96 677.16z" stroke="none" fill="#000000" fill-rule="evenodd" /><path transform="matrix(1 0 0 -1 0 792)" d="M529.14 663.6L529.86 663.6L529.86 663.6L529.86 677.16L529.86 677.16L529.14 677.16z" stroke="none" fill="#000000" fill-rule="evenodd" /><g clip-path="url(#9)"><g clip-path="url(#10)"></g><g clip-path="url(#11)"></g></g><path transform="matrix(1 0 0 -1 0 792)" d="M89.22 662.82L89.93999 662.82L89.93999 662.82L89.93999 663.6L89.93999 663.6L89.22 663.6z" stroke="none" fill="#000000" fill-rule="evenodd" /><path transform="matrix(1 0 0 -1 0 792)" d="M89.94 662.88L436.96 662.88L436.96 662.88L436.96 663.6L436.96 663.6L89.94 663.6z" stroke="none" fill="#000000" fill-rule="evenodd" /><path transform="matrix(1 0 0 -1 0 792)" d="M436.96 662.88L437.68 662.88L437.68 662.88L437.68 663.6L437.68 663.6L436.96 663.6z" stroke="none" fill="#000000" fill-rule="evenodd" /><path transform="matrix(1 0 0 -1 0 792)" d="M437.68 662.88L529.14 662.88L529.14 662.88L529.14 663.6L529.14 663.6L437.68 663.6z" stroke="none" fill="#000000" fill-rule="evenodd" /><path transform="matrix(1 0 0 -1 0 792)" d="M529.14 662.82L529.86 662.82L529.86 662.82L529.86 663.6L529.86 663.6L529.14 663.6z" stroke="none" fill="#000000" fill-rule="evenodd" /><path transform="matrix(1 0 0 -1 0 792)" d="M89.22 649.24L89.93999 649.24L89.93999 649.24L89.93999 662.82L89.93999 662.82L89.22 662.82z" stroke="none" fill="#000000" fill-rule="evenodd" /><path transform="matrix(1 0 0 -1 0 792)" d="M529.14 649.24L529.86 649.24L529.86 649.24L529.86 662.82L529.86 662.82L529.14 662.82z" stroke="none" fill="#000000" fill-rule="evenodd" /><g clip-path="url(#12)"><g clip-path="url(#13)"></g><g clip-path="url(#14)"></g></g><g clip-path="url(#15)"><g clip-path="url(#16)"></g><g clip-path="url(#17)"></g><g clip-path="url(#18)"></g></g><g clip-path="url(#19)"><g clip-path="url(#20)"></g><g clip-path="url(#21)"></g></g><path transform="matrix(1 0 0 -1 0 792)" d="M89.22 648.46L89.93999 648.46L89.93999 648.46L89.93999 649.2401L89.93999 649.2401L89.22 649.2401z" stroke="none" fill="#000000" fill-rule="evenodd" /><path transform="matrix(1 0 0 -1 0 792)" d="M89.94 648.52L337.66 648.52L337.66 648.52L337.66 649.24L337.66 649.24L89.94 649.24z" stroke="none" fill="#000000" fill-rule="evenodd" /><path transform="matrix(1 0 0 -1 0 792)" d="M337.66 648.46L338.38 648.46L338.38 648.46L338.38 648.52L338.38 648.52L337.66 648.52z" stroke="none" fill="#000000" fill-rule="evenodd" /><path transform="matrix(1 0 0 -1 0 792)" d="M337.66 648.52L338.38 648.52L338.38 648.52L338.38 649.24L338.38 649.24L337.66 649.24z" stroke="none" fill="#000000" fill-rule="evenodd" /><path transform="matrix(1 0 0 -1 0 792)" d="M338.38 648.52L436.96 648.52L436.96 648.52L436.96 649.24L436.96 649.24L338.38 649.24z" stroke="none" fill="#000000" fill-rule="evenodd" /><path transform="matrix(1 0 0 -1 0 792)" d="M436.96 648.46L437.68 648.46L437.68 648.46L437.68 648.52L437.68 648.52L436.96 648.52z" stroke="none" fill="#000000" fill-rule="evenodd" /><path transform="matrix(1 0 0 -1 0 792)" d="M436.96 648.52L437.68 648.52L437.68 648.52L437.68 649.24L437.68 649.24L436.96 649.24z" stroke="none" fill="#000000" fill-rule="evenodd" /><path transform="matrix(1 0 0 -1 0 792)" d="M437.68 648.52L529.14 648.52L529.14 648.52L529.14 649.24L529.14 649.24L437.68 649.24z" stroke="none" fill="#000000" fill-rule="evenodd" /><path transform="matrix(1 0 0 -1 0 792)" d="M529.14 648.46L529.86 648.46L529.86 648.46L529.86 649.2401L529.86 649.2401L529.14 649.2401z" stroke="none" fill="#000000" fill-rule="evenodd" /><path transform="matrix(1 0 0 -1 0 792)" d="M89.22 621.22L89.93999 621.22L89.93999 621.22L89.93999 648.46L89.93999 648.46L89.22 648.46z" stroke="none" fill="#000000" fill-rule="evenodd" /><path transform="matrix(1 0 0 -1 0 792)" d="M337.66 621.22L338.38 621.22L338.38 621.22L338.38 648.46L338.38 648.46L337.66 648.46z" stroke="none" fill="#000000" fill-rule="evenodd" /><path transform="matrix(1 0 0 -1 0 792)" d="M436.96 621.22L437.68 621.22L437.68 621.22L437.68 648.46L437.68 648.46L436.96 648.46z" stroke="none" fill="#000000" fill-rule="evenodd" /><path transform="matrix(1 0 0 -1 0 792)" d="M529.14 621.22L529.86 621.22L529.86 621.22L529.86 648.46L529.86 648.46L529.14 648.46z" stroke="none" fill="#000000" fill-rule="evenodd" /><g clip-path="url(#22)"><g clip-path="url(#23)"></g><g clip-path="url(#24)"></g></g><g clip-path="url(#25)"><g clip-path="url(#26)"></g><g clip-path="url(#27)"></g></g><g clip-path="url(#28)"><g clip-path="url(#29)"></g><g clip-path="url(#30)"></g></g><g clip-path="url(#31)"><g clip-path="url(#32)"></g></g><path transform="matrix(1 0 0 -1 0 792)" d="M89.22 620.44L89.93999 620.44L89.93999 620.44L89.93999 621.22L89.93999 621.22L89.22 621.22z" stroke="none" fill="#000000" fill-rule="evenodd" /><path transform="matrix(1 0 0 -1 0 792)" d="M89.94 620.5L337.66 620.5L337.66 620.5L337.66 621.22L337.66 621.22L89.94 621.22z" stroke="none" fill="#000000" fill-rule="evenodd" /><path transform="matrix(1 0 0 -1 0 792)" d="M337.66 620.44L338.38 620.44L338.38 620.44L338.38 621.22L338.38 621.22L337.66 621.22z" stroke="none" fill="#000000" fill-rule="evenodd" /><path transform="matrix(1 0 0 -1 0 792)" d="M338.38 620.5L436.96 620.5L436.96 620.5L436.96 621.22L436.96 621.22L338.38 621.22z" stroke="none" fill="#000000" fill-rule="evenodd" /><path transform="matrix(1 0 0 -1 0 792)" d="M436.96 620.44L437.68 620.44L437.68 620.44L437.68 621.22L437.68 621.22L436.96 621.22z" stroke="none" fill="#000000" fill-rule="evenodd" /><path transform="matrix(1 0 0 -1 0 792)" d="M437.68 620.5L529.14 620.5L529.14 620.5L529.14 621.22L529.14 621.22L437.68 621.22z" stroke="none" fill="#000000" fill-rule="evenodd" /><path transform="matrix(1 0 0 -1 0 792)" d="M529.14 620.44L529.86 620.44L529.86 620.44L529.86 621.22L529.86 621.22L529.14 621.22z" stroke="none" fill="#000000" fill-rule="evenodd" /><path transform="matrix(1 0 0 -1 0 792)" d="M89.22 606.88L89.93999 606.88L89.93999 606.88L89.93999 620.44L89.93999 620.44L89.22 620.44z" stroke="none" fill="#000000" fill-rule="evenodd" /><path transform="matrix(1 0 0 -1 0 792)" d="M337.66 606.88L338.38 606.88L338.38 606.88L338.38 620.44L338.38 620.44L337.66 620.44z" stroke="none" fill="#000000" fill-rule="evenodd" /><path transform="matrix(1 0 0 -1 0 792)" d="M436.96 606.88L437.68 606.88L437.68 606.88L437.68 620.44L437.68 620.44L436.96 620.44z" stroke="none" fill="#000000" fill-rule="evenodd" /><path transform="matrix(1 0 0 -1 0 792)" d="M529.14 606.88L529.86 606.88L529.86 606.88L529.86 620.44L529.86 620.44L529.14 620.44z" stroke="none" fill="#000000" fill-rule="evenodd" /><g clip-path="url(#33)"><g clip-path="url(#34)"></g><g clip-path="url(#35)"></g></g><g clip-path="url(#36)"><g clip-path="url(#37)"></g><g clip-path="url(#38)"></g></g><path transform="matrix(1 0 0 -1 0 792)" d="M89.22 606.1L89.93999 606.1L89.93999 606.1L89.93999 606.88L89.93999 606.88L89.22 606.88z" stroke="none" fill="#000000" fill-rule="evenodd" /><path transform="matrix(1 0 0 -1 0 792)" d="M89.94 606.16L337.66 606.16L337.66 606.16L337.66 606.8799L337.66 606.8799L89.94 606.8799z" stroke="none" fill="#000000" fill-rule="evenodd" /><path transform="matrix(1 0 0 -1 0 792)" d="M337.66 606.1L338.38 606.1L338.38 606.1L338.38 606.88L338.38 606.88L337.66 606.88z" stroke="none" fill="#000000" fill-rule="evenodd" /><path transform="matrix(1 0 0 -1 0 792)" d="M338.38 606.16L436.96 606.16L436.96 606.16L436.96 606.8799L436.96 606.8799L338.38 606.8799z" stroke="none" fill="#000000" fill-rule="evenodd" /><path transform="matrix(1 0 0 -1 0 792)" d="M436.96 606.1L437.68 606.1L437.68 606.1L437.68 606.88L437.68 606.88L436.96 606.88z" stroke="none" fill="#000000" fill-rule="evenodd" /><path transform="matrix(1 0 0 -1 0 792)" d="M529.14 606.1L529.86 606.1L529.86 606.1L529.86 606.88L529.86 606.88L529.14 606.88z" stroke="none" fill="#000000" fill-rule="evenodd" /><path transform="matrix(1 0 0 -1 0 792)" d="M89.22 592.48L89.93999 592.48L89.93999 592.48L89.93999 606.1L89.93999 606.1L89.22 606.1z" stroke="none" fill="#000000" fill-rule="evenodd" /><path transform="matrix(1 0 0 -1 0 792)" d="M337.66 592.48L338.38 592.48L338.38 592.48L338.38 606.1L338.38 606.1L337.66 606.1z" stroke="none" fill="#000000" fill-rule="evenodd" /><path transform="matrix(1 0 0 -1 0 792)" d="M436.96 592.48L437.68 592.48L437.68 592.48L437.68 606.1L437.68 606.1L436.96 606.1z" stroke="none" fill="#000000" fill-rule="evenodd" /><path transform="matrix(1 0 0 -1 0 792)" d="M529.14 592.48L529.86 592.48L529.86 592.48L529.86 606.1L529.86 606.1L529.14 606.1z" stroke="none" fill="#000000" fill-rule="evenodd" /><g clip-path="url(#39)"><g clip-path="url(#40)"></g><g clip-path="url(#41)"></g></g><g clip-path="url(#42)"><g clip-path="url(#43)"></g><g clip-path="url(#44)"></g></g><path transform="matrix(1 0 0 -1 0 792)" d="M89.22 591.7L89.93999 591.7L89.93999 591.7L89.93999 592.48L89.93999 592.48L89.22 592.48z" stroke="none" fill="#000000" fill-rule="evenodd" /><path transform="matrix(1 0 0 -1 0 792)" d="M89.94 591.76L337.66 591.76L337.66 591.76L337.66 592.48L337.66 592.48L89.94 592.48z" stroke="none" fill="#000000" fill-rule="evenodd" /><path transform="matrix(1 0 0 -1 0 792)" d="M337.66 591.7L338.38 591.7L338.38 591.7L338.38 592.48L338.38 592.48L337.66 592.48z" stroke="none" fill="#000000" fill-rule="evenodd" /><path transform="matrix(1 0 0 -1 0 792)" d="M338.38 591.76L436.96 591.76L436.96 591.76L436.96 592.48L436.96 592.48L338.38 592.48z" stroke="none" fill="#000000" fill-rule="evenodd" /><path transform="matrix(1 0 0 -1 0 792)" d="M436.96 591.7L437.68 591.7L437.68 591.7L437.68 592.48L437.68 592.48L436.96 592.48z" stroke="none" fill="#000000" fill-rule="evenodd" /><path transform="matrix(1 0 0 -1 0 792)" d="M529.14 591.7L529.86 591.7L529.86 591.7L529.86 592.48L529.86 592.48L529.14 592.48z" stroke="none" fill="#000000" fill-rule="evenodd" /><path transform="matrix(1 0 0 -1 0 792)" d="M89.22 578.14L89.93999 578.14L89.93999 578.14L89.93999 591.7L89.93999 591.7L89.22 591.7z" stroke="none" fill="#000000" fill-rule="evenodd" /><path transform="matrix(1 0 0 -1 0 792)" d="M337.66 578.14L338.38 578.14L338.38 578.14L338.38 591.7L338.38 591.7L337.66 591.7z" stroke="none" fill="#000000" fill-rule="evenodd" /><path transform="matrix(1 0 0 -1 0 792)" d="M436.96 578.14L437.68 578.14L437.68 578.14L437.68 591.7L437.68 591.7L436.96 591.7z" stroke="none" fill="#000000" fill-rule="evenodd" /><path transform="matrix(1 0 0 -1 0 792)" d="M529.14 578.14L529.86 578.14L529.86 578.14L529.86 591.7L529.86 591.7L529.14 591.7z" stroke="none" fill="#000000" fill-rule="evenodd" /><g clip-path="url(#45)"><g clip-path="url(#46)"></g><g clip-path="url(#47)"></g><g clip-path="url(#48)"></g></g><g clip-path="url(#49)"><g clip-path="url(#50)"></g><g clip-path="url(#51)"></g></g><path transform="matrix(1 0 0 -1 0 792)" d="M89.22 577.36L89.93999 577.36L89.93999 577.36L89.93999 578.14L89.93999 578.14L89.22 578.14z" stroke="none" fill="#000000" fill-rule="evenodd" /><path transform="matrix(1 0 0 -1 0 792)" d="M89.94 577.42L337.66 577.42L337.66 577.42L337.66 578.14L337.66 578.14L89.94 578.14z" stroke="none" fill="#000000" fill-rule="evenodd" /><path transform="matrix(1 0 0 -1 0 792)" d="M337.66 577.36L338.38 577.36L338.38 577.36L338.38 578.14L338.38 578.14L337.66 578.14z" stroke="none" fill="#000000" fill-rule="evenodd" /><path transform="matrix(1 0 0 -1 0 792)" d="M338.38 577.42L436.96 577.42L436.96 577.42L436.96 578.14L436.96 578.14L338.38 578.14z" stroke="none" fill="#000000" fill-rule="evenodd" /><path transform="matrix(1 0 0 -1 0 792)" d="M436.96 577.36L437.68 577.36L437.68 577.36L437.68 578.14L437.68 578.14L436.96 578.14z" stroke="none" fill="#000000" fill-rule="evenodd" /><path transform="matrix(1 0 0 -1 0 792)" d="M529.14 577.36L529.86 577.36L529.86 577.36L529.86 578.14L529.86 578.14L529.14 578.14z" stroke="none" fill="#000000" fill-rule="evenodd" /><path transform="matrix(1 0 0 -1 0 792)" d="M89.22 563.74L89.93999 563.74L89.93999 563.74L89.93999 577.36L89.93999 577.36L89.22 577.36z" stroke="none" fill="#000000" fill-rule="evenodd" /><path transform="matrix(1 0 0 -1 0 792)" d="M337.66 563.74L338.38 563.74L338.38 563.74L338.38 577.36L338.38 577.36L337.66 577.36z" stroke="none" fill="#000000" fill-rule="evenodd" /><path transform="matrix(1 0 0 -1 0 792)" d="M436.96 563.74L437.68 563.74L437.68 563.74L437.68 577.36L437.68 577.36L436.96 577.36z" stroke="none" fill="#000000" fill-rule="evenodd" /><path transform="matrix(1 0 0 -1 0 792)" d="M529.14 563.74L529.86 563.74L529.86 563.74L529.86 577.36L529.86 577.36L529.14 577.36z" stroke="none" fill="#000000" fill-rule="evenodd" /><g clip-path="url(#52)"><g clip-path="url(#53)"></g><g clip-path="url(#54)"></g><g clip-path="url(#55)"></g><g clip-path="url(#56)"></g><g clip-path="url(#57)"></g><g clip-path="url(#58)"></g></g><g clip-path="url(#59)"><g clip-path="url(#60)"></g><g clip-path="url(#61)"></g></g><path transform="matrix(1 0 0 -1 0 792)" d="M89.22 562.96L89.93999 562.96L89.93999 562.96L89.93999 563.7401L89.93999 563.7401L89.22 563.7401z" stroke="none" fill="#000000" fill-rule="evenodd" /><path transform="matrix(1 0 0 -1 0 792)" d="M89.94 563.02L337.66 563.02L337.66 563.02L337.66 563.74L337.66 563.74L89.94 563.74z" stroke="none" fill="#000000" fill-rule="evenodd" /><path transform="matrix(1 0 0 -1 0 792)" d="M337.66 562.96L338.38 562.96L338.38 562.96L338.38 563.7401L338.38 563.7401L337.66 563.7401z" stroke="none" fill="#000000" fill-rule="evenodd" /><path transform="matrix(1 0 0 -1 0 792)" d="M338.38 563.02L436.96 563.02L436.96 563.02L436.96 563.74L436.96 563.74L338.38 563.74z" stroke="none" fill="#000000" fill-rule="evenodd" /><path transform="matrix(1 0 0 -1 0 792)" d="M436.96 562.96L437.68 562.96L437.68 562.96L437.68 563.7401L437.68 563.7401L436.96 563.7401z" stroke="none" fill="#000000" fill-rule="evenodd" /><path transform="matrix(1 0 0 -1 0 792)" d="M529.14 562.96L529.86 562.96L529.86 562.96L529.86 563.7401L529.86 563.7401L529.14 563.7401z" stroke="none" fill="#000000" fill-rule="evenodd" /><path transform="matrix(1 0 0 -1 0 792)" d="M89.22 535.78L89.93999 535.78L89.93999 535.78L89.93999 562.96L89.93999 562.96L89.22 562.96z" stroke="none" fill="#000000" fill-rule="evenodd" /><path transform="matrix(1 0 0 -1 0 792)" d="M337.66 535.78L338.38 535.78L338.38 535.78L338.38 562.96L338.38 562.96L337.66 562.96z" stroke="none" fill="#000000" fill-rule="evenodd" /><path transform="matrix(1 0 0 -1 0 792)" d="M436.96 535.78L437.68 535.78L437.68 535.78L437.68 562.96L437.68 562.96L436.96 562.96z" stroke="none" fill="#000000" fill-rule="evenodd" /><path transform="matrix(1 0 0 -1 0 792)" d="M529.14 535.78L529.86 535.78L529.86 535.78L529.86 562.96L529.86 562.96L529.14 562.96z" stroke="none" fill="#000000" fill-rule="evenodd" /><g clip-path="url(#62)"><g clip-path="url(#63)"></g><g clip-path="url(#64)"></g></g><g clip-path="url(#65)"><g clip-path="url(#66)"></g><g clip-path="url(#67)"></g></g><path transform="matrix(1 0 0 -1 0 792)" d="M89.22 535L89.93999 535L89.93999 535L89.93999 535.78L89.93999 535.78L89.22 535.78z" stroke="none" fill="#000000" fill-rule="evenodd" /><path transform="matrix(1 0 0 -1 0 792)" d="M89.94 535.06L337.66 535.06L337.66 535.06L337.66 535.78L337.66 535.78L89.94 535.78z" stroke="none" fill="#000000" fill-rule="evenodd" /><path transform="matrix(1 0 0 -1 0 792)" d="M337.66 535L338.38 535L338.38 535L338.38 535.78L338.38 535.78L337.66 535.78z" stroke="none" fill="#000000" fill-rule="evenodd" /><path transform="matrix(1 0 0 -1 0 792)" d="M338.38 535.06L436.96 535.06L436.96 535.06L436.96 535.78L436.96 535.78L338.38 535.78z" stroke="none" fill="#000000" fill-rule="evenodd" /><path transform="matrix(1 0 0 -1 0 792)" d="M436.96 535L437.68 535L437.68 535L437.68 535.78L437.68 535.78L436.96 535.78z" stroke="none" fill="#000000" fill-rule="evenodd" /><path transform="matrix(1 0 0 -1 0 792)" d="M529.14 535L529.86 535L529.86 535L529.86 535.78L529.86 535.78L529.14 535.78z" stroke="none" fill="#000000" fill-rule="evenodd" /><path transform="matrix(1 0 0 -1 0 792)" d="M89.22 521.38L89.93999 521.38L89.93999 521.38L89.93999 535L89.93999 535L89.22 535z" stroke="none" fill="#000000" fill-rule="evenodd" /><path transform="matrix(1 0 0 -1 0 792)" d="M337.66 521.38L338.38 521.38L338.38 521.38L338.38 535L338.38 535L337.66 535z" stroke="none" fill="#000000" fill-rule="evenodd" /><path transform="matrix(1 0 0 -1 0 792)" d="M436.96 521.38L437.68 521.38L437.68 521.38L437.68 535L437.68 535L436.96 535z" stroke="none" fill="#000000" fill-rule="evenodd" /><path transform="matrix(1 0 0 -1 0 792)" d="M529.14 521.38L529.86 521.38L529.86 521.38L529.86 535L529.86 535L529.14 535z" stroke="none" fill="#000000" fill-rule="evenodd" /><g clip-path="url(#68)"><g clip-path="url(#69)"></g><g clip-path="url(#70)"></g></g><g clip-path="url(#71)"><g clip-path="url(#72)"></g><g clip-path="url(#73)"></g></g><path transform="matrix(1 0 0 -1 0 792)" d="M89.22 520.6L89.93999 520.6L89.93999 520.6L89.93999 521.38L89.93999 521.38L89.22 521.38z" stroke="none" fill="#000000" fill-rule="evenodd" /><path transform="matrix(1 0 0 -1 0 792)" d="M89.94 520.66L337.66 520.66L337.66 520.66L337.66 521.3799L337.66 521.3799L89.94 521.3799z" stroke="none" fill="#000000" fill-rule="evenodd" /><path transform="matrix(1 0 0 -1 0 792)" d="M337.66 520.6L338.38 520.6L338.38 520.6L338.38 521.38L338.38 521.38L337.66 521.38z" stroke="none" fill="#000000" fill-rule="evenodd" /><path transform="matrix(1 0 0 -1 0 792)" d="M338.38 520.66L436.96 520.66L436.96 520.66L436.96 521.3799L436.96 521.3799L338.38 521.3799z" stroke="none" fill="#000000" fill-rule="evenodd" /><path transform="matrix(1 0 0 -1 0 792)" d="M436.96 520.6L437.68 520.6L437.68 520.6L437.68 521.38L437.68 521.38L436.96 521.38z" stroke="none" fill="#000000" fill-rule="evenodd" /><path transform="matrix(1 0 0 -1 0 792)" d="M529.14 520.6L529.86 520.6L529.86 520.6L529.86 521.38L529.86 521.38L529.14 521.38z" stroke="none" fill="#000000" fill-rule="evenodd" /><path transform="matrix(1 0 0 -1 0 792)" d="M89.22 508.6L89.93999 508.6L89.93999 508.6L89.93999 520.6L89.93999 520.6L89.22 520.6z" stroke="none" fill="#000000" fill-rule="evenodd" /><path transform="matrix(1 0 0 -1 0 792)" d="M337.66 508.6L338.38 508.6L338.38 508.6L338.38 520.6L338.38 520.6L337.66 520.6z" stroke="none" fill="#000000" fill-rule="evenodd" /><path transform="matrix(1 0 0 -1 0 792)" d="M436.96 508.6L437.68 508.6L437.68 508.6L437.68 520.6L437.68 520.6L436.96 520.6z" stroke="none" fill="#000000" fill-rule="evenodd" /><path transform="matrix(1 0 0 -1 0 792)" d="M529.14 508.6L529.86 508.6L529.86 508.6L529.86 520.6L529.86 520.6L529.14 520.6z" stroke="none" fill="#000000" fill-rule="evenodd" /><g clip-path="url(#74)"><g clip-path="url(#75)"></g><g clip-path="url(#76)"></g><g clip-path="url(#77)"></g><g clip-path="url(#78)"></g><g clip-path="url(#79)"></g><g clip-path="url(#80)"></g></g><g clip-path="url(#81)"><g clip-path="url(#82)"></g><g clip-path="url(#83)"></g></g><path transform="matrix(1 0 0 -1 0 792)" d="M89.22 507.82L89.93999 507.82L89.93999 507.82L89.93999 508.6L89.93999 508.6L89.22 508.6z" stroke="none" fill="#000000" fill-rule="evenodd" /><path transform="matrix(1 0 0 -1 0 792)" d="M89.94 507.88L337.66 507.88L337.66 507.88L337.66 508.6L337.66 508.6L89.94 508.6z" stroke="none" fill="#000000" fill-rule="evenodd" /><path transform="matrix(1 0 0 -1 0 792)" d="M337.66 507.82L338.38 507.82L338.38 507.82L338.38 508.6L338.38 508.6L337.66 508.6z" stroke="none" fill="#000000" fill-rule="evenodd" /><path transform="matrix(1 0 0 -1 0 792)" d="M338.38 507.88L436.96 507.88L436.96 507.88L436.96 508.6L436.96 508.6L338.38 508.6z" stroke="none" fill="#000000" fill-rule="evenodd" /><path transform="matrix(1 0 0 -1 0 792)" d="M436.96 507.82L437.68 507.82L437.68 507.82L437.68 508.6L437.68 508.6L436.96 508.6z" stroke="none" fill="#000000" fill-rule="evenodd" /><path transform="matrix(1 0 0 -1 0 792)" d="M529.14 507.82L529.86 507.82L529.86 507.82L529.86 508.6L529.86 508.6L529.14 508.6z" stroke="none" fill="#000000" fill-rule="evenodd" /><path transform="matrix(1 0 0 -1 0 792)" d="M89.22 494.2L89.93999 494.2L89.93999 494.2L89.93999 507.82L89.93999 507.82L89.22 507.82z" stroke="none" fill="#000000" fill-rule="evenodd" /><path transform="matrix(1 0 0 -1 0 792)" d="M337.66 494.2L338.38 494.2L338.38 494.2L338.38 507.82L338.38 507.82L337.66 507.82z" stroke="none" fill="#000000" fill-rule="evenodd" /><path transform="matrix(1 0 0 -1 0 792)" d="M436.96 494.2L437.68 494.2L437.68 494.2L437.68 507.82L437.68 507.82L436.96 507.82z" stroke="none" fill="#000000" fill-rule="evenodd" /><path transform="matrix(1 0 0 -1 0 792)" d="M529.14 494.2L529.86 494.2L529.86 494.2L529.86 507.82L529.86 507.82L529.14 507.82z" stroke="none" fill="#000000" fill-rule="evenodd" /><g clip-path="url(#84)"><g clip-path="url(#85)"></g><g clip-path="url(#86)"></g></g><g clip-path="url(#87)"><g clip-path="url(#88)"></g><g clip-path="url(#89)"></g></g><path transform="matrix(1 0 0 -1 0 792)" d="M89.22 493.42L89.93999 493.42L89.93999 493.42L89.93999 494.2L89.93999 494.2L89.22 494.2z" stroke="none" fill="#000000" fill-rule="evenodd" /><path transform="matrix(1 0 0 -1 0 792)" d="M89.94 493.48L337.66 493.48L337.66 493.48L337.66 494.2L337.66 494.2L89.94 494.2z" stroke="none" fill="#000000" fill-rule="evenodd" /><path transform="matrix(1 0 0 -1 0 792)" d="M337.66 493.42L338.38 493.42L338.38 493.42L338.38 494.2L338.38 494.2L337.66 494.2z" stroke="none" fill="#000000" fill-rule="evenodd" /><path transform="matrix(1 0 0 -1 0 792)" d="M338.38 493.48L436.96 493.48L436.96 493.48L436.96 494.2L436.96 494.2L338.38 494.2z" stroke="none" fill="#000000" fill-rule="evenodd" /><path transform="matrix(1 0 0 -1 0 792)" d="M436.96 493.42L437.68 493.42L437.68 493.42L437.68 494.2L437.68 494.2L436.96 494.2z" stroke="none" fill="#000000" fill-rule="evenodd" /><path transform="matrix(1 0 0 -1 0 792)" d="M529.14 493.42L529.86 493.42L529.86 493.42L529.86 494.2L529.86 494.2L529.14 494.2z" stroke="none" fill="#000000" fill-rule="evenodd" /><path transform="matrix(1 0 0 -1 0 792)" d="M89.22 479.86L89.93999 479.86L89.93999 479.86L89.93999 493.42L89.93999 493.42L89.22 493.42z" stroke="none" fill="#000000" fill-rule="evenodd" /><path transform="matrix(1 0 0 -1 0 792)" d="M337.66 479.86L338.38 479.86L338.38 479.86L338.38 493.42L338.38 493.42L337.66 493.42z" stroke="none" fill="#000000" fill-rule="evenodd" /><path transform="matrix(1 0 0 -1 0 792)" d="M436.96 479.86L437.68 479.86L437.68 479.86L437.68 493.42L437.68 493.42L436.96 493.42z" stroke="none" fill="#000000" fill-rule="evenodd" /><path transform="matrix(1 0 0 -1 0 792)" d="M529.14 479.86L529.86 479.86L529.86 479.86L529.86 493.42L529.86 493.42L529.14 493.42z" stroke="none" fill="#000000" fill-rule="evenodd" /><g clip-path="url(#90)"><g clip-path="url(#91)"></g><g clip-path="url(#92)"></g><g clip-path="url(#93)"></g><g clip-path="url(#94)"></g><g clip-path="url(#95)"></g><g clip-path="url(#96)"></g></g><g clip-path="url(#97)"><g clip-path="url(#98)"></g><g clip-path="url(#99)"></g></g><path transform="matrix(1 0 0 -1 0 792)" d="M89.22 479.08L89.93999 479.08L89.93999 479.08L89.93999 479.86L89.93999 479.86L89.22 479.86z" stroke="none" fill="#000000" fill-rule="evenodd" /><path transform="matrix(1 0 0 -1 0 792)" d="M89.94 479.14L337.66 479.14L337.66 479.14L337.66 479.86L337.66 479.86L89.94 479.86z" stroke="none" fill="#000000" fill-rule="evenodd" /><path transform="matrix(1 0 0 -1 0 792)" d="M337.66 479.08L338.38 479.08L338.38 479.08L338.38 479.86L338.38 479.86L337.66 479.86z" stroke="none" fill="#000000" fill-rule="evenodd" /><path transform="matrix(1 0 0 -1 0 792)" d="M338.38 479.14L436.96 479.14L436.96 479.14L436.96 479.86L436.96 479.86L338.38 479.86z" stroke="none" fill="#000000" fill-rule="evenodd" /><path transform="matrix(1 0 0 -1 0 792)" d="M436.96 479.08L437.68 479.08L437.68 479.08L437.68 479.86L437.68 479.86L436.96 479.86z" stroke="none" fill="#000000" fill-rule="evenodd" /><path transform="matrix(1 0 0 -1 0 792)" d="M529.14 479.08L529.86 479.08L529.86 479.08L529.86 479.86L529.86 479.86L529.14 479.86z" stroke="none" fill="#000000" fill-rule="evenodd" /><path transform="matrix(1 0 0 -1 0 792)" d="M89.22 465.46L89.93999 465.46L89.93999 465.46L89.93999 479.08L89.93999 479.08L89.22 479.08z" stroke="none" fill="#000000" fill-rule="evenodd" /><path transform="matrix(1 0 0 -1 0 792)" d="M89.22 464.74L89.93999 464.74L89.93999 464.74L89.93999 465.46L89.93999 465.46L89.22 465.46z" stroke="none" fill="#000000" fill-rule="evenodd" /><path transform="matrix(1 0 0 -1 0 792)" d="M89.22 464.74L89.93999 464.74L89.93999 464.74L89.93999 465.46L89.93999 465.46L89.22 465.46z" stroke="none" fill="#000000" fill-rule="evenodd" /><path transform="matrix(1 0 0 -1 0 792)" d="M89.94 464.74L337.66 464.74L337.66 464.74L337.66 465.46L337.66 465.46L89.94 465.46z" stroke="none" fill="#000000" fill-rule="evenodd" /><path transform="matrix(1 0 0 -1 0 792)" d="M337.66 465.46L338.38 465.46L338.38 465.46L338.38 479.08L338.38 479.08L337.66 479.08z" stroke="none" fill="#000000" fill-rule="evenodd" /><path transform="matrix(1 0 0 -1 0 792)" d="M337.66 464.74L338.38 464.74L338.38 464.74L338.38 465.46L338.38 465.46L337.66 465.46z" stroke="none" fill="#000000" fill-rule="evenodd" /><path transform="matrix(1 0 0 -1 0 792)" d="M338.38 464.74L436.96 464.74L436.96 464.74L436.96 465.46L436.96 465.46L338.38 465.46z" stroke="none" fill="#000000" fill-rule="evenodd" /><path transform="matrix(1 0 0 -1 0 792)" d="M436.96 465.46L437.68 465.46L437.68 465.46L437.68 479.08L437.68 479.08L436.96 479.08z" stroke="none" fill="#000000" fill-rule="evenodd" /><path transform="matrix(1 0 0 -1 0 792)" d="M436.96 464.74L437.68 464.74L437.68 464.74L437.68 465.46L437.68 465.46L436.96 465.46z" stroke="none" fill="#000000" fill-rule="evenodd" /><path transform="matrix(1 0 0 -1 0 792)" d="M437.68 464.74L529.14 464.74L529.14 464.74L529.14 465.46L529.14 465.46L437.68 465.46z" stroke="none" fill="#000000" fill-rule="evenodd" /><path transform="matrix(1 0 0 -1 0 792)" d="M529.14 465.46L529.86 465.46L529.86 465.46L529.86 479.08L529.86 479.08L529.14 479.08z" stroke="none" fill="#000000" fill-rule="evenodd" /><path transform="matrix(1 0 0 -1 0 792)" d="M529.14 464.74L529.86 464.74L529.86 464.74L529.86 465.46L529.86 465.46L529.14 465.46z" stroke="none" fill="#000000" fill-rule="evenodd" /><path transform="matrix(1 0 0 -1 0 792)" d="M529.14 464.74L529.86 464.74L529.86 464.74L529.86 465.46L529.86 465.46L529.14 465.46z" stroke="none" fill="#000000" fill-rule="evenodd" /></g></g></svg>